G04*
G04 #@! TF.GenerationSoftware,Altium Limited,Altium Designer,26.5.0 (11)*
G04*
G04 Layer_Color=128*
G04 Board_Origin=0|0*
%FSLAX44Y44*%
%MOMM*%
G71*
G04*
G04 #@! TF.SameCoordinates,A90659DB-F331-4761-9575-B882DE05BAF6*
G04*
G04*
G04 #@! TF.FilePolarity,Positive*
G04*
G01*
G75*
%ADD18R,1.0121X1.0587*%
%ADD19R,0.9000X0.8000*%
%ADD28R,1.0587X1.0121*%
%ADD31R,1.0000X1.2500*%
%ADD37R,0.8000X0.9000*%
%ADD44R,1.2500X1.0000*%
%ADD95R,2.4000X2.8000*%
%ADD96R,2.1500X0.9500*%
G04:AMPARAMS|DCode=97|XSize=2.17mm|YSize=1.57mm|CornerRadius=0.1963mm|HoleSize=0mm|Usage=FLASHONLY|Rotation=0.000|XOffset=0mm|YOffset=0mm|HoleType=Round|Shape=RoundedRectangle|*
%AMROUNDEDRECTD97*
21,1,2.1700,1.1775,0,0,0.0*
21,1,1.7775,1.5700,0,0,0.0*
1,1,0.3925,0.8888,-0.5888*
1,1,0.3925,-0.8888,-0.5888*
1,1,0.3925,-0.8888,0.5888*
1,1,0.3925,0.8888,0.5888*
%
%ADD97ROUNDEDRECTD97*%
G04:AMPARAMS|DCode=99|XSize=1.97mm|YSize=0.6mm|CornerRadius=0.075mm|HoleSize=0mm|Usage=FLASHONLY|Rotation=180.000|XOffset=0mm|YOffset=0mm|HoleType=Round|Shape=RoundedRectangle|*
%AMROUNDEDRECTD99*
21,1,1.9700,0.4500,0,0,180.0*
21,1,1.8200,0.6000,0,0,180.0*
1,1,0.1500,-0.9100,0.2250*
1,1,0.1500,0.9100,0.2250*
1,1,0.1500,0.9100,-0.2250*
1,1,0.1500,-0.9100,-0.2250*
%
%ADD99ROUNDEDRECTD99*%
%ADD100R,2.1500X3.2500*%
G36*
X1407110Y293941D02*
X1419910D01*
X1420410Y294441D01*
Y305941D01*
X1419910Y306441D01*
X1415809Y306491D01*
Y301991D01*
X1411310D01*
Y306391D01*
X1407110Y306441D01*
X1406610Y305941D01*
Y294441D01*
X1407110Y293941D01*
D02*
G37*
G36*
X1419910Y328040D02*
X1407110D01*
X1406610Y327540D01*
Y316040D01*
X1407110Y315540D01*
X1411210Y315490D01*
Y319990D01*
X1415710D01*
Y315590D01*
X1419910Y315540D01*
X1420410Y316040D01*
Y327540D01*
X1419910Y328040D01*
D02*
G37*
G36*
X1433418Y293266D02*
X1446218D01*
X1446718Y293766D01*
Y305267D01*
X1446218Y305767D01*
X1442117Y305817D01*
Y301317D01*
X1437618D01*
Y305717D01*
X1433418Y305767D01*
X1432918Y305267D01*
Y293766D01*
X1433418Y293266D01*
D02*
G37*
G36*
X1446218Y327366D02*
X1433418D01*
X1432918Y326866D01*
Y315366D01*
X1433418Y314866D01*
X1437519Y314816D01*
Y319316D01*
X1442018D01*
Y314916D01*
X1446218Y314866D01*
X1446718Y315366D01*
Y326866D01*
X1446218Y327366D01*
D02*
G37*
D18*
X1236980Y289806D02*
D03*
X1389380Y319917D02*
D03*
X1449070Y443230D02*
D03*
Y460764D02*
D03*
X1236980Y344047D02*
D03*
Y307340D02*
D03*
X1389380Y302383D02*
D03*
X1264920Y301113D02*
D03*
Y318647D02*
D03*
X1236980Y326513D02*
D03*
D19*
X1168400Y433070D02*
D03*
Y447068D02*
D03*
X1424420Y415841D02*
D03*
Y401843D02*
D03*
X1189990Y433042D02*
D03*
Y447040D02*
D03*
X1425460Y456922D02*
D03*
X1288300Y315829D02*
D03*
X1425460Y442924D02*
D03*
X1288300Y301831D02*
D03*
D28*
X1411994Y275590D02*
D03*
X1239202Y466459D02*
D03*
X1221668D02*
D03*
X1394460Y275590D02*
D03*
D31*
X1284918Y464820D02*
D03*
X1264920D02*
D03*
D37*
X1350411Y273570D02*
D03*
X1283569Y282690D02*
D03*
X1317391Y348500D02*
D03*
X1269572Y282690D02*
D03*
X1364409Y273570D02*
D03*
X1331389Y348500D02*
D03*
D44*
X1471930Y441960D02*
D03*
Y461958D02*
D03*
D95*
X1278979Y401696D02*
D03*
X1198976D02*
D03*
D96*
X1395520Y463813D02*
D03*
Y440813D02*
D03*
Y417813D02*
D03*
D97*
X1356690Y377190D02*
D03*
X1315390D02*
D03*
D99*
X1315150Y316230D02*
D03*
X1364550D02*
D03*
X1315150Y328930D02*
D03*
Y303530D02*
D03*
Y290830D02*
D03*
X1364550D02*
D03*
Y303530D02*
D03*
Y328930D02*
D03*
D100*
X1337520Y440813D02*
D03*
M02*
