G04*
G04 #@! TF.GenerationSoftware,Altium Limited,Altium Designer,26.5.0 (11)*
G04*
G04 Layer_Color=16711935*
G04 Board_Origin=0|0*
%FSLAX44Y44*%
%MOMM*%
G71*
G04*
G04 #@! TF.SameCoordinates,A90659DB-F331-4761-9575-B882DE05BAF6*
G04*
G04*
G04 #@! TF.FilePolarity,Positive*
G04*
G01*
G75*
%ADD11C,0.2000*%
D11*
X1459131Y432936D02*
Y471058D01*
X1439009D02*
X1459131D01*
X1439009Y432936D02*
Y471058D01*
Y432936D02*
X1459131D01*
X1226919Y317634D02*
X1247041D01*
Y279512D02*
Y317634D01*
X1226919Y279512D02*
X1247041D01*
X1226919D02*
Y317634D01*
X1379319Y330211D02*
X1399441D01*
Y292089D02*
Y330211D01*
X1379319Y292089D02*
X1399441D01*
X1379319D02*
Y330211D01*
X1384166Y265529D02*
Y285651D01*
X1422288D01*
Y265529D02*
Y285651D01*
X1384166Y265529D02*
X1422288D01*
X1211374Y456399D02*
Y476520D01*
X1249495D01*
Y456399D02*
Y476520D01*
X1211374Y456399D02*
X1249495D01*
X1254859Y328941D02*
X1274981D01*
Y290819D02*
Y328941D01*
X1254859Y290819D02*
X1274981D01*
X1254859D02*
Y328941D01*
X1226919Y354341D02*
X1247041D01*
Y316219D02*
Y354341D01*
X1226919Y316219D02*
X1247041D01*
X1226919D02*
Y354341D01*
M02*
