G04*
G04 #@! TF.GenerationSoftware,Altium Limited,Altium Designer,26.5.0 (11)*
G04*
G04 Layer_Color=0*
G04 Board_Origin=0|0*
%FSLAX44Y44*%
%MOMM*%
G71*
G04*
G04 #@! TF.SameCoordinates,A90659DB-F331-4761-9575-B882DE05BAF6*
G04*
G04*
G04 #@! TF.FilePolarity,Positive*
G04*
G01*
G75*
%ADD13C,0.1000*%
D13*
X1098296Y381842D02*
Y391842D01*
X1093296Y386842D02*
X1103296D01*
X842264Y389208D02*
Y399208D01*
X837264Y394208D02*
X847264D01*
X1470220Y471170D02*
X1480220D01*
X1475220Y466170D02*
Y476170D01*
X1358557Y454537D02*
X1368557D01*
X1363557Y449537D02*
Y459537D01*
X1327230Y454537D02*
X1337230D01*
X1332230Y449537D02*
Y459537D01*
X1295903Y454537D02*
X1305903D01*
X1300903Y449537D02*
Y459537D01*
X1264577Y454537D02*
X1274577D01*
X1269577Y449537D02*
Y459537D01*
X740410Y560150D02*
Y570150D01*
X735410Y565150D02*
X745410D01*
X842090Y828040D02*
X852090D01*
X847090Y823040D02*
Y833040D01*
X1324102Y767160D02*
Y777160D01*
X1319102Y772160D02*
X1329102D01*
X1131570Y452323D02*
Y462323D01*
X1126570Y457323D02*
X1136570D01*
X948770Y403860D02*
X958770D01*
X953770Y398860D02*
Y408860D01*
X948770Y431377D02*
X958770D01*
X953770Y426377D02*
Y436377D01*
X1127760Y539830D02*
Y549830D01*
X1122760Y544830D02*
X1132760D01*
X1046480Y567770D02*
Y577770D01*
X1041480Y572770D02*
X1051480D01*
X1102440Y457323D02*
X1112440D01*
X1107440Y452323D02*
Y462323D01*
X1079703Y504190D02*
X1089703D01*
X1084703Y499190D02*
Y509190D01*
X948770Y378460D02*
X958770D01*
X953770Y373460D02*
Y383460D01*
X948770Y457200D02*
X958770D01*
X953770Y452200D02*
Y462200D01*
X1149430Y457323D02*
X1159430D01*
X1154430Y452323D02*
Y462323D01*
X1149430Y506607D02*
X1159430D01*
X1154430Y501607D02*
Y511607D01*
X1083051Y540470D02*
Y550470D01*
X1078051Y545470D02*
X1088051D01*
X985600Y537087D02*
X995600D01*
X990600Y532087D02*
Y542087D01*
X1574880Y443230D02*
X1584880D01*
X1579880Y438230D02*
Y448230D01*
X1515190Y443230D02*
X1525190D01*
X1520190Y438230D02*
Y448230D01*
X756920Y409020D02*
Y419020D01*
X751920Y414020D02*
X761920D01*
X755650Y490300D02*
Y500300D01*
X750650Y495300D02*
X760650D01*
X1129030Y661627D02*
Y671627D01*
X1124030Y666627D02*
X1134030D01*
X1134110Y817837D02*
Y827837D01*
X1129110Y822837D02*
X1139110D01*
X878920Y679450D02*
X888920D01*
X883920Y674450D02*
Y684450D01*
M02*
