G04*
G04 #@! TF.GenerationSoftware,Altium Limited,Altium Designer,26.5.0 (11)*
G04*
G04 Layer_Physical_Order=3*
G04 Layer_Color=16440176*
G04 Board_Origin=0|0*
%FSLAX44Y44*%
%MOMM*%
G71*
G04*
G04 #@! TF.SameCoordinates,A90659DB-F331-4761-9575-B882DE05BAF6*
G04*
G04*
G04 #@! TF.FilePolarity,Positive*
G04*
G01*
G75*
%ADD61C,1.6000*%
%ADD64C,1.5080*%
%ADD65C,0.7500*%
%ADD69C,3.3000*%
%ADD70C,1.0000*%
%ADD71C,0.5080*%
%ADD72C,0.4500*%
%ADD73C,0.6000*%
%ADD80C,0.5080*%
%ADD81C,0.7620*%
%ADD88C,1.8000*%
%ADD89O,1.8000X1.2000*%
%ADD90O,2.0000X1.2000*%
%ADD91C,1.5000*%
%ADD92R,1.5000X1.5000*%
%ADD93C,0.1078*%
%ADD94C,1.0160*%
G36*
X1592195Y854324D02*
X1598526Y852628D01*
X1604582Y850120D01*
X1610258Y846843D01*
X1615458Y842853D01*
X1620093Y838218D01*
X1624083Y833018D01*
X1627360Y827342D01*
X1629868Y821286D01*
X1631564Y814955D01*
X1632420Y808457D01*
Y805180D01*
X1632820Y804030D01*
X1632420Y299480D01*
Y296203D01*
X1631564Y289704D01*
X1629868Y283374D01*
X1627360Y277318D01*
X1624083Y271642D01*
X1620093Y266442D01*
X1615458Y261807D01*
X1610258Y257817D01*
X1604582Y254540D01*
X1598526Y252032D01*
X1592195Y250336D01*
X1585697Y249480D01*
X685063D01*
X678565Y250336D01*
X672234Y252032D01*
X666178Y254540D01*
X660502Y257817D01*
X655302Y261807D01*
X650667Y266442D01*
X646677Y271642D01*
X643400Y277318D01*
X640892Y283374D01*
X639196Y289704D01*
X638340Y296203D01*
Y299480D01*
Y805180D01*
Y808457D01*
X639196Y814955D01*
X640892Y821286D01*
X643400Y827342D01*
X646677Y833018D01*
X650667Y838218D01*
X655302Y842853D01*
X660502Y846843D01*
X666178Y850120D01*
X672234Y852628D01*
X678565Y854324D01*
X685063Y855180D01*
X1585697D01*
X1592195Y854324D01*
D02*
G37*
%LPC*%
G36*
X889361Y839723D02*
Y836021D01*
X893063D01*
X892398Y837628D01*
X890968Y839057D01*
X889361Y839723D01*
D02*
G37*
G36*
X886821D02*
X885213Y839057D01*
X883784Y837628D01*
X883118Y836021D01*
X886821D01*
Y839723D01*
D02*
G37*
G36*
X893063Y833481D02*
X889361D01*
Y829778D01*
X890968Y830444D01*
X892398Y831873D01*
X893063Y833481D01*
D02*
G37*
G36*
X886821D02*
X883118D01*
X883784Y831873D01*
X885213Y830444D01*
X886821Y829778D01*
Y833481D01*
D02*
G37*
G36*
X1150360Y836930D02*
X1148339D01*
X1146472Y836157D01*
X1145043Y834728D01*
X1144270Y832860D01*
Y830839D01*
X1145043Y828972D01*
X1146472Y827543D01*
X1148339Y826770D01*
X1150360D01*
X1152228Y827543D01*
X1153657Y828972D01*
X1154430Y830839D01*
Y832860D01*
X1153657Y834728D01*
X1152228Y836157D01*
X1150360Y836930D01*
D02*
G37*
G36*
X1598265Y833110D02*
X1594515D01*
X1590836Y832378D01*
X1587371Y830943D01*
X1584253Y828859D01*
X1581601Y826207D01*
X1579517Y823089D01*
X1578082Y819624D01*
X1577350Y815945D01*
Y812195D01*
X1578082Y808516D01*
X1579517Y805051D01*
X1581601Y801933D01*
X1584253Y799281D01*
X1587371Y797197D01*
X1590836Y795762D01*
X1594515Y795030D01*
X1598265D01*
X1601944Y795762D01*
X1605409Y797197D01*
X1608527Y799281D01*
X1611179Y801933D01*
X1613263Y805051D01*
X1614698Y808516D01*
X1615430Y812195D01*
Y815945D01*
X1614698Y819624D01*
X1613263Y823089D01*
X1611179Y826207D01*
X1608527Y828859D01*
X1605409Y830943D01*
X1601944Y832378D01*
X1598265Y833110D01*
D02*
G37*
G36*
X1583436Y793849D02*
X1450594D01*
X1450094Y793750D01*
X1449583D01*
X1449112Y793555D01*
X1448612Y793455D01*
X1448188Y793172D01*
X1447716Y792977D01*
X1447356Y792616D01*
X1446931Y792333D01*
X1446648Y791908D01*
X1446287Y791548D01*
X1446092Y791076D01*
X1445942Y790852D01*
X1445185Y790788D01*
X1444763Y790880D01*
X1444487Y791548D01*
X1443058Y792977D01*
X1441190Y793750D01*
X1439169D01*
X1437302Y792977D01*
X1435873Y791548D01*
X1435100Y789680D01*
Y787660D01*
X1435873Y785792D01*
X1437302Y784363D01*
X1439169Y783590D01*
X1441190D01*
X1443058Y784363D01*
X1444487Y785792D01*
X1444763Y786460D01*
X1445185Y786552D01*
X1445942Y786488D01*
X1446092Y786264D01*
X1446287Y785792D01*
X1446648Y785432D01*
X1446931Y785007D01*
X1447356Y784724D01*
X1447716Y784363D01*
X1448188Y784168D01*
X1448612Y783885D01*
X1449112Y783785D01*
X1449583Y783590D01*
X1450094D01*
X1450594Y783491D01*
X1581291D01*
X1620421Y744361D01*
Y511669D01*
X1613047Y504296D01*
X1612764Y503872D01*
X1612403Y503512D01*
X1612208Y503040D01*
X1611925Y502616D01*
X1611825Y502116D01*
X1611630Y501645D01*
Y501134D01*
X1611530Y500634D01*
X1611630Y500134D01*
Y499623D01*
X1611825Y499152D01*
X1611925Y498652D01*
X1612208Y498228D01*
X1612403Y497756D01*
X1612764Y497396D01*
X1613047Y496972D01*
X1613472Y496688D01*
X1613832Y496327D01*
X1614304Y496132D01*
X1614728Y495849D01*
X1615228Y495749D01*
X1615699Y495554D01*
X1616210D01*
X1616710Y495454D01*
X1617210Y495554D01*
X1617720D01*
X1618192Y495749D01*
X1618692Y495849D01*
X1619116Y496132D01*
X1619588Y496327D01*
X1619948Y496688D01*
X1620372Y496972D01*
X1629263Y505862D01*
X1630385Y507542D01*
X1630780Y509524D01*
Y746506D01*
X1630780Y746506D01*
X1630385Y748488D01*
X1629263Y750169D01*
X1629262Y750169D01*
X1587099Y792333D01*
X1585418Y793455D01*
X1583436Y793849D01*
D02*
G37*
G36*
X1122421Y784860D02*
X1120399D01*
X1118532Y784087D01*
X1117103Y782658D01*
X1116330Y780790D01*
Y778770D01*
X1117103Y776902D01*
X1118532Y775473D01*
X1120399Y774700D01*
X1122421D01*
X1124288Y775473D01*
X1125717Y776902D01*
X1126490Y778770D01*
Y780790D01*
X1125717Y782658D01*
X1124288Y784087D01*
X1122421Y784860D01*
D02*
G37*
G36*
X1270286Y799906D02*
X1091406D01*
X1090205Y799667D01*
X1089186Y798986D01*
X1050701Y760501D01*
X1050020Y759482D01*
X1049781Y758281D01*
Y650475D01*
X1048614Y649308D01*
X1047841Y647441D01*
Y645420D01*
X1048614Y643553D01*
X1050043Y642124D01*
X1051910Y641351D01*
X1053931D01*
X1055798Y642124D01*
X1057227Y643553D01*
X1058001Y645420D01*
Y647441D01*
X1057227Y649308D01*
X1056060Y650475D01*
Y756980D01*
X1092707Y793627D01*
X1207944D01*
X1208432Y792549D01*
X1207770Y790950D01*
Y788930D01*
X1208543Y787062D01*
X1209578Y786028D01*
X1122559Y699009D01*
X1121794Y698497D01*
X1071775Y648478D01*
X1070717Y648689D01*
X1070480Y649261D01*
X1069051Y650691D01*
X1067184Y651464D01*
X1065163D01*
X1063296Y650691D01*
X1061867Y649261D01*
X1061093Y647394D01*
Y645373D01*
X1061867Y643506D01*
X1063296Y642077D01*
X1063642Y641934D01*
X1063881Y640844D01*
X1063289Y640171D01*
X883666D01*
X882465Y639932D01*
X881446Y639252D01*
X856616Y614422D01*
X856300Y614106D01*
X855970Y613612D01*
X855633Y613119D01*
X855629Y613102D01*
X855620Y613087D01*
X855504Y612504D01*
X855381Y611921D01*
X854638Y544307D01*
X854628Y543354D01*
X854627Y543354D01*
X854615Y543261D01*
X854619Y543234D01*
X854627Y543234D01*
X854630Y542349D01*
X854630Y542282D01*
X854630Y542277D01*
X855321Y327089D01*
X854244Y326799D01*
X853854Y327475D01*
X851984Y329344D01*
X849695Y330666D01*
X847141Y331350D01*
X847090D01*
Y321310D01*
Y311270D01*
X847141D01*
X849695Y311954D01*
X851984Y313276D01*
X853854Y315145D01*
X854279Y315882D01*
X855358Y315595D01*
X855381Y308600D01*
X855501Y308005D01*
X855619Y307409D01*
X855622Y307405D01*
X855623Y307400D01*
X855965Y306893D01*
X856300Y306391D01*
X856616Y306075D01*
X856616Y306075D01*
X856616Y306075D01*
X862245Y300445D01*
X861864Y299785D01*
X861180Y297232D01*
Y294588D01*
X861864Y292035D01*
X863186Y289745D01*
X865055Y287876D01*
X867344Y286554D01*
X869898Y285870D01*
X872542D01*
X875095Y286554D01*
X877384Y287876D01*
X879254Y289745D01*
X880575Y292035D01*
X881260Y294588D01*
Y297232D01*
X880575Y299785D01*
X879254Y302075D01*
X877384Y303944D01*
X875095Y305266D01*
X872542Y305950D01*
X869898D01*
X867344Y305266D01*
X866685Y304885D01*
X861655Y309915D01*
X861637Y315672D01*
X862714Y315963D01*
X863186Y315145D01*
X865055Y313276D01*
X867344Y311954D01*
X869898Y311270D01*
X872542D01*
X875095Y311954D01*
X877384Y313276D01*
X879254Y315145D01*
X880575Y317435D01*
X880973Y318916D01*
X882051Y318774D01*
Y307340D01*
X882290Y306139D01*
X882970Y305120D01*
X887645Y300445D01*
X887264Y299785D01*
X886580Y297232D01*
Y294588D01*
X887264Y292035D01*
X888586Y289745D01*
X890455Y287876D01*
X892744Y286554D01*
X895298Y285870D01*
X897942D01*
X900495Y286554D01*
X902785Y287876D01*
X904654Y289745D01*
X905975Y292035D01*
X906660Y294588D01*
Y297232D01*
X905975Y299785D01*
X904654Y302075D01*
X902785Y303944D01*
X900495Y305266D01*
X897942Y305950D01*
X895298D01*
X892744Y305266D01*
X892085Y304885D01*
X888329Y308641D01*
Y313877D01*
X889408Y314324D01*
X890455Y313276D01*
X892744Y311954D01*
X895298Y311270D01*
X897942D01*
X900495Y311954D01*
X902785Y313276D01*
X904654Y315145D01*
X905102Y315923D01*
X906181Y315634D01*
Y308610D01*
X906420Y307409D01*
X907100Y306390D01*
X913045Y300445D01*
X912664Y299785D01*
X911980Y297232D01*
Y294588D01*
X912664Y292035D01*
X913986Y289745D01*
X915855Y287876D01*
X918144Y286554D01*
X920698Y285870D01*
X923342D01*
X925895Y286554D01*
X928185Y287876D01*
X930054Y289745D01*
X931376Y292035D01*
X932060Y294588D01*
Y297232D01*
X931376Y299785D01*
X930054Y302075D01*
X928185Y303944D01*
X925895Y305266D01*
X923342Y305950D01*
X920698D01*
X918144Y305266D01*
X917485Y304885D01*
X912459Y309911D01*
Y315633D01*
X913538Y315922D01*
X913986Y315145D01*
X915855Y313276D01*
X918144Y311954D01*
X920698Y311270D01*
X923342D01*
X925895Y311954D01*
X928185Y313276D01*
X930054Y315145D01*
X931376Y317435D01*
X931773Y318916D01*
X932851Y318774D01*
Y307340D01*
X933090Y306139D01*
X933770Y305120D01*
X938445Y300445D01*
X938064Y299785D01*
X937380Y297232D01*
Y294588D01*
X938064Y292035D01*
X939386Y289745D01*
X941255Y287876D01*
X943544Y286554D01*
X946098Y285870D01*
X948742D01*
X951295Y286554D01*
X953585Y287876D01*
X955454Y289745D01*
X956776Y292035D01*
X957460Y294588D01*
Y297232D01*
X956776Y299785D01*
X955454Y302075D01*
X953585Y303944D01*
X951295Y305266D01*
X948742Y305950D01*
X946098D01*
X943544Y305266D01*
X942885Y304885D01*
X939129Y308640D01*
Y313877D01*
X940208Y314324D01*
X941255Y313276D01*
X943544Y311954D01*
X946098Y311270D01*
X948742D01*
X951295Y311954D01*
X953585Y313276D01*
X955454Y315145D01*
X956776Y317435D01*
X957460Y319988D01*
Y322632D01*
X956776Y325185D01*
X955454Y327475D01*
X953585Y329344D01*
X951295Y330666D01*
X951294Y330666D01*
X950985Y331865D01*
X965769Y346650D01*
X976955D01*
X977402Y345572D01*
X970600Y338770D01*
X969920Y337751D01*
X969681Y336550D01*
Y330863D01*
X968944Y330666D01*
X966655Y329344D01*
X964786Y327475D01*
X963464Y325185D01*
X962780Y322632D01*
Y319988D01*
X963464Y317435D01*
X964786Y315145D01*
X966655Y313276D01*
X968944Y311954D01*
X971498Y311270D01*
X974141D01*
X976695Y311954D01*
X978985Y313276D01*
X980854Y315145D01*
X982176Y317435D01*
X982860Y319988D01*
Y322632D01*
X982176Y325185D01*
X980854Y327475D01*
X978985Y329344D01*
X976695Y330666D01*
X975959Y330863D01*
Y335250D01*
X981740Y341031D01*
X1260080D01*
X1260256Y340768D01*
X1259680Y339689D01*
X1005840D01*
X1004639Y339450D01*
X1003620Y338770D01*
X996866Y332015D01*
X996317Y331194D01*
X994344Y330666D01*
X992055Y329344D01*
X990186Y327475D01*
X988864Y325185D01*
X988180Y322632D01*
Y319988D01*
X988864Y317435D01*
X990186Y315145D01*
X992055Y313276D01*
X994344Y311954D01*
X996898Y311270D01*
X999541D01*
X1002095Y311954D01*
X1004385Y313276D01*
X1006254Y315145D01*
X1007576Y317435D01*
X1008260Y319988D01*
Y322632D01*
X1007576Y325185D01*
X1006254Y327475D01*
X1004492Y329237D01*
X1004284Y329657D01*
X1004180Y330450D01*
X1007140Y333411D01*
X1265767D01*
X1266968Y333650D01*
X1267987Y334330D01*
X1272746Y339090D01*
X1274397D01*
X1276264Y339863D01*
X1277620Y341219D01*
X1278714Y340125D01*
Y301444D01*
X1265429Y288158D01*
X1133076D01*
X1132663Y289154D01*
X1133254Y289745D01*
X1134576Y292035D01*
X1135260Y294588D01*
Y297232D01*
X1134576Y299785D01*
X1133254Y302075D01*
X1131385Y303944D01*
X1129095Y305266D01*
X1126542Y305950D01*
X1123898D01*
X1121344Y305266D01*
X1119055Y303944D01*
X1117186Y302075D01*
X1115864Y299785D01*
X1115180Y297232D01*
Y294588D01*
X1115864Y292035D01*
X1117186Y289745D01*
X1117776Y289154D01*
X1117364Y288158D01*
X1107676D01*
X1107263Y289154D01*
X1107854Y289745D01*
X1109175Y292035D01*
X1109860Y294588D01*
Y297232D01*
X1109175Y299785D01*
X1107854Y302075D01*
X1105984Y303944D01*
X1103695Y305266D01*
X1101142Y305950D01*
X1098498D01*
X1095944Y305266D01*
X1093655Y303944D01*
X1091786Y302075D01*
X1090464Y299785D01*
X1089780Y297232D01*
Y294588D01*
X1090464Y292035D01*
X1091786Y289745D01*
X1092376Y289154D01*
X1091964Y288158D01*
X1082276D01*
X1081863Y289154D01*
X1082454Y289745D01*
X1083775Y292035D01*
X1084460Y294588D01*
Y297232D01*
X1083775Y299785D01*
X1082454Y302075D01*
X1080584Y303944D01*
X1078295Y305266D01*
X1075742Y305950D01*
X1073098D01*
X1070544Y305266D01*
X1068255Y303944D01*
X1066386Y302075D01*
X1065064Y299785D01*
X1064380Y297232D01*
Y294588D01*
X1065064Y292035D01*
X1066386Y289745D01*
X1066976Y289154D01*
X1066564Y288158D01*
X1056876D01*
X1056463Y289154D01*
X1057054Y289745D01*
X1058375Y292035D01*
X1059060Y294588D01*
Y297232D01*
X1058375Y299785D01*
X1057054Y302075D01*
X1055184Y303944D01*
X1052895Y305266D01*
X1050341Y305950D01*
X1047698D01*
X1045144Y305266D01*
X1042855Y303944D01*
X1040986Y302075D01*
X1039664Y299785D01*
X1038980Y297232D01*
Y294588D01*
X1039664Y292035D01*
X1040986Y289745D01*
X1041577Y289154D01*
X1041164Y288158D01*
X1031476D01*
X1031063Y289154D01*
X1031654Y289745D01*
X1032975Y292035D01*
X1033660Y294588D01*
Y297232D01*
X1032975Y299785D01*
X1031654Y302075D01*
X1029784Y303944D01*
X1027495Y305266D01*
X1024941Y305950D01*
X1022298D01*
X1019744Y305266D01*
X1017455Y303944D01*
X1015586Y302075D01*
X1014264Y299785D01*
X1013580Y297232D01*
Y294588D01*
X1014264Y292035D01*
X1015586Y289745D01*
X1016177Y289154D01*
X1015764Y288158D01*
X1006076D01*
X1005663Y289154D01*
X1006254Y289745D01*
X1007576Y292035D01*
X1008260Y294588D01*
Y297232D01*
X1007576Y299785D01*
X1006254Y302075D01*
X1004385Y303944D01*
X1002095Y305266D01*
X999541Y305950D01*
X996898D01*
X994344Y305266D01*
X992055Y303944D01*
X990186Y302075D01*
X988864Y299785D01*
X988180Y297232D01*
Y294588D01*
X988864Y292035D01*
X990186Y289745D01*
X992055Y287876D01*
X994344Y286554D01*
X996317Y286026D01*
X996866Y285205D01*
X999271Y282799D01*
X1000290Y282119D01*
X1001491Y281880D01*
X1217673D01*
X1218272Y280983D01*
X1218037Y280416D01*
X1227982D01*
X1227748Y280983D01*
X1228346Y281880D01*
X1266729D01*
X1267931Y282119D01*
X1268949Y282799D01*
X1284073Y297923D01*
X1284754Y298942D01*
X1284993Y300143D01*
Y327326D01*
X1286071Y327773D01*
X1286680Y327163D01*
X1288288Y326497D01*
Y331470D01*
Y336442D01*
X1286680Y335777D01*
X1286071Y335167D01*
X1284993Y335614D01*
Y340125D01*
X1286087Y341219D01*
X1287442Y339863D01*
X1289310Y339090D01*
X1291330D01*
X1293198Y339863D01*
X1294627Y341292D01*
X1295400Y343159D01*
Y345181D01*
X1294627Y347048D01*
X1293198Y348477D01*
X1291330Y349250D01*
X1289680D01*
X1286921Y352009D01*
X1285902Y352690D01*
X1284701Y352929D01*
X964469D01*
X963268Y352690D01*
X962249Y352009D01*
X945200Y334960D01*
X944520Y333941D01*
X944281Y332740D01*
Y330863D01*
X943544Y330666D01*
X941255Y329344D01*
X940208Y328297D01*
X939129Y328743D01*
Y364728D01*
X938890Y365929D01*
X938210Y366948D01*
X903315Y401842D01*
Y489758D01*
X904149Y490442D01*
X904240Y490424D01*
X914910D01*
X915509Y489528D01*
X915269Y488950D01*
X920242D01*
Y487680D01*
X921512D01*
Y482707D01*
X923120Y483373D01*
X923210Y483464D01*
X924206Y483052D01*
Y456184D01*
X924306Y455684D01*
Y455173D01*
X924501Y454702D01*
X924601Y454202D01*
X924884Y453778D01*
X925079Y453306D01*
X925440Y452946D01*
X925723Y452522D01*
X944773Y433471D01*
X946454Y432349D01*
X948436Y431954D01*
X1002933D01*
X1013354Y421534D01*
X1015034Y420411D01*
X1017016Y420017D01*
X1065784D01*
X1066284Y420116D01*
X1066795D01*
X1067266Y420311D01*
X1067766Y420411D01*
X1068190Y420694D01*
X1068662Y420889D01*
X1069022Y421250D01*
X1069446Y421534D01*
X1098667Y450754D01*
X1099789Y452434D01*
X1100183Y454416D01*
Y454717D01*
X1101180Y455130D01*
X1136300Y420009D01*
X1137980Y418887D01*
X1139962Y418493D01*
X1437794D01*
Y379843D01*
X1334403Y276451D01*
X1228363D01*
X1227764Y277348D01*
X1227982Y277876D01*
X1218037D01*
X1218256Y277348D01*
X1217657Y276451D01*
X730857D01*
Y311291D01*
X735697Y316131D01*
X761017D01*
X761586Y315145D01*
X763455Y313276D01*
X765744Y311954D01*
X768298Y311270D01*
X770941D01*
X773495Y311954D01*
X775785Y313276D01*
X777654Y315145D01*
X778976Y317435D01*
X779660Y319988D01*
Y322632D01*
X778976Y325185D01*
X777654Y327475D01*
X775785Y329344D01*
X773495Y330666D01*
X770941Y331350D01*
X768298D01*
X765744Y330666D01*
X763455Y329344D01*
X761586Y327475D01*
X761017Y326489D01*
X733552D01*
X731570Y326095D01*
X729890Y324972D01*
X722016Y317099D01*
X720893Y315418D01*
X720499Y313436D01*
Y274248D01*
X720893Y272266D01*
X722016Y270585D01*
X724991Y267610D01*
X724991Y267610D01*
X726672Y266487D01*
X728654Y266092D01*
X1183468D01*
X1183914Y265014D01*
X1182889Y263990D01*
X1182116Y262122D01*
Y260102D01*
X1182889Y258234D01*
X1184318Y256805D01*
X1186186Y256032D01*
X1188206D01*
X1190074Y256805D01*
X1191503Y258234D01*
X1192276Y260102D01*
Y262122D01*
X1191503Y263990D01*
X1190478Y265014D01*
X1190924Y266092D01*
X1336548D01*
X1338530Y266487D01*
X1340211Y267610D01*
X1446637Y374035D01*
X1447759Y375716D01*
X1448154Y377698D01*
Y423672D01*
X1448054Y424172D01*
Y424683D01*
X1447859Y425154D01*
X1447759Y425654D01*
X1447476Y426078D01*
X1447281Y426550D01*
X1446920Y426910D01*
X1446637Y427335D01*
X1446636Y427335D01*
X1418951Y455020D01*
X1417270Y456143D01*
X1415288Y456538D01*
X1395335D01*
X1392527Y459345D01*
Y498856D01*
X1392428Y499356D01*
Y499866D01*
X1392233Y500338D01*
X1392133Y500838D01*
X1391850Y501262D01*
X1391655Y501734D01*
X1391294Y502094D01*
X1391010Y502519D01*
X1390586Y502802D01*
X1390226Y503163D01*
X1389754Y503358D01*
X1389330Y503641D01*
X1388830Y503741D01*
X1388358Y503936D01*
X1387848D01*
X1387348Y504035D01*
X1386848Y503936D01*
X1386337D01*
X1385866Y503741D01*
X1385366Y503641D01*
X1384942Y503358D01*
X1384470Y503163D01*
X1384110Y502802D01*
X1383685Y502519D01*
X1383402Y502094D01*
X1383041Y501734D01*
X1382846Y501262D01*
X1382563Y500838D01*
X1382463Y500338D01*
X1382268Y499866D01*
Y499356D01*
X1382168Y498856D01*
Y457200D01*
X1382563Y455218D01*
X1383685Y453537D01*
X1389527Y447696D01*
X1391208Y446573D01*
X1393190Y446179D01*
X1413143D01*
X1429473Y429848D01*
X1429061Y428852D01*
X1142107D01*
X1100183Y470775D01*
Y494020D01*
X1099789Y496002D01*
X1098667Y497682D01*
X1094022Y502327D01*
Y522788D01*
X1093627Y524770D01*
X1092505Y526451D01*
X1092221Y526734D01*
X1092668Y527812D01*
X1093718D01*
X1095586Y528585D01*
X1097015Y530014D01*
X1097788Y531881D01*
Y533903D01*
X1097015Y535770D01*
X1095586Y537199D01*
X1093718Y537972D01*
X1091697D01*
X1089830Y537199D01*
X1088401Y535770D01*
X1087628Y533903D01*
Y532794D01*
X1086550Y532265D01*
X1085292Y533105D01*
X1083310Y533499D01*
X1075536D01*
Y553099D01*
X1132946Y610509D01*
X1132946Y610509D01*
X1134069Y612190D01*
X1134464Y614172D01*
Y642566D01*
X1135849Y643951D01*
X1136845Y643538D01*
Y643214D01*
X1137618Y641347D01*
X1139047Y639918D01*
X1140914Y639145D01*
X1142935D01*
X1144802Y639918D01*
X1146231Y641347D01*
X1147005Y643214D01*
Y645235D01*
X1146231Y647103D01*
X1144802Y648531D01*
X1142935Y649305D01*
X1142611D01*
X1142199Y650301D01*
X1145587Y653689D01*
X1145871Y654114D01*
X1146231Y654474D01*
X1146427Y654946D01*
X1146710Y655370D01*
X1146809Y655870D01*
X1147005Y656341D01*
Y656852D01*
X1147104Y657352D01*
X1147005Y657852D01*
Y658363D01*
X1146809Y658834D01*
X1146710Y659334D01*
X1146427Y659758D01*
X1146231Y660230D01*
X1145871Y660590D01*
X1145587Y661014D01*
X1145163Y661298D01*
X1144802Y661659D01*
X1144331Y661854D01*
X1143907Y662137D01*
X1143407Y662237D01*
X1142935Y662432D01*
X1142425D01*
X1141925Y662532D01*
X1141424Y662432D01*
X1140914D01*
X1140443Y662237D01*
X1139943Y662137D01*
X1139518Y661854D01*
X1139047Y661659D01*
X1138686Y661298D01*
X1138262Y661014D01*
X1125621Y648374D01*
X1124499Y646693D01*
X1124288Y645632D01*
X1123177Y645498D01*
X1121748Y646927D01*
X1119881Y647700D01*
X1117859D01*
X1115992Y646927D01*
X1114563Y645498D01*
X1113790Y643631D01*
Y641609D01*
X1114563Y639742D01*
X1115992Y638313D01*
X1117859Y637540D01*
X1119881D01*
X1121748Y638313D01*
X1123026Y639592D01*
X1123737Y639452D01*
X1124105Y639262D01*
Y616317D01*
X1066693Y558907D01*
X1065571Y557226D01*
X1065176Y555244D01*
Y528320D01*
X1065276Y527820D01*
Y527309D01*
X1065471Y526838D01*
X1065571Y526338D01*
X1065854Y525914D01*
X1066049Y525442D01*
X1066410Y525082D01*
X1066693Y524658D01*
X1067118Y524374D01*
X1067478Y524013D01*
X1067950Y523818D01*
X1068374Y523535D01*
X1068874Y523435D01*
X1069058Y523359D01*
X1069177Y522301D01*
X1069165Y522237D01*
X1068494Y521959D01*
X1067065Y520530D01*
X1066292Y518662D01*
Y516642D01*
X1067020Y514884D01*
X1066829Y514363D01*
X1066509Y513806D01*
X1065438D01*
X1063677Y513077D01*
X1062330Y511729D01*
X1061601Y509969D01*
Y508063D01*
X1062330Y506303D01*
X1063677Y504955D01*
X1065438Y504226D01*
X1067343D01*
X1069104Y504955D01*
X1070451Y506303D01*
X1071181Y508063D01*
Y509969D01*
X1070549Y511494D01*
X1070883Y512262D01*
X1071133Y512572D01*
X1072383D01*
X1074250Y513345D01*
X1075679Y514774D01*
X1076452Y516642D01*
Y518662D01*
X1075679Y520530D01*
X1074250Y521959D01*
X1073999Y522062D01*
X1074214Y523140D01*
X1081165D01*
X1083662Y520643D01*
Y500182D01*
X1084057Y498200D01*
X1085180Y496520D01*
X1089825Y491875D01*
Y468630D01*
Y456561D01*
X1063639Y430376D01*
X1019161D01*
X1008740Y440797D01*
X1008316Y441080D01*
X1007956Y441441D01*
X1007484Y441636D01*
X1007060Y441919D01*
X1006560Y442019D01*
X1006088Y442214D01*
X1005578D01*
X1005078Y442313D01*
X950581D01*
X934566Y458329D01*
Y491632D01*
X934827Y492023D01*
X935024Y493014D01*
Y523748D01*
X934827Y524739D01*
X934265Y525579D01*
X933425Y526141D01*
X932434Y526338D01*
X927290D01*
Y582399D01*
X942447Y597556D01*
X942730Y597980D01*
X943091Y598340D01*
X943286Y598812D01*
X943569Y599236D01*
X943669Y599736D01*
X943864Y600207D01*
Y600718D01*
X943963Y601218D01*
X943864Y601718D01*
Y602229D01*
X943669Y602700D01*
X943569Y603200D01*
X943286Y603624D01*
X943091Y604096D01*
X942730Y604456D01*
X942447Y604880D01*
X942022Y605164D01*
X941662Y605525D01*
X941190Y605720D01*
X940766Y606003D01*
X940266Y606103D01*
X939794Y606298D01*
X939284D01*
X938784Y606398D01*
X938284Y606298D01*
X937774D01*
X937302Y606103D01*
X936802Y606003D01*
X936378Y605720D01*
X935906Y605525D01*
X935546Y605164D01*
X935122Y604880D01*
X918448Y588207D01*
X917326Y586527D01*
X916931Y584545D01*
Y526338D01*
X904240D01*
X904149Y526320D01*
X903315Y527004D01*
Y595600D01*
X923574Y615859D01*
X1069359D01*
X1070560Y616098D01*
X1071579Y616778D01*
X1094772Y639972D01*
X1095830Y639762D01*
X1096067Y639189D01*
X1097496Y637760D01*
X1099363Y636986D01*
X1101384D01*
X1103251Y637760D01*
X1104680Y639189D01*
X1105454Y641056D01*
Y643077D01*
X1104680Y644944D01*
X1103251Y646373D01*
X1102679Y646610D01*
X1102468Y647668D01*
X1104331Y649531D01*
X1105388Y649320D01*
X1105673Y648632D01*
X1107102Y647203D01*
X1108969Y646430D01*
X1110991D01*
X1112858Y647203D01*
X1114287Y648632D01*
X1115060Y650499D01*
Y652521D01*
X1114287Y654388D01*
X1112858Y655817D01*
X1112170Y656102D01*
X1111959Y657159D01*
X1240443Y785643D01*
X1240452Y785633D01*
X1242319Y784860D01*
X1244341D01*
X1246208Y785633D01*
X1247637Y787062D01*
X1248410Y788930D01*
Y790950D01*
X1247748Y792549D01*
X1248236Y793627D01*
X1268985D01*
X1289812Y772800D01*
Y771150D01*
X1290585Y769282D01*
X1292014Y767853D01*
X1293882Y767080D01*
X1295903D01*
X1297770Y767853D01*
X1299199Y769282D01*
X1299972Y771150D01*
Y773170D01*
X1299199Y775038D01*
X1297770Y776467D01*
X1295903Y777240D01*
X1294252D01*
X1272505Y798986D01*
X1271487Y799667D01*
X1270286Y799906D01*
D02*
G37*
G36*
X1122421Y760730D02*
X1120399D01*
X1118532Y759957D01*
X1117103Y758528D01*
X1116330Y756661D01*
Y754640D01*
X1117103Y752772D01*
X1118532Y751343D01*
X1120399Y750570D01*
X1122421D01*
X1124288Y751343D01*
X1125717Y752772D01*
X1126490Y754640D01*
Y756661D01*
X1125717Y758528D01*
X1124288Y759957D01*
X1122421Y760730D01*
D02*
G37*
G36*
X1019810Y753002D02*
Y749300D01*
X1023512D01*
X1022847Y750908D01*
X1021418Y752337D01*
X1019810Y753002D01*
D02*
G37*
G36*
X1017270D02*
X1015662Y752337D01*
X1014233Y750908D01*
X1013568Y749300D01*
X1017270D01*
Y753002D01*
D02*
G37*
G36*
X1005810D02*
Y749300D01*
X1009512D01*
X1008847Y750908D01*
X1007418Y752337D01*
X1005810Y753002D01*
D02*
G37*
G36*
X1003270D02*
X1001662Y752337D01*
X1000233Y750908D01*
X999567Y749300D01*
X1003270D01*
Y753002D01*
D02*
G37*
G36*
X991810D02*
Y749300D01*
X995512D01*
X994847Y750908D01*
X993418Y752337D01*
X991810Y753002D01*
D02*
G37*
G36*
X989270D02*
X987662Y752337D01*
X986233Y750908D01*
X985567Y749300D01*
X989270D01*
Y753002D01*
D02*
G37*
G36*
X1023512Y746760D02*
X1019810D01*
Y743057D01*
X1021418Y743723D01*
X1022847Y745152D01*
X1023512Y746760D01*
D02*
G37*
G36*
X1017270D02*
X1013568D01*
X1014233Y745152D01*
X1015662Y743723D01*
X1017270Y743057D01*
Y746760D01*
D02*
G37*
G36*
X1009512D02*
X1005810D01*
Y743057D01*
X1007418Y743723D01*
X1008847Y745152D01*
X1009512Y746760D01*
D02*
G37*
G36*
X1003270D02*
X999567D01*
X1000233Y745152D01*
X1001662Y743723D01*
X1003270Y743057D01*
Y746760D01*
D02*
G37*
G36*
X995512D02*
X991810D01*
Y743057D01*
X993418Y743723D01*
X994847Y745152D01*
X995512Y746760D01*
D02*
G37*
G36*
X989270D02*
X985567D01*
X986233Y745152D01*
X987662Y743723D01*
X989270Y743057D01*
Y746760D01*
D02*
G37*
G36*
X1019810Y739003D02*
Y735300D01*
X1023512D01*
X1022847Y736908D01*
X1021418Y738337D01*
X1019810Y739003D01*
D02*
G37*
G36*
X1017270D02*
X1015662Y738337D01*
X1014233Y736908D01*
X1013568Y735300D01*
X1017270D01*
Y739003D01*
D02*
G37*
G36*
X1005810D02*
Y735300D01*
X1009512D01*
X1008847Y736908D01*
X1007418Y738337D01*
X1005810Y739003D01*
D02*
G37*
G36*
X1003270D02*
X1001662Y738337D01*
X1000233Y736908D01*
X999567Y735300D01*
X1003270D01*
Y739003D01*
D02*
G37*
G36*
X991810D02*
Y735300D01*
X995512D01*
X994847Y736908D01*
X993418Y738337D01*
X991810Y739003D01*
D02*
G37*
G36*
X989270D02*
X987662Y738337D01*
X986233Y736908D01*
X985567Y735300D01*
X989270D01*
Y739003D01*
D02*
G37*
G36*
X874776Y737508D02*
Y733806D01*
X878478D01*
X877813Y735414D01*
X876384Y736843D01*
X874776Y737508D01*
D02*
G37*
G36*
X872236D02*
X870628Y736843D01*
X869199Y735414D01*
X868533Y733806D01*
X872236D01*
Y737508D01*
D02*
G37*
G36*
X1023512Y732760D02*
X1019810D01*
Y729057D01*
X1021418Y729723D01*
X1022847Y731152D01*
X1023512Y732760D01*
D02*
G37*
G36*
X1017270D02*
X1013568D01*
X1014233Y731152D01*
X1015662Y729723D01*
X1017270Y729057D01*
Y732760D01*
D02*
G37*
G36*
X1009512D02*
X1005810D01*
Y729057D01*
X1007418Y729723D01*
X1008847Y731152D01*
X1009512Y732760D01*
D02*
G37*
G36*
X1003270D02*
X999567D01*
X1000233Y731152D01*
X1001662Y729723D01*
X1003270Y729057D01*
Y732760D01*
D02*
G37*
G36*
X995512D02*
X991810D01*
Y729057D01*
X993418Y729723D01*
X994847Y731152D01*
X995512Y732760D01*
D02*
G37*
G36*
X989270D02*
X985567D01*
X986233Y731152D01*
X987662Y729723D01*
X989270Y729057D01*
Y732760D01*
D02*
G37*
G36*
X878478Y731266D02*
X874776D01*
Y727563D01*
X876384Y728229D01*
X877813Y729658D01*
X878478Y731266D01*
D02*
G37*
G36*
X872236D02*
X868533D01*
X869199Y729658D01*
X870628Y728229D01*
X872236Y727563D01*
Y731266D01*
D02*
G37*
G36*
X1019810Y725003D02*
Y721300D01*
X1023512D01*
X1022847Y722908D01*
X1021418Y724337D01*
X1019810Y725003D01*
D02*
G37*
G36*
X1017270D02*
X1015662Y724337D01*
X1014233Y722908D01*
X1013568Y721300D01*
X1017270D01*
Y725003D01*
D02*
G37*
G36*
X1005810D02*
Y721300D01*
X1009512D01*
X1008847Y722908D01*
X1007418Y724337D01*
X1005810Y725003D01*
D02*
G37*
G36*
X1003270D02*
X1001662Y724337D01*
X1000233Y722908D01*
X999567Y721300D01*
X1003270D01*
Y725003D01*
D02*
G37*
G36*
X991810D02*
Y721300D01*
X995512D01*
X994847Y722908D01*
X993418Y724337D01*
X991810Y725003D01*
D02*
G37*
G36*
X989270D02*
X987662Y724337D01*
X986233Y722908D01*
X985567Y721300D01*
X989270D01*
Y725003D01*
D02*
G37*
G36*
X1478529Y728074D02*
X1478280D01*
Y717804D01*
X1488550D01*
Y718053D01*
X1487764Y720988D01*
X1486244Y723620D01*
X1484096Y725768D01*
X1481464Y727288D01*
X1478529Y728074D01*
D02*
G37*
G36*
X1475740D02*
X1475491D01*
X1472556Y727288D01*
X1469924Y725768D01*
X1467776Y723620D01*
X1466257Y720988D01*
X1465470Y718053D01*
Y717804D01*
X1475740D01*
Y728074D01*
D02*
G37*
G36*
X1023512Y718760D02*
X1019810D01*
Y715058D01*
X1021418Y715723D01*
X1022847Y717152D01*
X1023512Y718760D01*
D02*
G37*
G36*
X1017270D02*
X1013568D01*
X1014233Y717152D01*
X1015662Y715723D01*
X1017270Y715058D01*
Y718760D01*
D02*
G37*
G36*
X1009512D02*
X1005810D01*
Y715058D01*
X1007418Y715723D01*
X1008847Y717152D01*
X1009512Y718760D01*
D02*
G37*
G36*
X1003270D02*
X999567D01*
X1000233Y717152D01*
X1001662Y715723D01*
X1003270Y715058D01*
Y718760D01*
D02*
G37*
G36*
X995512D02*
X991810D01*
Y715058D01*
X993418Y715723D01*
X994847Y717152D01*
X995512Y718760D01*
D02*
G37*
G36*
X989270D02*
X985567D01*
X986233Y717152D01*
X987662Y715723D01*
X989270Y715058D01*
Y718760D01*
D02*
G37*
G36*
X1604929Y728074D02*
X1601890D01*
X1598955Y727288D01*
X1596324Y725768D01*
X1594175Y723620D01*
X1592656Y720988D01*
X1591870Y718053D01*
Y715015D01*
X1592656Y712080D01*
X1594175Y709448D01*
X1596324Y707300D01*
X1598955Y705780D01*
X1601890Y704994D01*
X1604929D01*
X1607864Y705780D01*
X1610495Y707300D01*
X1612644Y709448D01*
X1614163Y712080D01*
X1614949Y715015D01*
Y718053D01*
X1614163Y720988D01*
X1612644Y723620D01*
X1610495Y725768D01*
X1607864Y727288D01*
X1604929Y728074D01*
D02*
G37*
G36*
X1488550Y715264D02*
X1478280D01*
Y704994D01*
X1478529D01*
X1481464Y705780D01*
X1484096Y707300D01*
X1486244Y709448D01*
X1487764Y712080D01*
X1488550Y715015D01*
Y715264D01*
D02*
G37*
G36*
X1475740D02*
X1465470D01*
Y715015D01*
X1466257Y712080D01*
X1467776Y709448D01*
X1469924Y707300D01*
X1472556Y705780D01*
X1475491Y704994D01*
X1475740D01*
Y715264D01*
D02*
G37*
G36*
X1253831Y726296D02*
X1250793D01*
X1247858Y725510D01*
X1245226Y723990D01*
X1243078Y721842D01*
X1241558Y719211D01*
X1240772Y716275D01*
Y713237D01*
X1241558Y710302D01*
X1243078Y707671D01*
X1245226Y705522D01*
X1247858Y704003D01*
X1250793Y703216D01*
X1253831D01*
X1256766Y704003D01*
X1259398Y705522D01*
X1261546Y707671D01*
X1263065Y710302D01*
X1263852Y713237D01*
Y716275D01*
X1263065Y719211D01*
X1261546Y721842D01*
X1259398Y723990D01*
X1256766Y725510D01*
X1253831Y726296D01*
D02*
G37*
G36*
X1228431D02*
X1225393D01*
X1222458Y725510D01*
X1219826Y723990D01*
X1217678Y721842D01*
X1216158Y719211D01*
X1215372Y716275D01*
Y713237D01*
X1216158Y710302D01*
X1217678Y707671D01*
X1219826Y705522D01*
X1222458Y704003D01*
X1225393Y703216D01*
X1228431D01*
X1231366Y704003D01*
X1233998Y705522D01*
X1236146Y707671D01*
X1237665Y710302D01*
X1238452Y713237D01*
Y716275D01*
X1237665Y719211D01*
X1236146Y721842D01*
X1233998Y723990D01*
X1231366Y725510D01*
X1228431Y726296D01*
D02*
G37*
G36*
X1203031Y726296D02*
X1199993D01*
X1197058Y725509D01*
X1194426Y723990D01*
X1192278Y721842D01*
X1190759Y719210D01*
X1189972Y716275D01*
Y713237D01*
X1190759Y710302D01*
X1192278Y707670D01*
X1194426Y705522D01*
X1197058Y704003D01*
X1199993Y703216D01*
X1203031D01*
X1205966Y704003D01*
X1208598Y705522D01*
X1210747Y707670D01*
X1212266Y710302D01*
X1213052Y713237D01*
Y716275D01*
X1212266Y719210D01*
X1210747Y721842D01*
X1208598Y723990D01*
X1205966Y725509D01*
X1203031Y726296D01*
D02*
G37*
G36*
X1329431Y700896D02*
X1329182D01*
Y690626D01*
X1339452D01*
Y690875D01*
X1338665Y693810D01*
X1337146Y696442D01*
X1334998Y698590D01*
X1332366Y700109D01*
X1329431Y700896D01*
D02*
G37*
G36*
X1203031D02*
X1202782D01*
Y690626D01*
X1213052D01*
Y690875D01*
X1212266Y693810D01*
X1210747Y696442D01*
X1208598Y698590D01*
X1205966Y700109D01*
X1203031Y700896D01*
D02*
G37*
G36*
X1326642D02*
X1326393D01*
X1323457Y700109D01*
X1320826Y698590D01*
X1318678Y696442D01*
X1317158Y693810D01*
X1316372Y690875D01*
Y690626D01*
X1326642D01*
Y700896D01*
D02*
G37*
G36*
X1200242D02*
X1199993D01*
X1197058Y700109D01*
X1194426Y698590D01*
X1192278Y696442D01*
X1190759Y693810D01*
X1189972Y690875D01*
Y690626D01*
X1200242D01*
Y700896D01*
D02*
G37*
G36*
X1604929Y702674D02*
X1601890D01*
X1598955Y701888D01*
X1596324Y700368D01*
X1594175Y698220D01*
X1592656Y695589D01*
X1591870Y692654D01*
Y689615D01*
X1592656Y686680D01*
X1594175Y684048D01*
X1596324Y681900D01*
X1598955Y680381D01*
X1601890Y679594D01*
X1604929D01*
X1607864Y680381D01*
X1610495Y681900D01*
X1612644Y684048D01*
X1614163Y686680D01*
X1614949Y689615D01*
Y692654D01*
X1614163Y695589D01*
X1612644Y698220D01*
X1610495Y700368D01*
X1607864Y701888D01*
X1604929Y702674D01*
D02*
G37*
G36*
X1339452Y688086D02*
X1329182D01*
Y677816D01*
X1329431D01*
X1332366Y678603D01*
X1334998Y680122D01*
X1337146Y682270D01*
X1338665Y684902D01*
X1339452Y687837D01*
Y688086D01*
D02*
G37*
G36*
X1326642D02*
X1316372D01*
Y687837D01*
X1317158Y684902D01*
X1318678Y682270D01*
X1320826Y680122D01*
X1323457Y678603D01*
X1326393Y677816D01*
X1326642D01*
Y688086D01*
D02*
G37*
G36*
X1213052D02*
X1202782D01*
Y677816D01*
X1203031D01*
X1205966Y678603D01*
X1208598Y680122D01*
X1210747Y682270D01*
X1212266Y684902D01*
X1213052Y687837D01*
Y688086D01*
D02*
G37*
G36*
X1200242D02*
X1189972D01*
Y687837D01*
X1190759Y684902D01*
X1192278Y682270D01*
X1194426Y680122D01*
X1197058Y678603D01*
X1199993Y677816D01*
X1200242D01*
Y688086D01*
D02*
G37*
G36*
X1604929Y677274D02*
X1601890D01*
X1598955Y676488D01*
X1596324Y674968D01*
X1594175Y672820D01*
X1592656Y670189D01*
X1591870Y667253D01*
Y664215D01*
X1592656Y661280D01*
X1594175Y658649D01*
X1596324Y656500D01*
X1598955Y654981D01*
X1601890Y654194D01*
X1604929D01*
X1607864Y654981D01*
X1610495Y656500D01*
X1612644Y658649D01*
X1614163Y661280D01*
X1614949Y664215D01*
Y667253D01*
X1614163Y670189D01*
X1612644Y672820D01*
X1610495Y674968D01*
X1607864Y676488D01*
X1604929Y677274D01*
D02*
G37*
G36*
X1478529D02*
X1475491D01*
X1472556Y676488D01*
X1469924Y674968D01*
X1467776Y672820D01*
X1466257Y670189D01*
X1465470Y667253D01*
Y664215D01*
X1466257Y661280D01*
X1467776Y658649D01*
X1469924Y656500D01*
X1472556Y654981D01*
X1475491Y654194D01*
X1478529D01*
X1481464Y654981D01*
X1484096Y656500D01*
X1486244Y658649D01*
X1487764Y661280D01*
X1488550Y664215D01*
Y667253D01*
X1487764Y670189D01*
X1486244Y672820D01*
X1484096Y674968D01*
X1481464Y676488D01*
X1478529Y677274D01*
D02*
G37*
G36*
X1329431Y675496D02*
X1326393D01*
X1323457Y674710D01*
X1320826Y673191D01*
X1318678Y671042D01*
X1317158Y668410D01*
X1316372Y665475D01*
Y662437D01*
X1317158Y659502D01*
X1318678Y656870D01*
X1320826Y654722D01*
X1323457Y653203D01*
X1326393Y652416D01*
X1329431D01*
X1332366Y653203D01*
X1334998Y654722D01*
X1337146Y656870D01*
X1338665Y659502D01*
X1339452Y662437D01*
Y665475D01*
X1338665Y668410D01*
X1337146Y671042D01*
X1334998Y673191D01*
X1332366Y674710D01*
X1329431Y675496D01*
D02*
G37*
G36*
X892493Y661380D02*
X890587D01*
X888827Y660651D01*
X887479Y659303D01*
X886750Y657543D01*
Y655637D01*
X887479Y653877D01*
X888827Y652529D01*
X890587Y651800D01*
X892493D01*
X894253Y652529D01*
X895601Y653877D01*
X896330Y655637D01*
Y657543D01*
X895601Y659303D01*
X894253Y660651D01*
X892493Y661380D01*
D02*
G37*
G36*
X875278Y661960D02*
X873258D01*
X871390Y661187D01*
X869961Y659758D01*
X869188Y657890D01*
Y655870D01*
X869961Y654002D01*
X871390Y652573D01*
X873258Y651800D01*
X875278D01*
X877146Y652573D01*
X878575Y654002D01*
X879348Y655870D01*
Y657890D01*
X878575Y659758D01*
X877146Y661187D01*
X875278Y661960D01*
D02*
G37*
G36*
X812483Y656300D02*
X810577D01*
X808817Y655571D01*
X807469Y654223D01*
X806740Y652463D01*
Y650557D01*
X807469Y648797D01*
X808817Y647449D01*
X810577Y646720D01*
X812483D01*
X814243Y647449D01*
X815591Y648797D01*
X816320Y650557D01*
Y652463D01*
X815591Y654223D01*
X814243Y655571D01*
X812483Y656300D01*
D02*
G37*
G36*
X954723Y651510D02*
X952817D01*
X951057Y650781D01*
X949709Y649433D01*
X948980Y647673D01*
Y645767D01*
X949709Y644007D01*
X951057Y642659D01*
X952817Y641930D01*
X954723D01*
X956483Y642659D01*
X957831Y644007D01*
X958560Y645767D01*
Y647673D01*
X957831Y649433D01*
X956483Y650781D01*
X954723Y651510D01*
D02*
G37*
G36*
X1042411D02*
X1040389D01*
X1038522Y650737D01*
X1037093Y649308D01*
X1036320Y647440D01*
Y645419D01*
X1037093Y643552D01*
X1038522Y642123D01*
X1040389Y641350D01*
X1042411D01*
X1044278Y642123D01*
X1045707Y643552D01*
X1046480Y645419D01*
Y647440D01*
X1045707Y649308D01*
X1044278Y650737D01*
X1042411Y651510D01*
D02*
G37*
G36*
X1029710D02*
X1027690D01*
X1025822Y650737D01*
X1024393Y649308D01*
X1023620Y647440D01*
Y645419D01*
X1024393Y643552D01*
X1025822Y642123D01*
X1027690Y641350D01*
X1029710D01*
X1031578Y642123D01*
X1033007Y643552D01*
X1033780Y645419D01*
Y647440D01*
X1033007Y649308D01*
X1031578Y650737D01*
X1029710Y651510D01*
D02*
G37*
G36*
X1017010D02*
X1014989D01*
X1013122Y650737D01*
X1011693Y649308D01*
X1010920Y647440D01*
Y645419D01*
X1011693Y643552D01*
X1013122Y642123D01*
X1014989Y641350D01*
X1017010D01*
X1018878Y642123D01*
X1020307Y643552D01*
X1021080Y645419D01*
Y647440D01*
X1020307Y649308D01*
X1018878Y650737D01*
X1017010Y651510D01*
D02*
G37*
G36*
X1004311D02*
X1002290D01*
X1000422Y650737D01*
X998993Y649308D01*
X998220Y647440D01*
Y645419D01*
X998993Y643552D01*
X1000422Y642123D01*
X1002290Y641350D01*
X1004311D01*
X1006178Y642123D01*
X1007607Y643552D01*
X1008380Y645419D01*
Y647440D01*
X1007607Y649308D01*
X1006178Y650737D01*
X1004311Y651510D01*
D02*
G37*
G36*
X991610D02*
X989589D01*
X987722Y650737D01*
X986293Y649308D01*
X985520Y647440D01*
Y645419D01*
X986293Y643552D01*
X987722Y642123D01*
X989589Y641350D01*
X991610D01*
X993478Y642123D01*
X994907Y643552D01*
X995680Y645419D01*
Y647440D01*
X994907Y649308D01*
X993478Y650737D01*
X991610Y651510D01*
D02*
G37*
G36*
X978911D02*
X976889D01*
X975022Y650737D01*
X973593Y649308D01*
X972820Y647440D01*
Y645419D01*
X973593Y643552D01*
X975022Y642123D01*
X976889Y641350D01*
X978911D01*
X980778Y642123D01*
X982207Y643552D01*
X982980Y645419D01*
Y647440D01*
X982207Y649308D01*
X980778Y650737D01*
X978911Y651510D01*
D02*
G37*
G36*
X966210D02*
X964190D01*
X962322Y650737D01*
X960893Y649308D01*
X960120Y647440D01*
Y645419D01*
X960893Y643552D01*
X962322Y642123D01*
X964190Y641350D01*
X966210D01*
X968078Y642123D01*
X969507Y643552D01*
X970280Y645419D01*
Y647440D01*
X969507Y649308D01*
X968078Y650737D01*
X966210Y651510D01*
D02*
G37*
G36*
X1173221Y648970D02*
X1171199D01*
X1169332Y648197D01*
X1167903Y646768D01*
X1167130Y644901D01*
Y642879D01*
X1167903Y641012D01*
X1169332Y639583D01*
X1171199Y638810D01*
X1173221D01*
X1175088Y639583D01*
X1176517Y641012D01*
X1177290Y642879D01*
Y644901D01*
X1176517Y646768D01*
X1175088Y648197D01*
X1173221Y648970D01*
D02*
G37*
G36*
X812483Y644870D02*
X810577D01*
X808817Y644141D01*
X807469Y642793D01*
X806740Y641033D01*
Y639127D01*
X807469Y637367D01*
X808817Y636019D01*
X810577Y635290D01*
X812483D01*
X814243Y636019D01*
X815591Y637367D01*
X816320Y639127D01*
Y641033D01*
X815591Y642793D01*
X814243Y644141D01*
X812483Y644870D01*
D02*
G37*
G36*
X1604929Y651874D02*
X1601890D01*
X1598955Y651088D01*
X1596324Y649568D01*
X1594175Y647420D01*
X1592656Y644789D01*
X1591870Y641853D01*
Y638815D01*
X1592656Y635880D01*
X1594175Y633248D01*
X1596324Y631100D01*
X1598955Y629581D01*
X1601890Y628794D01*
X1604929D01*
X1607864Y629581D01*
X1610495Y631100D01*
X1612644Y633248D01*
X1614163Y635880D01*
X1614949Y638815D01*
Y641853D01*
X1614163Y644789D01*
X1612644Y647420D01*
X1610495Y649568D01*
X1607864Y651088D01*
X1604929Y651874D01*
D02*
G37*
G36*
X1478529D02*
X1475491D01*
X1472556Y651088D01*
X1469924Y649568D01*
X1467776Y647420D01*
X1466257Y644789D01*
X1465470Y641853D01*
Y638815D01*
X1466257Y635880D01*
X1467776Y633248D01*
X1469924Y631100D01*
X1472556Y629581D01*
X1475491Y628794D01*
X1478529D01*
X1481464Y629581D01*
X1484096Y631100D01*
X1486244Y633248D01*
X1487764Y635880D01*
X1488550Y638815D01*
Y641853D01*
X1487764Y644789D01*
X1486244Y647420D01*
X1484096Y649568D01*
X1481464Y651088D01*
X1478529Y651874D01*
D02*
G37*
G36*
X1329431Y650096D02*
X1326393D01*
X1323457Y649310D01*
X1320826Y647791D01*
X1318678Y645642D01*
X1317158Y643010D01*
X1316372Y640076D01*
Y637037D01*
X1317158Y634102D01*
X1318678Y631470D01*
X1320826Y629322D01*
X1323457Y627803D01*
X1326393Y627016D01*
X1329431D01*
X1332366Y627803D01*
X1334998Y629322D01*
X1337146Y631470D01*
X1338665Y634102D01*
X1339452Y637037D01*
Y640076D01*
X1338665Y643010D01*
X1337146Y645642D01*
X1334998Y647791D01*
X1332366Y649310D01*
X1329431Y650096D01*
D02*
G37*
G36*
X1203031D02*
X1199993D01*
X1197058Y649310D01*
X1194426Y647791D01*
X1192278Y645642D01*
X1190759Y643010D01*
X1189972Y640076D01*
Y637037D01*
X1190759Y634102D01*
X1192278Y631470D01*
X1194426Y629322D01*
X1197058Y627803D01*
X1199993Y627016D01*
X1203031D01*
X1205966Y627803D01*
X1208598Y629322D01*
X1210747Y631470D01*
X1212266Y634102D01*
X1213052Y637037D01*
Y640076D01*
X1212266Y643010D01*
X1210747Y645642D01*
X1208598Y647791D01*
X1205966Y649310D01*
X1203031Y650096D01*
D02*
G37*
G36*
X757931Y623570D02*
X755910D01*
X754042Y622797D01*
X752613Y621368D01*
X751840Y619501D01*
Y617480D01*
X752613Y615612D01*
X754042Y614183D01*
X755910Y613410D01*
X757931D01*
X759798Y614183D01*
X761227Y615612D01*
X762000Y617480D01*
Y619501D01*
X761227Y621368D01*
X759798Y622797D01*
X757931Y623570D01*
D02*
G37*
G36*
X1173221Y610870D02*
X1171199D01*
X1169332Y610097D01*
X1168065Y608829D01*
X1167133Y609762D01*
X1165266Y610535D01*
X1163245D01*
X1161377Y609762D01*
X1159949Y608333D01*
X1159175Y606466D01*
Y604445D01*
X1159949Y602578D01*
X1161377Y601148D01*
X1163245Y600375D01*
X1165266D01*
X1167133Y601148D01*
X1168400Y602416D01*
X1169332Y601483D01*
X1171199Y600710D01*
X1173221D01*
X1175088Y601483D01*
X1176517Y602912D01*
X1177290Y604780D01*
Y606800D01*
X1176517Y608668D01*
X1175088Y610097D01*
X1173221Y610870D01*
D02*
G37*
G36*
X1604929Y626474D02*
X1601890D01*
X1598955Y625688D01*
X1596324Y624169D01*
X1594175Y622020D01*
X1592656Y619389D01*
X1591870Y616454D01*
Y613415D01*
X1592656Y610480D01*
X1594175Y607849D01*
X1596324Y605700D01*
X1598955Y604181D01*
X1601890Y603394D01*
X1604929D01*
X1607864Y604181D01*
X1610495Y605700D01*
X1612644Y607849D01*
X1614163Y610480D01*
X1614949Y613415D01*
Y616454D01*
X1614163Y619389D01*
X1612644Y622020D01*
X1610495Y624169D01*
X1607864Y625688D01*
X1604929Y626474D01*
D02*
G37*
G36*
X1478529D02*
X1475491D01*
X1472556Y625688D01*
X1469924Y624169D01*
X1467776Y622020D01*
X1466257Y619389D01*
X1465470Y616454D01*
Y613415D01*
X1466257Y610480D01*
X1467776Y607849D01*
X1469924Y605700D01*
X1472556Y604181D01*
X1475491Y603394D01*
X1478529D01*
X1481464Y604181D01*
X1484096Y605700D01*
X1486244Y607849D01*
X1487764Y610480D01*
X1488550Y613415D01*
Y616454D01*
X1487764Y619389D01*
X1486244Y622020D01*
X1484096Y624169D01*
X1481464Y625688D01*
X1478529Y626474D01*
D02*
G37*
G36*
X1329431Y624696D02*
X1326393D01*
X1323457Y623910D01*
X1320826Y622391D01*
X1318678Y620242D01*
X1317158Y617611D01*
X1316372Y614675D01*
Y611637D01*
X1317158Y608702D01*
X1318678Y606071D01*
X1320826Y603922D01*
X1323457Y602403D01*
X1326393Y601616D01*
X1329431D01*
X1332366Y602403D01*
X1334998Y603922D01*
X1337146Y606071D01*
X1338665Y608702D01*
X1339452Y611637D01*
Y614675D01*
X1338665Y617611D01*
X1337146Y620242D01*
X1334998Y622391D01*
X1332366Y623910D01*
X1329431Y624696D01*
D02*
G37*
G36*
X1203031D02*
X1199993D01*
X1197058Y623910D01*
X1194426Y622391D01*
X1192278Y620242D01*
X1190759Y617611D01*
X1189972Y614675D01*
Y611637D01*
X1190759Y608702D01*
X1192278Y606071D01*
X1194426Y603922D01*
X1197058Y602403D01*
X1199993Y601616D01*
X1203031D01*
X1205966Y602403D01*
X1208598Y603922D01*
X1210747Y606071D01*
X1212266Y608702D01*
X1213052Y611637D01*
Y614675D01*
X1212266Y617611D01*
X1210747Y620242D01*
X1208598Y622391D01*
X1205966Y623910D01*
X1203031Y624696D01*
D02*
G37*
G36*
X917956Y604412D02*
Y600710D01*
X921658D01*
X920993Y602318D01*
X919564Y603747D01*
X917956Y604412D01*
D02*
G37*
G36*
X915416D02*
X913808Y603747D01*
X912379Y602318D01*
X911713Y600710D01*
X915416D01*
Y604412D01*
D02*
G37*
G36*
X921658Y598170D02*
X917956D01*
Y594468D01*
X919564Y595133D01*
X920993Y596562D01*
X921658Y598170D01*
D02*
G37*
G36*
X915416D02*
X911713D01*
X912379Y596562D01*
X913808Y595133D01*
X915416Y594468D01*
Y598170D01*
D02*
G37*
G36*
X676245Y833110D02*
X672495D01*
X668816Y832378D01*
X665351Y830943D01*
X662233Y828859D01*
X659581Y826207D01*
X657497Y823089D01*
X656062Y819624D01*
X655330Y815945D01*
Y812195D01*
X656062Y808516D01*
X657497Y805051D01*
X659581Y801933D01*
X662233Y799281D01*
X665351Y797197D01*
X668816Y795762D01*
X672495Y795030D01*
X676245D01*
X679372Y795652D01*
X679903Y794658D01*
X675031Y789787D01*
X675031Y789787D01*
X674269Y789025D01*
X673048Y787433D01*
X672280Y785579D01*
X672018Y783590D01*
Y582929D01*
X672280Y580940D01*
X673048Y579087D01*
X674269Y577495D01*
X712877Y538887D01*
X712877Y538887D01*
X712877Y538887D01*
X741360Y510404D01*
Y435610D01*
X741622Y433620D01*
X742390Y431767D01*
X743611Y430175D01*
X812734Y361052D01*
Y327823D01*
X812386Y327475D01*
X811064Y325185D01*
X810380Y322632D01*
Y319988D01*
X811064Y317435D01*
X812386Y315145D01*
X814255Y313276D01*
X816544Y311954D01*
X819098Y311270D01*
X821741D01*
X824295Y311954D01*
X826584Y313276D01*
X828454Y315145D01*
X829775Y317435D01*
X830460Y319988D01*
Y322632D01*
X829775Y325185D01*
X828454Y327475D01*
X828105Y327823D01*
Y364236D01*
X827844Y366225D01*
X827076Y368079D01*
X825854Y369670D01*
X756732Y438793D01*
Y513587D01*
X756470Y515577D01*
X755702Y517430D01*
X754481Y519022D01*
X754481Y519022D01*
X723747Y549756D01*
X723746Y549756D01*
X723746Y549757D01*
X687390Y586113D01*
Y780406D01*
X708034Y801050D01*
X1068667D01*
X1069274Y799972D01*
X1068626Y798408D01*
Y796204D01*
X1069469Y794168D01*
X1071028Y792609D01*
X1073064Y791766D01*
X1075268D01*
X1077304Y792609D01*
X1078863Y794168D01*
X1079706Y796204D01*
Y798408D01*
X1079058Y799972D01*
X1079665Y801050D01*
X1319394D01*
X1328026Y792419D01*
X1327815Y791361D01*
X1327248Y791126D01*
X1325819Y789697D01*
X1325045Y787830D01*
Y785809D01*
X1325819Y783942D01*
X1327248Y782513D01*
X1329115Y781740D01*
X1331136D01*
X1333003Y782513D01*
X1334432Y783942D01*
X1334667Y784509D01*
X1335725Y784720D01*
X1336955Y783489D01*
X1338547Y782268D01*
X1338548Y782268D01*
X1338548Y782267D01*
X1340401Y781500D01*
X1342390Y781238D01*
X1350636D01*
X1381259Y750615D01*
X1380846Y749619D01*
X1318259D01*
X1316270Y749357D01*
X1314417Y748590D01*
X1312825Y747368D01*
X1256402Y690946D01*
X1238758D01*
X1236769Y690684D01*
X1234916Y689916D01*
X1233324Y688695D01*
X1233324Y688695D01*
X1216271Y671641D01*
X1210147D01*
X1208598Y673191D01*
X1205966Y674710D01*
X1203031Y675496D01*
X1199993D01*
X1197058Y674710D01*
X1194426Y673191D01*
X1192278Y671042D01*
X1190759Y668410D01*
X1189972Y665475D01*
Y662437D01*
X1190759Y659502D01*
X1192278Y656870D01*
X1194426Y654722D01*
X1197058Y653203D01*
X1199993Y652416D01*
X1203031D01*
X1205966Y653203D01*
X1208598Y654722D01*
X1210146Y656270D01*
X1217032D01*
X1244788Y628514D01*
Y584199D01*
X1245050Y582210D01*
X1245818Y580357D01*
X1247039Y578765D01*
X1268883Y556921D01*
X1270475Y555700D01*
X1272328Y554932D01*
X1274318Y554670D01*
X1307948D01*
X1308361Y553674D01*
X1215713Y461026D01*
X1214491Y459434D01*
X1213724Y457581D01*
X1213462Y455592D01*
Y447174D01*
X1213724Y445185D01*
X1214491Y443331D01*
X1215713Y441740D01*
X1216305Y441147D01*
X1217897Y439926D01*
X1219750Y439158D01*
X1221740Y438896D01*
X1223729Y439158D01*
X1225582Y439926D01*
X1227174Y441147D01*
X1228396Y442739D01*
X1229163Y444593D01*
X1229425Y446582D01*
X1229163Y448571D01*
X1228833Y449368D01*
Y452408D01*
X1315439Y539014D01*
X1316207Y538571D01*
X1316372Y538422D01*
Y538227D01*
X1326642D01*
Y548497D01*
X1326447D01*
X1326297Y548662D01*
X1325854Y549429D01*
X1327242Y550816D01*
X1329431D01*
X1332366Y551603D01*
X1334998Y553122D01*
X1337146Y555271D01*
X1338665Y557902D01*
X1339452Y560837D01*
Y563876D01*
X1338665Y566810D01*
X1337146Y569442D01*
X1334998Y571590D01*
X1332366Y573110D01*
X1329431Y573896D01*
X1326393D01*
X1323457Y573110D01*
X1320826Y571590D01*
X1319277Y570042D01*
X1277501D01*
X1260160Y587383D01*
Y631698D01*
X1259898Y633687D01*
X1259130Y635540D01*
X1257909Y637132D01*
X1230704Y664336D01*
X1241942Y675574D01*
X1259586D01*
X1261575Y675836D01*
X1263429Y676604D01*
X1265021Y677825D01*
X1321443Y734248D01*
X1397626D01*
X1446175Y685699D01*
X1447767Y684478D01*
X1449621Y683710D01*
X1451610Y683448D01*
X1468376D01*
X1469924Y681900D01*
X1472556Y680381D01*
X1475491Y679594D01*
X1478529D01*
X1481464Y680381D01*
X1484096Y681900D01*
X1485421Y683226D01*
X1524341D01*
X1545524Y662042D01*
Y605028D01*
X1545786Y603038D01*
X1546554Y601185D01*
X1547775Y599593D01*
X1563269Y584099D01*
X1564861Y582878D01*
X1566714Y582110D01*
X1568704Y581848D01*
X1594776D01*
X1596324Y580300D01*
X1598955Y578781D01*
X1601890Y577994D01*
X1604929D01*
X1607864Y578781D01*
X1610495Y580300D01*
X1612644Y582449D01*
X1614163Y585080D01*
X1614949Y588015D01*
Y591054D01*
X1614163Y593988D01*
X1612644Y596620D01*
X1610495Y598769D01*
X1607864Y600288D01*
X1604929Y601074D01*
X1601890D01*
X1598955Y600288D01*
X1596324Y598769D01*
X1594775Y597220D01*
X1571887D01*
X1560896Y608211D01*
Y665225D01*
X1560896Y665226D01*
X1560634Y667215D01*
X1559866Y669068D01*
X1558645Y670660D01*
X1532959Y696346D01*
X1531367Y697568D01*
X1529513Y698335D01*
X1527524Y698597D01*
X1485867D01*
X1484096Y700368D01*
X1481464Y701888D01*
X1478529Y702674D01*
X1475491D01*
X1472556Y701888D01*
X1469924Y700368D01*
X1468375Y698820D01*
X1454793D01*
X1406245Y747368D01*
X1359255Y794358D01*
X1357663Y795580D01*
X1355809Y796347D01*
X1353820Y796609D01*
X1345573D01*
X1328012Y814171D01*
X1326420Y815392D01*
X1324567Y816160D01*
X1322578Y816422D01*
X1082065D01*
X1081850Y817500D01*
X1082378Y817718D01*
X1083807Y819147D01*
X1084580Y821014D01*
Y823035D01*
X1083807Y824902D01*
X1082378Y826331D01*
X1080510Y827105D01*
X1078490D01*
X1076622Y826331D01*
X1075193Y824902D01*
X1074420Y823035D01*
Y821014D01*
X1075193Y819147D01*
X1076622Y817718D01*
X1077150Y817500D01*
X1076935Y816422D01*
X1042695D01*
X1042480Y817500D01*
X1043008Y817718D01*
X1044437Y819147D01*
X1045210Y821014D01*
Y823035D01*
X1044437Y824902D01*
X1043008Y826331D01*
X1041141Y827105D01*
X1039119D01*
X1037252Y826331D01*
X1035823Y824902D01*
X1035050Y823035D01*
Y821014D01*
X1035823Y819147D01*
X1037252Y817718D01*
X1037780Y817500D01*
X1037565Y816422D01*
X1031265D01*
X1031050Y817500D01*
X1031578Y817718D01*
X1033007Y819147D01*
X1033780Y821014D01*
Y823035D01*
X1033007Y824902D01*
X1031578Y826331D01*
X1029710Y827105D01*
X1027690D01*
X1025822Y826331D01*
X1024393Y824902D01*
X1023620Y823035D01*
Y821014D01*
X1024393Y819147D01*
X1025822Y817718D01*
X1026350Y817500D01*
X1026135Y816422D01*
X1015690D01*
X1015475Y817500D01*
X1016003Y817718D01*
X1017432Y819147D01*
X1018205Y821014D01*
Y823035D01*
X1017432Y824902D01*
X1016003Y826331D01*
X1014136Y827105D01*
X1012115D01*
X1010247Y826331D01*
X1008819Y824902D01*
X1008045Y823035D01*
Y821014D01*
X1008819Y819147D01*
X1010247Y817718D01*
X1010775Y817500D01*
X1010560Y816422D01*
X1002990D01*
X1002775Y817500D01*
X1003303Y817718D01*
X1004732Y819147D01*
X1005505Y821014D01*
Y823035D01*
X1004732Y824902D01*
X1003303Y826331D01*
X1001436Y827105D01*
X999415D01*
X997548Y826331D01*
X996118Y824902D01*
X996000Y824616D01*
X994833D01*
X994535Y825336D01*
X992976Y826895D01*
X990940Y827738D01*
X988736D01*
X986700Y826895D01*
X985141Y825336D01*
X984298Y823300D01*
Y821096D01*
X985141Y819060D01*
X986700Y817501D01*
X986703Y817500D01*
X986489Y816422D01*
X955065D01*
X954850Y817500D01*
X955378Y817718D01*
X956807Y819147D01*
X957580Y821014D01*
Y823035D01*
X956807Y824902D01*
X955378Y826331D01*
X953511Y827105D01*
X951489D01*
X949622Y826331D01*
X948193Y824902D01*
X947420Y823035D01*
Y821014D01*
X948193Y819147D01*
X949622Y817718D01*
X950150Y817500D01*
X949935Y816422D01*
X704850D01*
X702861Y816160D01*
X701007Y815392D01*
X699415Y814171D01*
X693782Y808537D01*
X692788Y809068D01*
X693410Y812195D01*
Y815945D01*
X692678Y819624D01*
X691243Y823089D01*
X689159Y826207D01*
X686507Y828859D01*
X683389Y830943D01*
X679924Y832378D01*
X676245Y833110D01*
D02*
G37*
G36*
X1478529Y601074D02*
X1475491D01*
X1472556Y600288D01*
X1469924Y598769D01*
X1467776Y596620D01*
X1466257Y593988D01*
X1465470Y591054D01*
Y588015D01*
X1466257Y585080D01*
X1467776Y582449D01*
X1469924Y580300D01*
X1472556Y578781D01*
X1475491Y577994D01*
X1478529D01*
X1481464Y578781D01*
X1484096Y580300D01*
X1486244Y582449D01*
X1487764Y585080D01*
X1488550Y588015D01*
Y591054D01*
X1487764Y593988D01*
X1486244Y596620D01*
X1484096Y598769D01*
X1481464Y600288D01*
X1478529Y601074D01*
D02*
G37*
G36*
X1329431Y599296D02*
X1326393D01*
X1323457Y598510D01*
X1320826Y596991D01*
X1318678Y594842D01*
X1317158Y592211D01*
X1316372Y589276D01*
Y586237D01*
X1317158Y583302D01*
X1318678Y580671D01*
X1320826Y578522D01*
X1323457Y577003D01*
X1326393Y576216D01*
X1329431D01*
X1332366Y577003D01*
X1334998Y578522D01*
X1337146Y580671D01*
X1338665Y583302D01*
X1339452Y586237D01*
Y589276D01*
X1338665Y592211D01*
X1337146Y594842D01*
X1334998Y596991D01*
X1332366Y598510D01*
X1329431Y599296D01*
D02*
G37*
G36*
X1203031D02*
X1199993D01*
X1197058Y598510D01*
X1194426Y596991D01*
X1192278Y594842D01*
X1190759Y592211D01*
X1189972Y589276D01*
Y586237D01*
X1190759Y583302D01*
X1192278Y580671D01*
X1194426Y578522D01*
X1197058Y577003D01*
X1199993Y576216D01*
X1203031D01*
X1205966Y577003D01*
X1208598Y578522D01*
X1210747Y580671D01*
X1212266Y583302D01*
X1213052Y586237D01*
Y589276D01*
X1212266Y592211D01*
X1210747Y594842D01*
X1208598Y596991D01*
X1205966Y598510D01*
X1203031Y599296D01*
D02*
G37*
G36*
X984250Y578504D02*
Y574802D01*
X987952D01*
X987287Y576410D01*
X985858Y577839D01*
X984250Y578504D01*
D02*
G37*
G36*
X981710D02*
X980102Y577839D01*
X978673Y576410D01*
X978008Y574802D01*
X981710D01*
Y578504D01*
D02*
G37*
G36*
X987952Y572262D02*
X984250D01*
Y568559D01*
X985858Y569225D01*
X987287Y570654D01*
X987952Y572262D01*
D02*
G37*
G36*
X981710D02*
X978008D01*
X978673Y570654D01*
X980102Y569225D01*
X981710Y568559D01*
Y572262D01*
D02*
G37*
G36*
X1056200Y577560D02*
X1054294D01*
X1052534Y576831D01*
X1051186Y575483D01*
X1050457Y573723D01*
Y571817D01*
X1051186Y570057D01*
X1052534Y568709D01*
X1054294Y567980D01*
X1056200D01*
X1057960Y568709D01*
X1059308Y570057D01*
X1060037Y571817D01*
Y573723D01*
X1059308Y575483D01*
X1057960Y576831D01*
X1056200Y577560D01*
D02*
G37*
G36*
X1038666D02*
X1036760D01*
X1035000Y576831D01*
X1033652Y575483D01*
X1032923Y573723D01*
Y571817D01*
X1033652Y570057D01*
X1035000Y568709D01*
X1036760Y567980D01*
X1038666D01*
X1040426Y568709D01*
X1041774Y570057D01*
X1042503Y571817D01*
Y573723D01*
X1041774Y575483D01*
X1040426Y576831D01*
X1038666Y577560D01*
D02*
G37*
G36*
X1604929Y575675D02*
X1604680D01*
Y565405D01*
X1614949D01*
Y565654D01*
X1614163Y568589D01*
X1612644Y571220D01*
X1610495Y573369D01*
X1607864Y574888D01*
X1604929Y575675D01*
D02*
G37*
G36*
X1602139D02*
X1601890D01*
X1598955Y574888D01*
X1596324Y573369D01*
X1594175Y571220D01*
X1592656Y568589D01*
X1591870Y565654D01*
Y565405D01*
X1602139D01*
Y575675D01*
D02*
G37*
G36*
X1478529D02*
X1478280D01*
Y565405D01*
X1488550D01*
Y565654D01*
X1487764Y568589D01*
X1486244Y571220D01*
X1484096Y573369D01*
X1481464Y574888D01*
X1478529Y575675D01*
D02*
G37*
G36*
X1475740D02*
X1475491D01*
X1472556Y574888D01*
X1469924Y573369D01*
X1467776Y571220D01*
X1466257Y568589D01*
X1465470Y565654D01*
Y565405D01*
X1475740D01*
Y575675D01*
D02*
G37*
G36*
X765551Y570230D02*
X763530D01*
X761662Y569457D01*
X760233Y568028D01*
X759460Y566161D01*
Y564140D01*
X760233Y562272D01*
X761662Y560843D01*
X763530Y560070D01*
X765551D01*
X767418Y560843D01*
X768847Y562272D01*
X769620Y564140D01*
Y566161D01*
X768847Y568028D01*
X767418Y569457D01*
X765551Y570230D01*
D02*
G37*
G36*
X974852Y559963D02*
X973244Y559297D01*
X971906Y557958D01*
X971296Y557909D01*
X970686Y557958D01*
X969348Y559297D01*
X967740Y559963D01*
Y554990D01*
Y550018D01*
X969348Y550683D01*
X970686Y552022D01*
X971296Y552071D01*
X971906Y552022D01*
X973244Y550683D01*
X974852Y550018D01*
Y554990D01*
Y559963D01*
D02*
G37*
G36*
X947359Y560033D02*
Y556330D01*
X951061D01*
X950395Y557938D01*
X948966Y559367D01*
X947359Y560033D01*
D02*
G37*
G36*
X944819D02*
X943211Y559367D01*
X941782Y557938D01*
X941116Y556330D01*
X944819D01*
Y560033D01*
D02*
G37*
G36*
X977392Y559963D02*
Y556260D01*
X981095D01*
X980429Y557868D01*
X979000Y559297D01*
X977392Y559963D01*
D02*
G37*
G36*
X965200D02*
X963592Y559297D01*
X962163Y557868D01*
X961497Y556260D01*
X965200D01*
Y559963D01*
D02*
G37*
G36*
X1142221Y565256D02*
X1140200D01*
X1138333Y564482D01*
X1136904Y563054D01*
X1136130Y561186D01*
Y559165D01*
X1136904Y557298D01*
X1138333Y555869D01*
X1140200Y555096D01*
X1142221D01*
X1144088Y555869D01*
X1145517Y557298D01*
X1146290Y559165D01*
Y561186D01*
X1145517Y563054D01*
X1144088Y564482D01*
X1142221Y565256D01*
D02*
G37*
G36*
X1052513Y554700D02*
X1050607D01*
X1048847Y553971D01*
X1047781Y552905D01*
X1047115Y552726D01*
X1046449Y552905D01*
X1045383Y553971D01*
X1043623Y554700D01*
X1041717D01*
X1039957Y553971D01*
X1038609Y552623D01*
X1037880Y550863D01*
Y548957D01*
X1038609Y547197D01*
X1039957Y545849D01*
X1041717Y545120D01*
X1043623D01*
X1045383Y545849D01*
X1046449Y546915D01*
X1047115Y547094D01*
X1047781Y546915D01*
X1048847Y545849D01*
X1050607Y545120D01*
X1052513D01*
X1054273Y545849D01*
X1055621Y547197D01*
X1056350Y548957D01*
Y550863D01*
X1055621Y552623D01*
X1054273Y553971D01*
X1052513Y554700D01*
D02*
G37*
G36*
X1614949Y562864D02*
X1604680D01*
Y552594D01*
X1604929D01*
X1607864Y553381D01*
X1610495Y554900D01*
X1612644Y557049D01*
X1614163Y559680D01*
X1614949Y562615D01*
Y562864D01*
D02*
G37*
G36*
X1602139D02*
X1591870D01*
Y562615D01*
X1592656Y559680D01*
X1594175Y557049D01*
X1596324Y554900D01*
X1598955Y553381D01*
X1601890Y552594D01*
X1602139D01*
Y562864D01*
D02*
G37*
G36*
X1488550D02*
X1478280D01*
Y552594D01*
X1478529D01*
X1481464Y553381D01*
X1484096Y554900D01*
X1486244Y557049D01*
X1487764Y559680D01*
X1488550Y562615D01*
Y562864D01*
D02*
G37*
G36*
X1475740D02*
X1465470D01*
Y562615D01*
X1466257Y559680D01*
X1467776Y557049D01*
X1469924Y554900D01*
X1472556Y553381D01*
X1475491Y552594D01*
X1475740D01*
Y562864D01*
D02*
G37*
G36*
X1203031Y573896D02*
X1199993D01*
X1197058Y573110D01*
X1194426Y571590D01*
X1192278Y569442D01*
X1190759Y566810D01*
X1189972Y563876D01*
Y560837D01*
X1190759Y557902D01*
X1192278Y555271D01*
X1194426Y553122D01*
X1197058Y551603D01*
X1199993Y550816D01*
X1203031D01*
X1205966Y551603D01*
X1208598Y553122D01*
X1210747Y555271D01*
X1212266Y557902D01*
X1213052Y560837D01*
Y563876D01*
X1212266Y566810D01*
X1210747Y569442D01*
X1208598Y571590D01*
X1205966Y573110D01*
X1203031Y573896D01*
D02*
G37*
G36*
X951061Y553790D02*
X947359D01*
Y550088D01*
X948966Y550754D01*
X950395Y552183D01*
X951061Y553790D01*
D02*
G37*
G36*
X944819D02*
X941116D01*
X941782Y552183D01*
X943211Y550754D01*
X944819Y550088D01*
Y553790D01*
D02*
G37*
G36*
X981095Y553720D02*
X977392D01*
Y550018D01*
X979000Y550683D01*
X980429Y552112D01*
X981095Y553720D01*
D02*
G37*
G36*
X965200D02*
X961497D01*
X962163Y552112D01*
X963592Y550683D01*
X965200Y550018D01*
Y553720D01*
D02*
G37*
G36*
X1329431Y548497D02*
X1329182D01*
Y538227D01*
X1339452D01*
Y538476D01*
X1338665Y541411D01*
X1337146Y544042D01*
X1334998Y546191D01*
X1332366Y547710D01*
X1329431Y548497D01*
D02*
G37*
G36*
X1604929Y550275D02*
X1601890D01*
X1598955Y549488D01*
X1596324Y547969D01*
X1594175Y545820D01*
X1592656Y543189D01*
X1591870Y540254D01*
Y537215D01*
X1592656Y534280D01*
X1594175Y531649D01*
X1596324Y529500D01*
X1598955Y527981D01*
X1601890Y527195D01*
X1604929D01*
X1607864Y527981D01*
X1610495Y529500D01*
X1612644Y531649D01*
X1614163Y534280D01*
X1614949Y537215D01*
Y540254D01*
X1614163Y543189D01*
X1612644Y545820D01*
X1610495Y547969D01*
X1607864Y549488D01*
X1604929Y550275D01*
D02*
G37*
G36*
X1579529Y550274D02*
X1576490D01*
X1573555Y549488D01*
X1570924Y547968D01*
X1568775Y545820D01*
X1567256Y543189D01*
X1566470Y540253D01*
Y537215D01*
X1567256Y534280D01*
X1568775Y531648D01*
X1570924Y529500D01*
X1573555Y527981D01*
X1576490Y527194D01*
X1579529D01*
X1582464Y527981D01*
X1585096Y529500D01*
X1587244Y531648D01*
X1588763Y534280D01*
X1589550Y537215D01*
Y540253D01*
X1588763Y543189D01*
X1587244Y545820D01*
X1585096Y547968D01*
X1582464Y549488D01*
X1579529Y550274D01*
D02*
G37*
G36*
X1554129D02*
X1551091D01*
X1548156Y549488D01*
X1545524Y547968D01*
X1543376Y545820D01*
X1541856Y543189D01*
X1541070Y540253D01*
Y537215D01*
X1541856Y534280D01*
X1543376Y531648D01*
X1545524Y529500D01*
X1548156Y527981D01*
X1551091Y527194D01*
X1554129D01*
X1557064Y527981D01*
X1559695Y529500D01*
X1561844Y531648D01*
X1563363Y534280D01*
X1564150Y537215D01*
Y540253D01*
X1563363Y543189D01*
X1561844Y545820D01*
X1559695Y547968D01*
X1557064Y549488D01*
X1554129Y550274D01*
D02*
G37*
G36*
X1166870Y537210D02*
X1164849D01*
X1162982Y536437D01*
X1161553Y535008D01*
X1160780Y533140D01*
Y531119D01*
X1161553Y529252D01*
X1162982Y527823D01*
X1164849Y527050D01*
X1166870D01*
X1168738Y527823D01*
X1170167Y529252D01*
X1170940Y531119D01*
Y533140D01*
X1170167Y535008D01*
X1168738Y536437D01*
X1166870Y537210D01*
D02*
G37*
G36*
X1339452Y535686D02*
X1329182D01*
Y525416D01*
X1329431D01*
X1332366Y526203D01*
X1334998Y527722D01*
X1337146Y529871D01*
X1338665Y532502D01*
X1339452Y535437D01*
Y535686D01*
D02*
G37*
G36*
X1326642D02*
X1316372D01*
Y535437D01*
X1317158Y532502D01*
X1318678Y529871D01*
X1320826Y527722D01*
X1323457Y526203D01*
X1326393Y525416D01*
X1326642D01*
Y535686D01*
D02*
G37*
G36*
X1203031Y548497D02*
X1199993D01*
X1197058Y547710D01*
X1194426Y546191D01*
X1192278Y544042D01*
X1190759Y541411D01*
X1189972Y538476D01*
Y535437D01*
X1190759Y532502D01*
X1192278Y529871D01*
X1194426Y527722D01*
X1197058Y526203D01*
X1199993Y525416D01*
X1203031D01*
X1205966Y526203D01*
X1208598Y527722D01*
X1210747Y529871D01*
X1212266Y532502D01*
X1213052Y535437D01*
Y538476D01*
X1212266Y541411D01*
X1210747Y544042D01*
X1208598Y546191D01*
X1205966Y547710D01*
X1203031Y548497D01*
D02*
G37*
G36*
X1138873Y532856D02*
X1136967D01*
X1135207Y532127D01*
X1133859Y530779D01*
X1133130Y529019D01*
Y527113D01*
X1133859Y525353D01*
X1135207Y524005D01*
X1136967Y523276D01*
X1138873D01*
X1140633Y524005D01*
X1141981Y525353D01*
X1142710Y527113D01*
Y529019D01*
X1141981Y530779D01*
X1140633Y532127D01*
X1138873Y532856D01*
D02*
G37*
G36*
X1427711Y517826D02*
X1425725D01*
X1423808Y517312D01*
X1422088Y516320D01*
X1420685Y514916D01*
X1419692Y513196D01*
X1419622Y512936D01*
X1418506D01*
X1418504Y512942D01*
X1417511Y514662D01*
X1416108Y516065D01*
X1414388Y517058D01*
X1412471Y517572D01*
X1410485D01*
X1408568Y517058D01*
X1406848Y516065D01*
X1405673Y514891D01*
X1404996Y514754D01*
X1404332Y514892D01*
X1403154Y516071D01*
X1401434Y517063D01*
X1399517Y517577D01*
X1397531D01*
X1395614Y517063D01*
X1393894Y516071D01*
X1392491Y514667D01*
X1391498Y512947D01*
X1390984Y511030D01*
Y509044D01*
X1391498Y507127D01*
X1392491Y505407D01*
X1393894Y504003D01*
X1395614Y503011D01*
X1397531Y502497D01*
X1399517D01*
X1401434Y503011D01*
X1403154Y504003D01*
X1404329Y505179D01*
X1405006Y505314D01*
X1405670Y505177D01*
X1406848Y503998D01*
X1408568Y503006D01*
X1410485Y502492D01*
X1412471D01*
X1414388Y503006D01*
X1416108Y503998D01*
X1417511Y505402D01*
X1418504Y507122D01*
X1418574Y507382D01*
X1419690D01*
X1419692Y507376D01*
X1420685Y505656D01*
X1422088Y504253D01*
X1423808Y503260D01*
X1425725Y502746D01*
X1427711D01*
X1429628Y503260D01*
X1431348Y504253D01*
X1432751Y505656D01*
X1433744Y507376D01*
X1434258Y509293D01*
Y511279D01*
X1433744Y513196D01*
X1432751Y514916D01*
X1431348Y516320D01*
X1429628Y517312D01*
X1427711Y517826D01*
D02*
G37*
G36*
X665468Y519652D02*
X663738D01*
Y512308D01*
X673915D01*
X673789Y513268D01*
X672928Y515345D01*
X671559Y517129D01*
X669775Y518498D01*
X667698Y519358D01*
X665468Y519652D01*
D02*
G37*
G36*
X661198D02*
X659468D01*
X657239Y519358D01*
X655162Y518498D01*
X653378Y517129D01*
X652009Y515345D01*
X651148Y513268D01*
X651022Y512308D01*
X661198D01*
Y519652D01*
D02*
G37*
G36*
X708267D02*
X705537D01*
Y512308D01*
X716714D01*
X716588Y513268D01*
X715727Y515345D01*
X714358Y517129D01*
X712574Y518498D01*
X710497Y519358D01*
X708267Y519652D01*
D02*
G37*
G36*
X702997D02*
X700267D01*
X698038Y519358D01*
X695961Y518498D01*
X694177Y517129D01*
X692808Y515345D01*
X691947Y513268D01*
X691821Y512308D01*
X702997D01*
Y519652D01*
D02*
G37*
G36*
X730320Y515949D02*
X728299D01*
X726432Y515176D01*
X725002Y513747D01*
X724229Y511880D01*
Y509859D01*
X725002Y507991D01*
X726432Y506562D01*
X728299Y505789D01*
X730320D01*
X732187Y506562D01*
X733616Y507991D01*
X734389Y509859D01*
Y511880D01*
X733616Y513747D01*
X732187Y515176D01*
X730320Y515949D01*
D02*
G37*
G36*
X771900Y513080D02*
X769880D01*
X768012Y512307D01*
X766583Y510878D01*
X765810Y509011D01*
Y506990D01*
X766583Y505122D01*
X768012Y503693D01*
X769880Y502920D01*
X771900D01*
X773768Y503693D01*
X775197Y505122D01*
X775970Y506990D01*
Y509011D01*
X775197Y510878D01*
X773768Y512307D01*
X771900Y513080D01*
D02*
G37*
G36*
X673915Y509768D02*
X663738D01*
Y502425D01*
X665468D01*
X667698Y502718D01*
X669775Y503579D01*
X671559Y504948D01*
X672928Y506731D01*
X673789Y508809D01*
X673915Y509768D01*
D02*
G37*
G36*
X661198D02*
X651022D01*
X651148Y508809D01*
X652009Y506731D01*
X653378Y504948D01*
X655162Y503579D01*
X657239Y502718D01*
X659468Y502425D01*
X661198D01*
Y509768D01*
D02*
G37*
G36*
X1038860Y496463D02*
Y492760D01*
X1042562D01*
X1041897Y494368D01*
X1040468Y495797D01*
X1038860Y496463D01*
D02*
G37*
G36*
X1036320D02*
X1034712Y495797D01*
X1033283Y494368D01*
X1032617Y492760D01*
X1036320D01*
Y496463D01*
D02*
G37*
G36*
X1025652D02*
Y492760D01*
X1029354D01*
X1028689Y494368D01*
X1027260Y495797D01*
X1025652Y496463D01*
D02*
G37*
G36*
X1023112D02*
X1021504Y495797D01*
X1020075Y494368D01*
X1019409Y492760D01*
X1023112D01*
Y496463D01*
D02*
G37*
G36*
X1012444D02*
Y492760D01*
X1016146D01*
X1015481Y494368D01*
X1014052Y495797D01*
X1012444Y496463D01*
D02*
G37*
G36*
X1009904D02*
X1008296Y495797D01*
X1006867Y494368D01*
X1006201Y492760D01*
X1009904D01*
Y496463D01*
D02*
G37*
G36*
X1439141Y506396D02*
X1437155D01*
X1435238Y505882D01*
X1433518Y504889D01*
X1432115Y503486D01*
X1431122Y501766D01*
X1430608Y499849D01*
Y497863D01*
X1431122Y495946D01*
X1432115Y494226D01*
X1433518Y492822D01*
X1435238Y491830D01*
X1437155Y491316D01*
X1439141D01*
X1441058Y491830D01*
X1442778Y492822D01*
X1444182Y494226D01*
X1445174Y495946D01*
X1445688Y497863D01*
Y499849D01*
X1445174Y501766D01*
X1444182Y503486D01*
X1442778Y504889D01*
X1441058Y505882D01*
X1439141Y506396D01*
D02*
G37*
G36*
X716714Y509768D02*
X704267D01*
X691821D01*
X691947Y508809D01*
X692808Y506731D01*
X694177Y504948D01*
X695961Y503579D01*
X696291Y503442D01*
Y502364D01*
X695704Y502120D01*
X693935Y500351D01*
X692977Y498039D01*
Y495537D01*
X693935Y493225D01*
X695704Y491455D01*
X698016Y490498D01*
X700518D01*
X702830Y491455D01*
X704600Y493225D01*
X705557Y495537D01*
Y498039D01*
X704600Y500351D01*
X703604Y501347D01*
X704051Y502425D01*
X708267D01*
X710497Y502718D01*
X712574Y503579D01*
X714358Y504948D01*
X715727Y506731D01*
X716588Y508809D01*
X716714Y509768D01*
D02*
G37*
G36*
X1042562Y490220D02*
X1038860D01*
Y486517D01*
X1040468Y487183D01*
X1041897Y488612D01*
X1042562Y490220D01*
D02*
G37*
G36*
X1036320D02*
X1032617D01*
X1033283Y488612D01*
X1034712Y487183D01*
X1036320Y486517D01*
Y490220D01*
D02*
G37*
G36*
X1029354D02*
X1025652D01*
Y486517D01*
X1027260Y487183D01*
X1028689Y488612D01*
X1029354Y490220D01*
D02*
G37*
G36*
X1023112D02*
X1019409D01*
X1020075Y488612D01*
X1021504Y487183D01*
X1023112Y486517D01*
Y490220D01*
D02*
G37*
G36*
X1016146D02*
X1012444D01*
Y486517D01*
X1014052Y487183D01*
X1015481Y488612D01*
X1016146Y490220D01*
D02*
G37*
G36*
X1009904D02*
X1006201D01*
X1006867Y488612D01*
X1008296Y487183D01*
X1009904Y486517D01*
Y490220D01*
D02*
G37*
G36*
X918972Y486410D02*
X915269D01*
X915935Y484802D01*
X917364Y483373D01*
X918972Y482707D01*
Y486410D01*
D02*
G37*
G36*
X1038860Y483635D02*
Y479933D01*
X1042562D01*
X1041897Y481541D01*
X1040468Y482970D01*
X1038860Y483635D01*
D02*
G37*
G36*
X1036320D02*
X1034712Y482970D01*
X1033283Y481541D01*
X1032617Y479933D01*
X1036320D01*
Y483635D01*
D02*
G37*
G36*
X1025652D02*
Y479933D01*
X1029354D01*
X1028689Y481541D01*
X1027260Y482970D01*
X1025652Y483635D01*
D02*
G37*
G36*
X1023112D02*
X1021504Y482970D01*
X1020075Y481541D01*
X1019409Y479933D01*
X1023112D01*
Y483635D01*
D02*
G37*
G36*
X1012444D02*
Y479933D01*
X1016146D01*
X1015481Y481541D01*
X1014052Y482970D01*
X1012444Y483635D01*
D02*
G37*
G36*
X1009904D02*
X1008296Y482970D01*
X1006867Y481541D01*
X1006201Y479933D01*
X1009904D01*
Y483635D01*
D02*
G37*
G36*
X1042562Y477393D02*
X1038860D01*
Y473690D01*
X1040468Y474356D01*
X1041897Y475785D01*
X1042562Y477393D01*
D02*
G37*
G36*
X1036320D02*
X1032617D01*
X1033283Y475785D01*
X1034712Y474356D01*
X1036320Y473690D01*
Y477393D01*
D02*
G37*
G36*
X1029354D02*
X1025652D01*
Y473690D01*
X1027260Y474356D01*
X1028689Y475785D01*
X1029354Y477393D01*
D02*
G37*
G36*
X1023112D02*
X1019409D01*
X1020075Y475785D01*
X1021504Y474356D01*
X1023112Y473690D01*
Y477393D01*
D02*
G37*
G36*
X1016146D02*
X1012444D01*
Y473690D01*
X1014052Y474356D01*
X1015481Y475785D01*
X1016146Y477393D01*
D02*
G37*
G36*
X1009904D02*
X1006201D01*
X1006867Y475785D01*
X1008296Y474356D01*
X1009904Y473690D01*
Y477393D01*
D02*
G37*
G36*
X789623Y478500D02*
X787717D01*
X785957Y477771D01*
X784609Y476423D01*
X783880Y474663D01*
Y472757D01*
X784609Y470997D01*
X785957Y469649D01*
X787717Y468920D01*
X789623D01*
X791383Y469649D01*
X792731Y470997D01*
X793460Y472757D01*
Y474663D01*
X792731Y476423D01*
X791383Y477771D01*
X789623Y478500D01*
D02*
G37*
G36*
X1038860Y470808D02*
Y467106D01*
X1042562D01*
X1041897Y468714D01*
X1040468Y470143D01*
X1038860Y470808D01*
D02*
G37*
G36*
X1036320D02*
X1034712Y470143D01*
X1033283Y468714D01*
X1032617Y467106D01*
X1036320D01*
Y470808D01*
D02*
G37*
G36*
X1025652D02*
Y467106D01*
X1029354D01*
X1028689Y468714D01*
X1027260Y470143D01*
X1025652Y470808D01*
D02*
G37*
G36*
X1023112D02*
X1021504Y470143D01*
X1020075Y468714D01*
X1019409Y467106D01*
X1023112D01*
Y470808D01*
D02*
G37*
G36*
X1012444D02*
Y467106D01*
X1016146D01*
X1015481Y468714D01*
X1014052Y470143D01*
X1012444Y470808D01*
D02*
G37*
G36*
X1009904D02*
X1008296Y470143D01*
X1006867Y468714D01*
X1006201Y467106D01*
X1009904D01*
Y470808D01*
D02*
G37*
G36*
X1171570Y466961D02*
Y463259D01*
X1175272D01*
X1174606Y464866D01*
X1173177Y466296D01*
X1171570Y466961D01*
D02*
G37*
G36*
X1169029D02*
X1167422Y466296D01*
X1165993Y464866D01*
X1165327Y463259D01*
X1169029D01*
Y466961D01*
D02*
G37*
G36*
X1042562Y464566D02*
X1038860D01*
Y460863D01*
X1040468Y461529D01*
X1041897Y462958D01*
X1042562Y464566D01*
D02*
G37*
G36*
X1036320D02*
X1032617D01*
X1033283Y462958D01*
X1034712Y461529D01*
X1036320Y460863D01*
Y464566D01*
D02*
G37*
G36*
X1029354D02*
X1025652D01*
Y460863D01*
X1027260Y461529D01*
X1028689Y462958D01*
X1029354Y464566D01*
D02*
G37*
G36*
X1023112D02*
X1019409D01*
X1020075Y462958D01*
X1021504Y461529D01*
X1023112Y460863D01*
Y464566D01*
D02*
G37*
G36*
X1016146D02*
X1012444D01*
Y460863D01*
X1014052Y461529D01*
X1015481Y462958D01*
X1016146Y464566D01*
D02*
G37*
G36*
X1009904D02*
X1006201D01*
X1006867Y462958D01*
X1008296Y461529D01*
X1009904Y460863D01*
Y464566D01*
D02*
G37*
G36*
X1175272Y460719D02*
X1171570D01*
Y457016D01*
X1173177Y457682D01*
X1174606Y459111D01*
X1175272Y460719D01*
D02*
G37*
G36*
X1169029D02*
X1165327D01*
X1165993Y459111D01*
X1167422Y457682D01*
X1169029Y457016D01*
Y460719D01*
D02*
G37*
G36*
X789623Y465800D02*
X787717D01*
X785957Y465071D01*
X784609Y463723D01*
X783880Y461963D01*
Y460057D01*
X784609Y458297D01*
X785957Y456949D01*
X787717Y456220D01*
X789623D01*
X791383Y456949D01*
X792731Y458297D01*
X793460Y460057D01*
Y461963D01*
X792731Y463723D01*
X791383Y465071D01*
X789623Y465800D01*
D02*
G37*
G36*
Y449290D02*
X787717D01*
X785957Y448561D01*
X784609Y447213D01*
X783880Y445453D01*
Y443547D01*
X784609Y441787D01*
X785957Y440439D01*
X787717Y439710D01*
X789623D01*
X791383Y440439D01*
X792731Y441787D01*
X793460Y443547D01*
Y445453D01*
X792731Y447213D01*
X791383Y448561D01*
X789623Y449290D01*
D02*
G37*
G36*
Y436140D02*
X787717D01*
X785957Y435411D01*
X784609Y434063D01*
X783880Y432303D01*
Y430397D01*
X784609Y428637D01*
X785957Y427289D01*
X787717Y426560D01*
X789623D01*
X791383Y427289D01*
X792731Y428637D01*
X793460Y430397D01*
Y432303D01*
X792731Y434063D01*
X791383Y435411D01*
X789623Y436140D01*
D02*
G37*
G36*
X665468Y433153D02*
X663738D01*
Y425809D01*
X673915D01*
X673789Y426768D01*
X672928Y428846D01*
X671559Y430630D01*
X669775Y431999D01*
X667698Y432859D01*
X665468Y433153D01*
D02*
G37*
G36*
X661198D02*
X659468D01*
X657239Y432859D01*
X655162Y431999D01*
X653378Y430630D01*
X652009Y428846D01*
X651148Y426768D01*
X651022Y425809D01*
X661198D01*
Y433153D01*
D02*
G37*
G36*
X700518Y445080D02*
X698016D01*
X695704Y444122D01*
X693935Y442353D01*
X692977Y440041D01*
Y437538D01*
X693935Y435227D01*
X695704Y433457D01*
X696291Y433214D01*
Y432136D01*
X695961Y431999D01*
X694177Y430630D01*
X692808Y428846D01*
X691947Y426768D01*
X691821Y425809D01*
X704267D01*
X716714D01*
X716588Y426768D01*
X715727Y428846D01*
X714358Y430630D01*
X712574Y431999D01*
X710497Y432859D01*
X708267Y433153D01*
X704051D01*
X703604Y434231D01*
X704600Y435227D01*
X705557Y437538D01*
Y440041D01*
X704600Y442353D01*
X702830Y444122D01*
X700518Y445080D01*
D02*
G37*
G36*
X716714Y423269D02*
X705537D01*
Y415925D01*
X708267D01*
X710497Y416219D01*
X712574Y417080D01*
X714358Y418448D01*
X715727Y420232D01*
X716588Y422310D01*
X716714Y423269D01*
D02*
G37*
G36*
X702997D02*
X691821D01*
X691947Y422310D01*
X692808Y420232D01*
X694177Y418448D01*
X695961Y417080D01*
X698038Y416219D01*
X700267Y415925D01*
X702997D01*
Y423269D01*
D02*
G37*
G36*
X673915Y423269D02*
X663738D01*
Y415925D01*
X665468D01*
X667698Y416219D01*
X669775Y417080D01*
X671559Y418448D01*
X672928Y420232D01*
X673789Y422310D01*
X673915Y423269D01*
D02*
G37*
G36*
X661198D02*
X651022D01*
X651148Y422310D01*
X652009Y420232D01*
X653378Y418448D01*
X655162Y417080D01*
X657239Y416219D01*
X659468Y415925D01*
X661198D01*
Y423269D01*
D02*
G37*
G36*
X724638Y423183D02*
X722617D01*
X720750Y422410D01*
X719321Y420980D01*
X718547Y419113D01*
Y417093D01*
X719321Y415225D01*
X720750Y413796D01*
X722617Y413023D01*
X724638D01*
X726505Y413796D01*
X727934Y415225D01*
X728707Y417093D01*
Y419113D01*
X727934Y420980D01*
X726505Y422410D01*
X724638Y423183D01*
D02*
G37*
G36*
X1607877Y401240D02*
X1605223D01*
X1602659Y400553D01*
X1600361Y399226D01*
X1598484Y397349D01*
X1597157Y395051D01*
X1596470Y392487D01*
Y389833D01*
X1597157Y387269D01*
X1598484Y384971D01*
X1600361Y383094D01*
X1602659Y381767D01*
X1605223Y381080D01*
X1607877D01*
X1610441Y381767D01*
X1612739Y383094D01*
X1614616Y384971D01*
X1615943Y387269D01*
X1616630Y389833D01*
Y392487D01*
X1615943Y395051D01*
X1614616Y397349D01*
X1612739Y399226D01*
X1610441Y400553D01*
X1607877Y401240D01*
D02*
G37*
G36*
X1531677D02*
X1529023D01*
X1526459Y400553D01*
X1524161Y399226D01*
X1522284Y397349D01*
X1520957Y395051D01*
X1520270Y392487D01*
Y389833D01*
X1520957Y387269D01*
X1522284Y384971D01*
X1524161Y383094D01*
X1526459Y381767D01*
X1529023Y381080D01*
X1531677D01*
X1534241Y381767D01*
X1536539Y383094D01*
X1538416Y384971D01*
X1539743Y387269D01*
X1540430Y389833D01*
Y392487D01*
X1539743Y395051D01*
X1538416Y397349D01*
X1536539Y399226D01*
X1534241Y400553D01*
X1531677Y401240D01*
D02*
G37*
G36*
X1506277D02*
X1503623D01*
X1501059Y400553D01*
X1498761Y399226D01*
X1496884Y397349D01*
X1495557Y395051D01*
X1494870Y392487D01*
Y389833D01*
X1495557Y387269D01*
X1496884Y384971D01*
X1498761Y383094D01*
X1501059Y381767D01*
X1503623Y381080D01*
X1506277D01*
X1508841Y381767D01*
X1511139Y383094D01*
X1513016Y384971D01*
X1514343Y387269D01*
X1515030Y389833D01*
Y392487D01*
X1514343Y395051D01*
X1513016Y397349D01*
X1511139Y399226D01*
X1508841Y400553D01*
X1506277Y401240D01*
D02*
G37*
G36*
X1099398Y372062D02*
X1097194D01*
X1095158Y371219D01*
X1093599Y369660D01*
X1092756Y367624D01*
Y365420D01*
X1093599Y363384D01*
X1095158Y361825D01*
X1097194Y360982D01*
X1099398D01*
X1101434Y361825D01*
X1102993Y363384D01*
X1103836Y365420D01*
Y367624D01*
X1102993Y369660D01*
X1101434Y371219D01*
X1099398Y372062D01*
D02*
G37*
G36*
X843366Y371808D02*
X841162D01*
X839126Y370965D01*
X837567Y369406D01*
X836724Y367370D01*
Y365166D01*
X837567Y363130D01*
X839126Y361571D01*
X841162Y360728D01*
X843366D01*
X845402Y361571D01*
X846961Y363130D01*
X847804Y365166D01*
Y367370D01*
X846961Y369406D01*
X845402Y370965D01*
X843366Y371808D01*
D02*
G37*
G36*
X1442460Y361950D02*
X1440439D01*
X1438572Y361177D01*
X1437143Y359748D01*
X1436370Y357881D01*
Y355859D01*
X1437143Y353992D01*
X1438572Y352563D01*
X1440439Y351790D01*
X1442460D01*
X1444328Y352563D01*
X1445757Y353992D01*
X1446530Y355859D01*
Y357881D01*
X1445757Y359748D01*
X1444328Y361177D01*
X1442460Y361950D01*
D02*
G37*
G36*
X1380992D02*
X1378972D01*
X1377104Y361177D01*
X1375675Y359748D01*
X1374902Y357881D01*
Y355859D01*
X1375675Y353992D01*
X1377104Y352563D01*
X1378972Y351790D01*
X1380992D01*
X1382860Y352563D01*
X1384289Y353992D01*
X1385062Y355859D01*
Y357881D01*
X1384289Y359748D01*
X1382860Y361177D01*
X1380992Y361950D01*
D02*
G37*
G36*
X1361261Y354411D02*
X1359240D01*
X1357373Y353638D01*
X1355944Y352209D01*
X1355171Y350341D01*
Y348320D01*
X1355944Y346453D01*
X1357373Y345024D01*
X1359240Y344251D01*
X1361261D01*
X1363129Y345024D01*
X1364557Y346453D01*
X1365331Y348320D01*
Y350341D01*
X1364557Y352209D01*
X1363129Y353638D01*
X1361261Y354411D01*
D02*
G37*
G36*
X1348740Y347110D02*
Y343408D01*
X1352442D01*
X1351777Y345016D01*
X1350348Y346445D01*
X1348740Y347110D01*
D02*
G37*
G36*
X1346200D02*
X1344592Y346445D01*
X1343163Y345016D01*
X1342498Y343408D01*
X1346200D01*
Y347110D01*
D02*
G37*
G36*
X1352442Y340868D02*
X1348740D01*
Y337165D01*
X1350348Y337831D01*
X1351777Y339260D01*
X1352442Y340868D01*
D02*
G37*
G36*
X1346200D02*
X1342498D01*
X1343163Y339260D01*
X1344592Y337831D01*
X1346200Y337165D01*
Y340868D01*
D02*
G37*
G36*
X1329431Y726296D02*
X1326393D01*
X1323457Y725509D01*
X1320826Y723990D01*
X1318678Y721842D01*
X1317158Y719210D01*
X1316372Y716275D01*
Y713237D01*
X1317158Y710302D01*
X1318678Y707670D01*
X1320826Y705522D01*
X1323457Y704003D01*
X1326393Y703216D01*
X1329431D01*
X1332366Y704003D01*
X1334998Y705522D01*
X1337146Y707670D01*
X1337499Y708282D01*
X1377300D01*
X1395986Y689595D01*
Y565023D01*
X1396479Y562546D01*
X1397883Y560445D01*
X1424171Y534156D01*
X1426272Y532753D01*
X1428750Y532260D01*
X1467423D01*
X1467776Y531649D01*
X1469924Y529500D01*
X1470536Y529147D01*
Y365902D01*
X1454262Y349628D01*
X1439672D01*
X1437194Y349136D01*
X1435094Y347732D01*
X1433690Y345632D01*
X1433198Y343154D01*
X1433690Y340676D01*
X1435094Y338576D01*
X1437194Y337172D01*
X1439672Y336680D01*
X1456944D01*
X1459422Y337172D01*
X1461522Y338576D01*
X1481588Y358642D01*
X1482992Y360742D01*
X1483484Y363220D01*
Y529147D01*
X1484096Y529500D01*
X1486244Y531649D01*
X1487764Y534280D01*
X1488550Y537215D01*
Y540254D01*
X1487764Y543189D01*
X1486244Y545820D01*
X1484096Y547969D01*
X1481464Y549488D01*
X1478529Y550275D01*
X1475491D01*
X1472556Y549488D01*
X1469924Y547969D01*
X1467776Y545820D01*
X1467423Y545209D01*
X1431431D01*
X1408935Y567705D01*
Y692277D01*
X1408442Y694755D01*
X1407039Y696855D01*
X1384560Y719334D01*
X1382460Y720738D01*
X1379982Y721230D01*
X1337499D01*
X1337146Y721842D01*
X1334998Y723990D01*
X1332366Y725509D01*
X1329431Y726296D01*
D02*
G37*
G36*
X1290828Y336442D02*
Y332740D01*
X1294530D01*
X1293865Y334348D01*
X1292436Y335777D01*
X1290828Y336442D01*
D02*
G37*
G36*
X1607877Y350440D02*
X1605223D01*
X1602659Y349753D01*
X1600361Y348426D01*
X1598484Y346549D01*
X1597157Y344251D01*
X1596470Y341687D01*
Y339033D01*
X1597157Y336469D01*
X1598484Y334171D01*
X1600361Y332294D01*
X1602659Y330967D01*
X1605223Y330280D01*
X1607877D01*
X1610441Y330967D01*
X1612739Y332294D01*
X1614616Y334171D01*
X1615943Y336469D01*
X1616630Y339033D01*
Y341687D01*
X1615943Y344251D01*
X1614616Y346549D01*
X1612739Y348426D01*
X1610441Y349753D01*
X1607877Y350440D01*
D02*
G37*
G36*
X1531677D02*
X1529023D01*
X1526459Y349753D01*
X1524161Y348426D01*
X1522284Y346549D01*
X1520957Y344251D01*
X1520270Y341687D01*
Y339033D01*
X1520957Y336469D01*
X1522284Y334171D01*
X1524161Y332294D01*
X1526459Y330967D01*
X1529023Y330280D01*
X1531677D01*
X1534241Y330967D01*
X1536539Y332294D01*
X1538416Y334171D01*
X1539743Y336469D01*
X1540430Y339033D01*
Y341687D01*
X1539743Y344251D01*
X1538416Y346549D01*
X1536539Y348426D01*
X1534241Y349753D01*
X1531677Y350440D01*
D02*
G37*
G36*
X1506277D02*
X1503623D01*
X1501059Y349753D01*
X1498761Y348426D01*
X1496884Y346549D01*
X1495557Y344251D01*
X1494870Y341687D01*
Y339033D01*
X1495557Y336469D01*
X1496884Y334171D01*
X1498761Y332294D01*
X1501059Y330967D01*
X1503623Y330280D01*
X1506277D01*
X1508841Y330967D01*
X1511139Y332294D01*
X1513016Y334171D01*
X1514343Y336469D01*
X1515030Y339033D01*
Y341687D01*
X1514343Y344251D01*
X1513016Y346549D01*
X1511139Y348426D01*
X1508841Y349753D01*
X1506277Y350440D01*
D02*
G37*
G36*
X1294530Y330200D02*
X1290828D01*
Y326497D01*
X1292436Y327163D01*
X1293865Y328592D01*
X1294530Y330200D01*
D02*
G37*
G36*
X796341Y331350D02*
X796290D01*
Y322580D01*
X805060D01*
Y322632D01*
X804376Y325185D01*
X803054Y327475D01*
X801184Y329344D01*
X798895Y330666D01*
X796341Y331350D01*
D02*
G37*
G36*
X793750D02*
X793698D01*
X791144Y330666D01*
X788855Y329344D01*
X786986Y327475D01*
X785664Y325185D01*
X784980Y322632D01*
Y322580D01*
X793750D01*
Y331350D01*
D02*
G37*
G36*
X844550D02*
X844498D01*
X841944Y330666D01*
X839655Y329344D01*
X837786Y327475D01*
X836464Y325185D01*
X835780Y322632D01*
Y322580D01*
X844550D01*
Y331350D01*
D02*
G37*
G36*
X1135260D02*
X1115180D01*
Y311270D01*
X1135260D01*
Y331350D01*
D02*
G37*
G36*
X1101142D02*
X1098498D01*
X1095944Y330666D01*
X1093655Y329344D01*
X1091786Y327475D01*
X1090464Y325185D01*
X1089780Y322632D01*
Y319988D01*
X1090464Y317435D01*
X1091786Y315145D01*
X1093655Y313276D01*
X1095944Y311954D01*
X1098498Y311270D01*
X1101142D01*
X1103695Y311954D01*
X1105984Y313276D01*
X1107854Y315145D01*
X1109175Y317435D01*
X1109860Y319988D01*
Y322632D01*
X1109175Y325185D01*
X1107854Y327475D01*
X1105984Y329344D01*
X1103695Y330666D01*
X1101142Y331350D01*
D02*
G37*
G36*
X1075742D02*
X1073098D01*
X1070544Y330666D01*
X1068255Y329344D01*
X1066386Y327475D01*
X1065064Y325185D01*
X1064380Y322632D01*
Y319988D01*
X1065064Y317435D01*
X1066386Y315145D01*
X1068255Y313276D01*
X1070544Y311954D01*
X1073098Y311270D01*
X1075742D01*
X1078295Y311954D01*
X1080584Y313276D01*
X1082454Y315145D01*
X1083775Y317435D01*
X1084460Y319988D01*
Y322632D01*
X1083775Y325185D01*
X1082454Y327475D01*
X1080584Y329344D01*
X1078295Y330666D01*
X1075742Y331350D01*
D02*
G37*
G36*
X1050341D02*
X1047698D01*
X1045144Y330666D01*
X1042855Y329344D01*
X1040986Y327475D01*
X1039664Y325185D01*
X1038980Y322632D01*
Y319988D01*
X1039664Y317435D01*
X1040986Y315145D01*
X1042855Y313276D01*
X1045144Y311954D01*
X1047698Y311270D01*
X1050341D01*
X1052895Y311954D01*
X1055184Y313276D01*
X1057054Y315145D01*
X1058375Y317435D01*
X1059060Y319988D01*
Y322632D01*
X1058375Y325185D01*
X1057054Y327475D01*
X1055184Y329344D01*
X1052895Y330666D01*
X1050341Y331350D01*
D02*
G37*
G36*
X1024941D02*
X1022298D01*
X1019744Y330666D01*
X1017455Y329344D01*
X1015586Y327475D01*
X1014264Y325185D01*
X1013580Y322632D01*
Y319988D01*
X1014264Y317435D01*
X1015586Y315145D01*
X1017455Y313276D01*
X1019744Y311954D01*
X1022298Y311270D01*
X1024941D01*
X1027495Y311954D01*
X1029784Y313276D01*
X1031654Y315145D01*
X1032975Y317435D01*
X1033660Y319988D01*
Y322632D01*
X1032975Y325185D01*
X1031654Y327475D01*
X1029784Y329344D01*
X1027495Y330666D01*
X1024941Y331350D01*
D02*
G37*
G36*
X844550Y320040D02*
X835780D01*
Y319988D01*
X836464Y317435D01*
X837786Y315145D01*
X839655Y313276D01*
X841944Y311954D01*
X844498Y311270D01*
X844550D01*
Y320040D01*
D02*
G37*
G36*
X805060D02*
X796290D01*
Y311270D01*
X796341D01*
X798895Y311954D01*
X801184Y313276D01*
X803054Y315145D01*
X804376Y317435D01*
X805060Y319988D01*
Y320040D01*
D02*
G37*
G36*
X793750D02*
X784980D01*
Y319988D01*
X785664Y317435D01*
X786986Y315145D01*
X788855Y313276D01*
X791144Y311954D01*
X793698Y311270D01*
X793750D01*
Y320040D01*
D02*
G37*
G36*
X1217671Y311404D02*
X1215649D01*
X1213782Y310631D01*
X1212353Y309202D01*
X1211580Y307334D01*
Y305313D01*
X1212353Y303446D01*
X1213782Y302017D01*
X1215649Y301244D01*
X1217671D01*
X1219538Y302017D01*
X1220967Y303446D01*
X1221740Y305313D01*
Y307334D01*
X1220967Y309202D01*
X1219538Y310631D01*
X1217671Y311404D01*
D02*
G37*
G36*
X796341Y305950D02*
X796290D01*
Y297180D01*
X805060D01*
Y297232D01*
X804376Y299785D01*
X803054Y302075D01*
X801184Y303944D01*
X798895Y305266D01*
X796341Y305950D01*
D02*
G37*
G36*
X770941D02*
X770890D01*
Y297180D01*
X779660D01*
Y297232D01*
X778976Y299785D01*
X777654Y302075D01*
X775785Y303944D01*
X773495Y305266D01*
X770941Y305950D01*
D02*
G37*
G36*
X793750D02*
X793698D01*
X791144Y305266D01*
X788855Y303944D01*
X786986Y302075D01*
X785664Y299785D01*
X784980Y297232D01*
Y297180D01*
X793750D01*
Y305950D01*
D02*
G37*
G36*
X768350D02*
X768298D01*
X765744Y305266D01*
X763455Y303944D01*
X761586Y302075D01*
X760264Y299785D01*
X759580Y297232D01*
Y297180D01*
X768350D01*
Y305950D01*
D02*
G37*
G36*
X1299982Y298106D02*
Y294403D01*
X1303684D01*
X1303018Y296011D01*
X1301589Y297440D01*
X1299982Y298106D01*
D02*
G37*
G36*
X1297442D02*
X1295834Y297440D01*
X1294405Y296011D01*
X1293739Y294403D01*
X1297442D01*
Y298106D01*
D02*
G37*
G36*
X1303684Y291863D02*
X1299982D01*
Y288160D01*
X1301589Y288826D01*
X1303018Y290255D01*
X1303684Y291863D01*
D02*
G37*
G36*
X1297442D02*
X1293739D01*
X1294405Y290255D01*
X1295834Y288826D01*
X1297442Y288160D01*
Y291863D01*
D02*
G37*
G36*
X974141Y305950D02*
X971498D01*
X968944Y305266D01*
X966655Y303944D01*
X964786Y302075D01*
X963464Y299785D01*
X962780Y297232D01*
Y294588D01*
X963464Y292035D01*
X964786Y289745D01*
X966655Y287876D01*
X968944Y286554D01*
X971498Y285870D01*
X974141D01*
X976695Y286554D01*
X978985Y287876D01*
X980854Y289745D01*
X982176Y292035D01*
X982860Y294588D01*
Y297232D01*
X982176Y299785D01*
X980854Y302075D01*
X978985Y303944D01*
X976695Y305266D01*
X974141Y305950D01*
D02*
G37*
G36*
X847141D02*
X844498D01*
X841944Y305266D01*
X839655Y303944D01*
X837786Y302075D01*
X836464Y299785D01*
X835780Y297232D01*
Y294588D01*
X836464Y292035D01*
X837786Y289745D01*
X839655Y287876D01*
X841944Y286554D01*
X844498Y285870D01*
X847141D01*
X849695Y286554D01*
X851984Y287876D01*
X853854Y289745D01*
X855175Y292035D01*
X855860Y294588D01*
Y297232D01*
X855175Y299785D01*
X853854Y302075D01*
X851984Y303944D01*
X849695Y305266D01*
X847141Y305950D01*
D02*
G37*
G36*
X821741D02*
X819098D01*
X816544Y305266D01*
X814255Y303944D01*
X812386Y302075D01*
X811064Y299785D01*
X810380Y297232D01*
Y294588D01*
X811064Y292035D01*
X812386Y289745D01*
X814255Y287876D01*
X816544Y286554D01*
X819098Y285870D01*
X821741D01*
X824295Y286554D01*
X826584Y287876D01*
X828454Y289745D01*
X829775Y292035D01*
X830460Y294588D01*
Y297232D01*
X829775Y299785D01*
X828454Y302075D01*
X826584Y303944D01*
X824295Y305266D01*
X821741Y305950D01*
D02*
G37*
G36*
X805060Y294640D02*
X796290D01*
Y285870D01*
X796341D01*
X798895Y286554D01*
X801184Y287876D01*
X803054Y289745D01*
X804376Y292035D01*
X805060Y294588D01*
Y294640D01*
D02*
G37*
G36*
X793750D02*
X784980D01*
Y294588D01*
X785664Y292035D01*
X786986Y289745D01*
X788855Y287876D01*
X791144Y286554D01*
X793698Y285870D01*
X793750D01*
Y294640D01*
D02*
G37*
G36*
X779660D02*
X770890D01*
Y285870D01*
X770941D01*
X773495Y286554D01*
X775785Y287876D01*
X777654Y289745D01*
X778976Y292035D01*
X779660Y294588D01*
Y294640D01*
D02*
G37*
G36*
X768350D02*
X759580D01*
Y294588D01*
X760264Y292035D01*
X761586Y289745D01*
X763455Y287876D01*
X765744Y286554D01*
X768298Y285870D01*
X768350D01*
Y294640D01*
D02*
G37*
G36*
X676245Y320030D02*
X672495D01*
X668816Y319298D01*
X665351Y317863D01*
X662233Y315779D01*
X659581Y313127D01*
X657497Y310009D01*
X656062Y306544D01*
X655330Y302865D01*
Y299115D01*
X656062Y295436D01*
X657497Y291971D01*
X659581Y288853D01*
X662233Y286201D01*
X665351Y284117D01*
X668816Y282682D01*
X672495Y281950D01*
X676245D01*
X679924Y282682D01*
X683389Y284117D01*
X686507Y286201D01*
X689159Y288853D01*
X691243Y291971D01*
X692678Y295436D01*
X693410Y299115D01*
Y302865D01*
X692678Y306544D01*
X691243Y310009D01*
X689159Y313127D01*
X686507Y315779D01*
X683389Y317863D01*
X679924Y319298D01*
X676245Y320030D01*
D02*
G37*
G36*
X1551404Y285906D02*
X1548628D01*
X1545948Y285188D01*
X1543544Y283800D01*
X1541582Y281838D01*
X1540638Y280204D01*
X1539394D01*
X1538450Y281838D01*
X1536488Y283800D01*
X1534084Y285188D01*
X1531404Y285906D01*
X1528628D01*
X1525948Y285188D01*
X1523544Y283800D01*
X1521582Y281838D01*
X1520638Y280204D01*
X1519394D01*
X1518450Y281838D01*
X1516488Y283800D01*
X1514084Y285188D01*
X1511404Y285906D01*
X1508629D01*
X1505948Y285188D01*
X1503544Y283800D01*
X1501582Y281838D01*
X1500639Y280204D01*
X1499394D01*
X1498450Y281838D01*
X1496488Y283800D01*
X1494084Y285188D01*
X1491404Y285906D01*
X1488629D01*
X1485948Y285188D01*
X1483544Y283800D01*
X1481582Y281838D01*
X1480194Y279434D01*
X1479476Y276754D01*
Y273978D01*
X1480194Y271298D01*
X1481582Y268894D01*
X1483544Y266932D01*
X1485948Y265544D01*
X1488629Y264826D01*
X1491404D01*
X1494084Y265544D01*
X1496488Y266932D01*
X1498450Y268894D01*
X1499394Y270528D01*
X1500639D01*
X1501582Y268894D01*
X1503544Y266932D01*
X1505948Y265544D01*
X1508629Y264826D01*
X1511404D01*
X1514084Y265544D01*
X1516488Y266932D01*
X1518450Y268894D01*
X1519394Y270528D01*
X1520638D01*
X1521582Y268894D01*
X1523544Y266932D01*
X1525948Y265544D01*
X1528628Y264826D01*
X1531404D01*
X1534084Y265544D01*
X1536488Y266932D01*
X1538450Y268894D01*
X1539394Y270528D01*
X1540638D01*
X1541582Y268894D01*
X1543544Y266932D01*
X1545948Y265544D01*
X1548628Y264826D01*
X1551404D01*
X1554084Y265544D01*
X1556488Y266932D01*
X1558450Y268894D01*
X1559838Y271298D01*
X1560556Y273978D01*
Y276754D01*
X1559838Y279434D01*
X1558450Y281838D01*
X1556488Y283800D01*
X1554084Y285188D01*
X1551404Y285906D01*
D02*
G37*
G36*
X1598265Y317490D02*
X1594515D01*
X1590836Y316758D01*
X1587371Y315323D01*
X1584253Y313239D01*
X1581601Y310587D01*
X1579517Y307469D01*
X1578082Y304004D01*
X1577350Y300325D01*
Y296575D01*
X1578082Y292896D01*
X1579517Y289431D01*
X1581601Y286313D01*
X1584253Y283661D01*
X1587371Y281577D01*
X1590836Y280142D01*
X1594515Y279410D01*
X1598265D01*
X1601944Y280142D01*
X1605409Y281577D01*
X1608527Y283661D01*
X1611179Y286313D01*
X1613263Y289431D01*
X1614698Y292896D01*
X1615430Y296575D01*
Y300325D01*
X1614698Y304004D01*
X1613263Y307469D01*
X1611179Y310587D01*
X1608527Y313239D01*
X1605409Y315323D01*
X1601944Y316758D01*
X1598265Y317490D01*
D02*
G37*
G36*
X1429258Y280054D02*
Y276352D01*
X1432961D01*
X1432295Y277960D01*
X1430866Y279389D01*
X1429258Y280054D01*
D02*
G37*
G36*
X1426718D02*
X1425110Y279389D01*
X1423681Y277960D01*
X1423015Y276352D01*
X1426718D01*
Y280054D01*
D02*
G37*
G36*
X1432961Y273812D02*
X1429258D01*
Y270110D01*
X1430866Y270775D01*
X1432295Y272204D01*
X1432961Y273812D01*
D02*
G37*
G36*
X1426718D02*
X1423015D01*
X1423681Y272204D01*
X1425110Y270775D01*
X1426718Y270110D01*
Y273812D01*
D02*
G37*
%LPD*%
G36*
X932434Y493014D02*
X904240D01*
Y523748D01*
X932434D01*
Y493014D01*
D02*
G37*
%LPC*%
G36*
X920841Y520846D02*
X919233Y520181D01*
X917804Y518752D01*
X917315Y517570D01*
X916148D01*
X915659Y518752D01*
X914230Y520181D01*
X912622Y520846D01*
Y515874D01*
Y510901D01*
X914230Y511567D01*
X915659Y512996D01*
X916148Y514178D01*
X917315D01*
X917804Y512996D01*
X919233Y511567D01*
X920841Y510901D01*
Y515874D01*
Y520846D01*
D02*
G37*
G36*
X923381D02*
Y517144D01*
X927083D01*
X926417Y518752D01*
X924988Y520181D01*
X923381Y520846D01*
D02*
G37*
G36*
X910082D02*
X908474Y520181D01*
X907045Y518752D01*
X906379Y517144D01*
X910082D01*
Y520846D01*
D02*
G37*
G36*
X927083Y514604D02*
X923381D01*
Y510901D01*
X924988Y511567D01*
X926417Y512996D01*
X927083Y514604D01*
D02*
G37*
G36*
X910082D02*
X906379D01*
X907045Y512996D01*
X908474Y511567D01*
X910082Y510901D01*
Y514604D01*
D02*
G37*
G36*
X912622Y505877D02*
Y502175D01*
X916324D01*
X915659Y503782D01*
X914230Y505211D01*
X912622Y505877D01*
D02*
G37*
G36*
X910082D02*
X908474Y505211D01*
X907045Y503782D01*
X906379Y502175D01*
X910082D01*
Y505877D01*
D02*
G37*
G36*
X924651Y505805D02*
Y502102D01*
X928353D01*
X927687Y503710D01*
X926258Y505139D01*
X924651Y505805D01*
D02*
G37*
G36*
X922111D02*
X920503Y505139D01*
X919074Y503710D01*
X918408Y502102D01*
X922111D01*
Y505805D01*
D02*
G37*
G36*
X916324Y499635D02*
X912622D01*
Y495932D01*
X914230Y496598D01*
X915659Y498027D01*
X916324Y499635D01*
D02*
G37*
G36*
X910082D02*
X906379D01*
X907045Y498027D01*
X908474Y496598D01*
X910082Y495932D01*
Y499635D01*
D02*
G37*
G36*
X928353Y499562D02*
X924651D01*
Y495860D01*
X926258Y496526D01*
X927687Y497955D01*
X928353Y499562D01*
D02*
G37*
G36*
X922111D02*
X918408D01*
X919074Y497955D01*
X920503Y496526D01*
X922111Y495860D01*
Y499562D01*
D02*
G37*
%LPD*%
D61*
X1490016Y275366D02*
D03*
X1510016D02*
D03*
X1550016D02*
D03*
X1530016D02*
D03*
D64*
X1504950Y340360D02*
D03*
X1606550Y391160D02*
D03*
X1530350D02*
D03*
X1504950D02*
D03*
X1606550Y340360D02*
D03*
X1530350D02*
D03*
D65*
X699267Y496788D02*
D03*
Y438790D02*
D03*
D69*
X1596390Y298450D02*
D03*
X674370Y300990D02*
D03*
Y814070D02*
D03*
X1596390D02*
D03*
D70*
X1426718Y510286D02*
D03*
X1411478Y510032D02*
D03*
X1438148Y498856D02*
D03*
X1398524Y510037D02*
D03*
D71*
X1379982Y356870D02*
D03*
X1442974Y423672D02*
D03*
X1439672Y343154D02*
D03*
X1441450Y356870D02*
D03*
X1172210Y643890D02*
D03*
X1164255Y605455D02*
D03*
X1165860Y532130D02*
D03*
X1170300Y461989D02*
D03*
X1141925Y644225D02*
D03*
Y657352D02*
D03*
X680466Y784352D02*
D03*
X1330125Y786820D02*
D03*
X1216660Y306324D02*
D03*
X1221740Y446582D02*
D03*
X1387348Y498856D02*
D03*
X1427988Y275082D02*
D03*
X1018540Y720030D02*
D03*
X1004540D02*
D03*
X990540D02*
D03*
Y734030D02*
D03*
X1004540D02*
D03*
X1018540D02*
D03*
Y748030D02*
D03*
X1004540D02*
D03*
X990540D02*
D03*
X1223010Y279146D02*
D03*
X1298712Y293133D02*
D03*
X1347470Y342138D02*
D03*
X1360251Y349331D02*
D03*
X1290320Y344170D02*
D03*
X1289558Y331470D02*
D03*
X920242Y487680D02*
D03*
X1037590Y465836D02*
D03*
X1024382D02*
D03*
X1011174D02*
D03*
X1037590Y478663D02*
D03*
X1024382D02*
D03*
X1011174D02*
D03*
X1037590Y491490D02*
D03*
X1024382D02*
D03*
X1011174D02*
D03*
X888091Y834751D02*
D03*
X873506Y732536D02*
D03*
X982980Y573532D02*
D03*
X946089Y555060D02*
D03*
X976122Y554990D02*
D03*
X966470D02*
D03*
X916686Y599440D02*
D03*
X1187196Y261112D02*
D03*
X1141210Y560176D02*
D03*
X723627Y418103D02*
D03*
X729309Y510869D02*
D03*
X718312Y544322D02*
D03*
X1342390Y788924D02*
D03*
X874268Y656880D02*
D03*
X938784Y601218D02*
D03*
X923381Y500832D02*
D03*
X911352Y515874D02*
D03*
Y500905D02*
D03*
X1100374Y642066D02*
D03*
X1109980Y651510D02*
D03*
X1066173Y646384D02*
D03*
X1212850Y789940D02*
D03*
X1052921Y646431D02*
D03*
X922111Y515874D02*
D03*
X1041400Y646430D02*
D03*
X1016000D02*
D03*
X1028700D02*
D03*
X1003300D02*
D03*
X977900D02*
D03*
X965200D02*
D03*
X990600D02*
D03*
X929386Y456184D02*
D03*
X1005078Y437134D02*
D03*
X1065784Y425196D02*
D03*
X1092708Y532892D02*
D03*
X1071372Y517652D02*
D03*
X1070356Y528320D02*
D03*
X1095004Y468630D02*
D03*
X1450594Y788670D02*
D03*
X1616710Y500634D02*
D03*
X1232762Y790348D02*
D03*
X1172210Y605790D02*
D03*
X1243330Y789940D02*
D03*
X1223010D02*
D03*
X1121410Y779780D02*
D03*
X1281853Y344170D02*
D03*
X1273387D02*
D03*
X1264920D02*
D03*
X1440180Y788670D02*
D03*
X756920Y618490D02*
D03*
X764540Y565150D02*
D03*
X1040130Y822025D02*
D03*
X770890Y508000D02*
D03*
X1294892Y772160D02*
D03*
X1121410Y755650D02*
D03*
X1149350Y831850D02*
D03*
X1118870Y642620D02*
D03*
X952500Y822025D02*
D03*
X1013125D02*
D03*
X1000425D02*
D03*
X1028700D02*
D03*
X1079500D02*
D03*
D72*
X1066391Y509016D02*
D03*
X887800Y523038D02*
D03*
X867410Y537698D02*
D03*
X863096Y543261D02*
D03*
X1051560Y549910D02*
D03*
X1042670D02*
D03*
X788670Y431350D02*
D03*
Y461010D02*
D03*
X890567Y476120D02*
D03*
X884936Y469392D02*
D03*
X883920Y515620D02*
D03*
X1137920Y528066D02*
D03*
X788670Y473710D02*
D03*
Y444500D02*
D03*
X891540Y656590D02*
D03*
X811530Y651510D02*
D03*
Y640080D02*
D03*
X953770Y646720D02*
D03*
X1055247Y572770D02*
D03*
X1037713D02*
D03*
D73*
X842264Y366268D02*
D03*
X1098296Y366522D02*
D03*
X989838Y822198D02*
D03*
X1074166Y797306D02*
D03*
D80*
X1387348Y457200D02*
Y498856D01*
X1336548Y271272D02*
X1442974Y377698D01*
Y423672D01*
X1129284Y644711D02*
X1141925Y657352D01*
X1129284Y614172D02*
Y644711D01*
X1387348Y457200D02*
X1393190Y451358D01*
X1415288D01*
X1442974Y423672D01*
X1139962D02*
X1442974D01*
X725678Y274248D02*
Y313436D01*
X733552Y321310D01*
X725678Y274248D02*
X728654Y271272D01*
X1336548D01*
X733552Y321310D02*
X769621D01*
X1070356Y555244D02*
X1129284Y614172D01*
X1070356Y528320D02*
Y555244D01*
X922111Y584545D02*
X938784Y601218D01*
X922111Y515874D02*
Y584545D01*
X929386Y456184D02*
Y494827D01*
X923381Y500832D02*
X929386Y494827D01*
X948436Y437134D02*
X1005078D01*
X929386Y456184D02*
X948436Y437134D01*
X1005078D02*
X1017016Y425196D01*
X1065784D01*
X1095004Y454416D01*
Y468630D01*
X1088842Y500182D02*
X1095004Y494020D01*
Y468630D02*
Y494020D01*
X1088842Y500182D02*
Y522788D01*
X1083310Y528320D02*
X1088842Y522788D01*
X1070356Y528320D02*
X1083310D01*
X1095004Y468630D02*
X1139962Y423672D01*
X1625600Y509524D02*
Y746506D01*
X1450594Y788670D02*
X1583436D01*
X1625600Y746506D01*
X1616710Y500634D02*
X1625600Y509524D01*
D81*
X1439672Y343154D02*
X1456944D01*
X1477010Y363220D02*
Y538735D01*
X1428750D02*
X1477010D01*
X1456944Y343154D02*
X1477010Y363220D01*
X1402461Y565023D02*
X1428750Y538735D01*
X1402461Y565023D02*
Y692277D01*
X1379982Y714756D02*
X1402461Y692277D01*
X1327912Y714756D02*
X1379982D01*
D88*
X1603409Y665734D02*
D03*
Y614934D02*
D03*
X1477010Y589534D02*
D03*
Y614934D02*
D03*
Y640334D02*
D03*
Y665734D02*
D03*
X1578010Y538734D02*
D03*
X1552610D02*
D03*
X1477010Y538735D02*
D03*
X1603409Y691134D02*
D03*
Y640334D02*
D03*
Y538735D02*
D03*
Y716534D02*
D03*
Y589534D02*
D03*
X1477010Y691134D02*
D03*
Y716534D02*
D03*
Y564134D02*
D03*
X1603409D02*
D03*
X1201512Y587756D02*
D03*
Y638556D02*
D03*
X1327912Y663956D02*
D03*
Y638556D02*
D03*
Y613156D02*
D03*
Y587756D02*
D03*
X1226912Y714756D02*
D03*
X1252312D02*
D03*
X1327912Y714756D02*
D03*
X1201512Y613156D02*
D03*
Y562356D02*
D03*
Y714756D02*
D03*
Y536956D02*
D03*
Y663956D02*
D03*
X1327912Y562356D02*
D03*
Y689356D02*
D03*
Y536956D02*
D03*
X1201512Y689356D02*
D03*
D89*
X662468Y424539D02*
D03*
Y511038D02*
D03*
D90*
X704268Y424539D02*
D03*
Y511038D02*
D03*
D91*
X795020Y321310D02*
D03*
X845820D02*
D03*
X795020Y295910D02*
D03*
X769620D02*
D03*
X972820D02*
D03*
X769620Y321310D02*
D03*
X820420D02*
D03*
X1125220Y295910D02*
D03*
X1099820Y321310D02*
D03*
Y295910D02*
D03*
X1074420Y321310D02*
D03*
Y295910D02*
D03*
X1049020Y321310D02*
D03*
Y295910D02*
D03*
X1023620Y321310D02*
D03*
Y295910D02*
D03*
X998220Y321310D02*
D03*
Y295910D02*
D03*
X972820Y321310D02*
D03*
X947420D02*
D03*
Y295910D02*
D03*
X922020Y321310D02*
D03*
Y295910D02*
D03*
X896620Y321310D02*
D03*
Y295910D02*
D03*
X871220Y321310D02*
D03*
Y295910D02*
D03*
X845820D02*
D03*
X820420D02*
D03*
D92*
X1125220Y321310D02*
D03*
D93*
X857767Y543320D02*
G03*
X857767Y543244I5329J-58D01*
G01*
X1052921Y758281D02*
X1091406Y796766D01*
X1270286D01*
X1294665Y772387D02*
X1295427D01*
X1270286Y796766D02*
X1294665Y772387D01*
X1284701Y349789D02*
X1290320Y344170D01*
X858520Y611886D02*
X858836Y612202D01*
X857767Y543320D02*
X858520Y611886D01*
X858836Y308295D02*
X871220Y295910D01*
X858836Y612202D02*
X883666Y637032D01*
X857767Y543244D02*
X858520Y308610D01*
X858836Y308295D01*
X1001491Y285019D02*
X1266729D01*
X1281853Y300143D01*
X999086Y287424D02*
X1001491Y285019D01*
X900176Y596900D02*
X922274Y618998D01*
X900176Y400542D02*
Y596900D01*
X922274Y618998D02*
X1069359D01*
X1239954Y789593D01*
X917956Y624840D02*
X1067376D01*
X896112Y602996D02*
X917956Y624840D01*
X1067376D02*
X1232823Y790287D01*
X902462Y629666D02*
X1062736D01*
X1223010Y789940D01*
X873760Y600964D02*
X902462Y629666D01*
X1064768Y637032D02*
X1124014Y696277D01*
X883666Y637032D02*
X1064768D01*
X896112Y384810D02*
Y602996D01*
X873760Y381254D02*
Y600964D01*
X900176Y400542D02*
X935990Y364728D01*
X896112Y384810D02*
X909320Y371602D01*
Y308610D02*
Y371602D01*
X935990Y307340D02*
Y364728D01*
X873760Y381254D02*
X885190Y369824D01*
Y307340D02*
Y369824D01*
X1242983Y789593D02*
X1243330Y789940D01*
X909320Y308610D02*
X922020Y295910D01*
X1239954Y789593D02*
X1242983D01*
X1124268Y696277D02*
X1212850Y784860D01*
Y789940D01*
X1124014Y696277D02*
X1124268D01*
X1052921Y646431D02*
Y758281D01*
X935990Y307340D02*
X947420Y295910D01*
X885190Y307340D02*
X896620Y295910D01*
X1281853Y300143D02*
Y344170D01*
X1265767Y336550D02*
X1273387Y344170D01*
X1005840Y336550D02*
X1265767D01*
X999086Y329796D02*
X1005840Y336550D01*
X998220Y295910D02*
X999086Y295044D01*
Y287424D02*
Y295044D01*
X998220Y321310D02*
X999086Y322176D01*
Y329796D01*
X980440Y344170D02*
X1264920D01*
X972820Y336550D02*
X980440Y344170D01*
X972820Y321310D02*
Y336550D01*
X947420Y321310D02*
Y332740D01*
X964469Y349789D01*
X1284701D01*
D94*
X1259586Y683260D02*
X1318259Y741934D01*
X1400810D01*
X1238758Y683260D02*
X1259586D01*
X1219454Y663956D02*
X1238758Y683260D01*
X1252474Y584199D02*
Y631698D01*
X1220216Y663956D02*
X1252474Y631698D01*
Y584199D02*
X1274318Y562356D01*
X1322578Y808736D02*
X1342390Y788924D01*
X680466Y784352D02*
X704850Y808736D01*
X1322578D01*
X679704Y783590D02*
X680466Y784352D01*
X679704Y582929D02*
Y783590D01*
Y582929D02*
X718311Y544322D01*
X1221148Y447174D02*
Y455592D01*
X1527524Y690911D02*
X1553210Y665226D01*
X1221148Y455592D02*
X1327912Y562356D01*
X1342390Y788923D02*
X1353820D01*
X1201513Y663956D02*
X1219454D01*
X1221148Y447174D02*
X1221740Y446582D01*
X1219454Y663956D02*
X1220216D01*
X1400810Y741934D02*
X1451610Y691134D01*
X749046Y435610D02*
X820420Y364236D01*
Y321310D02*
Y364236D01*
X1274318Y562356D02*
X1327911D01*
X718312Y544322D02*
X749046Y513587D01*
X1451610Y691134D02*
X1477009D01*
X749046Y435610D02*
Y513587D01*
X1553210Y605028D02*
Y665226D01*
Y605028D02*
X1568704Y589534D01*
X1603409D01*
X1353820Y788923D02*
X1400810Y741934D01*
X1477233Y690911D02*
X1527524D01*
M02*
