G04*
G04 #@! TF.GenerationSoftware,Altium Limited,Altium Designer,26.5.0 (11)*
G04*
G04 Layer_Color=8421504*
G04 Board_Origin=0|0*
%FSLAX44Y44*%
%MOMM*%
G71*
G04*
G04 #@! TF.SameCoordinates,A90659DB-F331-4761-9575-B882DE05BAF6*
G04*
G04*
G04 #@! TF.FilePolarity,Positive*
G04*
G01*
G75*
%ADD18R,1.0121X1.0587*%
%ADD19R,0.9000X0.8000*%
G04:AMPARAMS|DCode=20|XSize=1mm|YSize=0.65mm|CornerRadius=0.0813mm|HoleSize=0mm|Usage=FLASHONLY|Rotation=270.000|XOffset=0mm|YOffset=0mm|HoleType=Round|Shape=RoundedRectangle|*
%AMROUNDEDRECTD20*
21,1,1.0000,0.4875,0,0,270.0*
21,1,0.8375,0.6500,0,0,270.0*
1,1,0.1625,-0.2438,-0.4188*
1,1,0.1625,-0.2438,0.4188*
1,1,0.1625,0.2438,0.4188*
1,1,0.1625,0.2438,-0.4188*
%
%ADD20ROUNDEDRECTD20*%
%ADD21R,2.0000X1.8000*%
%ADD22R,0.6000X1.5500*%
%ADD23R,1.2000X1.8000*%
%ADD24R,2.5000X1.1000*%
%ADD25R,0.9398X1.2320*%
%ADD26R,0.9398X2.0320*%
%ADD27C,1.7000*%
%ADD28R,1.0587X1.0121*%
%ADD29R,0.4000X0.6000*%
%ADD30R,5.6000X2.1000*%
%ADD31R,1.0000X1.2500*%
%ADD32R,0.9000X1.5000*%
%ADD33R,1.5000X0.9000*%
%ADD34R,0.9000X0.9000*%
%ADD35R,1.6000X3.2000*%
%ADD36R,0.4826X0.6096*%
%ADD37R,0.8000X0.9000*%
%ADD38R,2.3456X2.3456*%
G04:AMPARAMS|DCode=39|XSize=0.26mm|YSize=1.13mm|CornerRadius=0.091mm|HoleSize=0mm|Usage=FLASHONLY|Rotation=0.000|XOffset=0mm|YOffset=0mm|HoleType=Round|Shape=RoundedRectangle|*
%AMROUNDEDRECTD39*
21,1,0.2600,0.9480,0,0,0.0*
21,1,0.0780,1.1300,0,0,0.0*
1,1,0.1820,0.0390,-0.4740*
1,1,0.1820,-0.0390,-0.4740*
1,1,0.1820,-0.0390,0.4740*
1,1,0.1820,0.0390,0.4740*
%
%ADD39ROUNDEDRECTD39*%
%ADD40R,0.6096X0.4826*%
G04:AMPARAMS|DCode=41|XSize=1.13mm|YSize=0.26mm|CornerRadius=0.091mm|HoleSize=0mm|Usage=FLASHONLY|Rotation=0.000|XOffset=0mm|YOffset=0mm|HoleType=Round|Shape=RoundedRectangle|*
%AMROUNDEDRECTD41*
21,1,1.1300,0.0780,0,0,0.0*
21,1,0.9480,0.2600,0,0,0.0*
1,1,0.1820,0.4740,-0.0390*
1,1,0.1820,-0.4740,-0.0390*
1,1,0.1820,-0.4740,0.0390*
1,1,0.1820,0.4740,0.0390*
%
%ADD41ROUNDEDRECTD41*%
G04:AMPARAMS|DCode=42|XSize=2.15mm|YSize=1.48mm|CornerRadius=0.185mm|HoleSize=0mm|Usage=FLASHONLY|Rotation=0.000|XOffset=0mm|YOffset=0mm|HoleType=Round|Shape=RoundedRectangle|*
%AMROUNDEDRECTD42*
21,1,2.1500,1.1100,0,0,0.0*
21,1,1.7800,1.4800,0,0,0.0*
1,1,0.3700,0.8900,-0.5550*
1,1,0.3700,-0.8900,-0.5550*
1,1,0.3700,-0.8900,0.5550*
1,1,0.3700,0.8900,0.5550*
%
%ADD42ROUNDEDRECTD42*%
%ADD43R,0.4550X0.8450*%
%ADD44R,1.2500X1.0000*%
G36*
X881730Y564907D02*
Y562266D01*
X881490Y562025D01*
X878730D01*
X878490Y562266D01*
Y564907D01*
X878730Y565147D01*
X881490D01*
X881730Y564907D01*
D02*
G37*
G36*
X870300D02*
Y562266D01*
X870060Y562025D01*
X867300D01*
X867060Y562266D01*
Y564907D01*
X867300Y565147D01*
X870060D01*
X870300Y564907D01*
D02*
G37*
G36*
X881730Y560165D02*
Y557524D01*
X881490Y557284D01*
X878730D01*
X878490Y557524D01*
Y560165D01*
X878730Y560406D01*
X881490D01*
X881730Y560165D01*
D02*
G37*
G36*
X870300D02*
Y557524D01*
X870060Y557284D01*
X867300D01*
X867060Y557524D01*
Y560165D01*
X867300Y560406D01*
X870060D01*
X870300Y560165D01*
D02*
G37*
G36*
X708567Y517033D02*
X708866Y517010D01*
X709163Y516973D01*
X709457Y516921D01*
X709749Y516854D01*
X710037Y516773D01*
X710320Y516678D01*
X710599Y516569D01*
X710872Y516446D01*
X711138Y516309D01*
X711397Y516160D01*
X711648Y515997D01*
X711891Y515823D01*
X712125Y515636D01*
X712349Y515438D01*
X712563Y515229D01*
X712767Y515010D01*
X712959Y514781D01*
X713140Y514542D01*
X713308Y514295D01*
X713464Y514040D01*
X713608Y513777D01*
X713737Y513507D01*
X713854Y513232D01*
X713956Y512951D01*
X714044Y512665D01*
X714118Y512375D01*
X714177Y512082D01*
X714222Y511786D01*
X714252Y511488D01*
X714267Y511189D01*
Y510890D01*
X714252Y510592D01*
X714222Y510294D01*
X714177Y509998D01*
X714118Y509705D01*
X714044Y509415D01*
X713956Y509129D01*
X713854Y508848D01*
X713737Y508572D01*
X713608Y508302D01*
X713464Y508040D01*
X713308Y507785D01*
X713140Y507537D01*
X712959Y507299D01*
X712767Y507070D01*
X712563Y506850D01*
X712349Y506642D01*
X712125Y506443D01*
X711891Y506257D01*
X711648Y506083D01*
X711397Y505920D01*
X711138Y505771D01*
X710872Y505634D01*
X710599Y505511D01*
X710320Y505402D01*
X710037Y505306D01*
X709749Y505225D01*
X709457Y505159D01*
X709163Y505107D01*
X708866Y505070D01*
X708567Y505047D01*
X708268Y505040D01*
X700268D01*
X699969Y505047D01*
X699671Y505070D01*
X699374Y505107D01*
X699079Y505159D01*
X698788Y505225D01*
X698500Y505306D01*
X698216Y505402D01*
X697938Y505511D01*
X697665Y505634D01*
X697399Y505771D01*
X697140Y505920D01*
X696888Y506083D01*
X696646Y506257D01*
X696412Y506443D01*
X696187Y506642D01*
X695973Y506850D01*
X695770Y507070D01*
X695577Y507299D01*
X695397Y507537D01*
X695228Y507785D01*
X695072Y508040D01*
X694929Y508302D01*
X694799Y508572D01*
X694683Y508848D01*
X694581Y509129D01*
X694493Y509415D01*
X694419Y509705D01*
X694360Y509998D01*
X694315Y510294D01*
X694285Y510592D01*
X694270Y510890D01*
Y511189D01*
X694285Y511488D01*
X694315Y511786D01*
X694360Y512082D01*
X694419Y512375D01*
X694493Y512665D01*
X694581Y512951D01*
X694683Y513232D01*
X694799Y513507D01*
X694929Y513777D01*
X695072Y514040D01*
X695228Y514295D01*
X695397Y514542D01*
X695577Y514781D01*
X695770Y515010D01*
X695973Y515229D01*
X696187Y515438D01*
X696412Y515636D01*
X696646Y515823D01*
X696888Y515997D01*
X697140Y516160D01*
X697399Y516309D01*
X697665Y516446D01*
X697938Y516569D01*
X698216Y516678D01*
X698500Y516773D01*
X698788Y516854D01*
X699079Y516921D01*
X699374Y516973D01*
X699671Y517010D01*
X699969Y517033D01*
X700268Y517040D01*
X708268D01*
X708567Y517033D01*
D02*
G37*
G36*
X665768D02*
X666067Y517010D01*
X666364Y516973D01*
X666658Y516921D01*
X666950Y516854D01*
X667238Y516773D01*
X667521Y516678D01*
X667800Y516569D01*
X668073Y516446D01*
X668339Y516309D01*
X668598Y516160D01*
X668849Y515997D01*
X669092Y515823D01*
X669326Y515636D01*
X669550Y515438D01*
X669764Y515229D01*
X669968Y515010D01*
X670160Y514781D01*
X670341Y514542D01*
X670509Y514295D01*
X670665Y514040D01*
X670809Y513777D01*
X670938Y513507D01*
X671055Y513232D01*
X671157Y512951D01*
X671245Y512665D01*
X671319Y512375D01*
X671378Y512082D01*
X671423Y511786D01*
X671453Y511488D01*
X671468Y511189D01*
Y510890D01*
X671453Y510592D01*
X671423Y510294D01*
X671378Y509998D01*
X671319Y509705D01*
X671245Y509415D01*
X671157Y509129D01*
X671055Y508848D01*
X670938Y508572D01*
X670809Y508302D01*
X670665Y508040D01*
X670509Y507785D01*
X670341Y507537D01*
X670160Y507299D01*
X669968Y507070D01*
X669764Y506850D01*
X669550Y506642D01*
X669326Y506443D01*
X669092Y506257D01*
X668849Y506083D01*
X668598Y505920D01*
X668339Y505771D01*
X668073Y505634D01*
X667800Y505511D01*
X667521Y505402D01*
X667238Y505306D01*
X666950Y505225D01*
X666658Y505159D01*
X666364Y505107D01*
X666067Y505070D01*
X665768Y505047D01*
X665469Y505040D01*
X659469D01*
X659170Y505047D01*
X658872Y505070D01*
X658575Y505107D01*
X658280Y505159D01*
X657989Y505225D01*
X657701Y505306D01*
X657417Y505402D01*
X657139Y505511D01*
X656866Y505634D01*
X656600Y505771D01*
X656341Y505920D01*
X656089Y506083D01*
X655846Y506257D01*
X655613Y506443D01*
X655388Y506642D01*
X655174Y506850D01*
X654971Y507070D01*
X654779Y507299D01*
X654598Y507537D01*
X654429Y507785D01*
X654273Y508040D01*
X654130Y508302D01*
X654000Y508572D01*
X653884Y508848D01*
X653782Y509129D01*
X653694Y509415D01*
X653620Y509705D01*
X653560Y509998D01*
X653516Y510294D01*
X653486Y510592D01*
X653471Y510890D01*
Y511189D01*
X653486Y511488D01*
X653516Y511786D01*
X653560Y512082D01*
X653620Y512375D01*
X653694Y512665D01*
X653782Y512951D01*
X653884Y513232D01*
X654000Y513507D01*
X654130Y513777D01*
X654273Y514040D01*
X654429Y514295D01*
X654598Y514542D01*
X654779Y514781D01*
X654971Y515010D01*
X655174Y515229D01*
X655388Y515438D01*
X655613Y515636D01*
X655846Y515823D01*
X656089Y515997D01*
X656341Y516160D01*
X656600Y516309D01*
X656866Y516446D01*
X657139Y516569D01*
X657417Y516678D01*
X657701Y516773D01*
X657989Y516854D01*
X658280Y516921D01*
X658575Y516973D01*
X658872Y517010D01*
X659170Y517033D01*
X659469Y517040D01*
X665469D01*
X665768Y517033D01*
D02*
G37*
G36*
X718451Y499788D02*
X718453D01*
Y496788D01*
X705452D01*
Y499788D01*
X705451D01*
Y502788D01*
X718451D01*
Y499788D01*
D02*
G37*
G36*
X718451Y491789D02*
X718451D01*
Y488788D01*
X705452D01*
Y491788D01*
X705451D01*
Y494788D01*
X718451D01*
Y491789D01*
D02*
G37*
G36*
X718453Y483789D02*
X705452D01*
Y486789D01*
X718453D01*
Y483789D01*
D02*
G37*
G36*
Y478788D02*
X705452D01*
Y481788D01*
X718453D01*
Y478788D01*
D02*
G37*
G36*
X718453Y473789D02*
X705452D01*
Y476789D01*
X718453D01*
Y473789D01*
D02*
G37*
G36*
X807966Y475090D02*
Y472330D01*
X807726Y472090D01*
X805085D01*
X804845Y472330D01*
Y475090D01*
X805085Y475330D01*
X807726D01*
X807966Y475090D01*
D02*
G37*
G36*
X803224D02*
Y472330D01*
X802984Y472090D01*
X800343D01*
X800103Y472330D01*
Y475090D01*
X800343Y475330D01*
X802984D01*
X803224Y475090D01*
D02*
G37*
G36*
X718453Y468788D02*
X705452D01*
Y471788D01*
X718453D01*
Y468788D01*
D02*
G37*
G36*
X718453Y463789D02*
X705452D01*
Y466789D01*
X718453D01*
Y463789D01*
D02*
G37*
G36*
X718453Y458788D02*
X705452D01*
Y461788D01*
X718453D01*
Y458788D01*
D02*
G37*
G36*
X807966Y461735D02*
Y458975D01*
X807726Y458735D01*
X805085D01*
X804845Y458975D01*
Y461735D01*
X805085Y461975D01*
X807726D01*
X807966Y461735D01*
D02*
G37*
G36*
X803224D02*
Y458975D01*
X802984Y458735D01*
X800343D01*
X800103Y458975D01*
Y461735D01*
X800343Y461975D01*
X802984D01*
X803224Y461735D01*
D02*
G37*
G36*
X718453Y453792D02*
X705452D01*
Y456792D01*
X718453D01*
Y453792D01*
D02*
G37*
G36*
Y448788D02*
X705452D01*
Y451788D01*
X718453D01*
Y448788D01*
D02*
G37*
G36*
X807966Y445976D02*
Y443216D01*
X807726Y442976D01*
X805085D01*
X804845Y443216D01*
Y445976D01*
X805085Y446216D01*
X807726D01*
X807966Y445976D01*
D02*
G37*
G36*
X803224D02*
Y443216D01*
X802984Y442976D01*
X800343D01*
X800103Y443216D01*
Y445976D01*
X800343Y446216D01*
X802984D01*
X803224Y445976D01*
D02*
G37*
G36*
X718453Y443787D02*
Y443787D01*
Y440787D01*
X705453D01*
Y443787D01*
Y443787D01*
Y446787D01*
X718453D01*
Y443787D01*
D02*
G37*
G36*
Y435789D02*
Y435789D01*
Y432789D01*
X705453D01*
Y435789D01*
Y435789D01*
Y438789D01*
X718453D01*
Y435789D01*
D02*
G37*
G36*
X807962Y433276D02*
Y430516D01*
X807722Y430276D01*
X805081D01*
X804841Y430516D01*
Y433276D01*
X805081Y433516D01*
X807722D01*
X807962Y433276D01*
D02*
G37*
G36*
X803221D02*
Y430516D01*
X802981Y430276D01*
X800340D01*
X800100Y430516D01*
Y433276D01*
X800340Y433516D01*
X802981D01*
X803221Y433276D01*
D02*
G37*
G36*
X708567Y430530D02*
X708866Y430508D01*
X709163Y430471D01*
X709457Y430419D01*
X709749Y430352D01*
X710037Y430271D01*
X710320Y430176D01*
X710599Y430066D01*
X710872Y429944D01*
X711138Y429807D01*
X711397Y429657D01*
X711648Y429495D01*
X711891Y429320D01*
X712125Y429134D01*
X712349Y428936D01*
X712563Y428727D01*
X712767Y428508D01*
X712959Y428279D01*
X713140Y428040D01*
X713308Y427793D01*
X713464Y427538D01*
X713608Y427275D01*
X713737Y427005D01*
X713854Y426730D01*
X713956Y426449D01*
X714044Y426163D01*
X714118Y425873D01*
X714177Y425579D01*
X714222Y425284D01*
X714252Y424986D01*
X714267Y424687D01*
Y424388D01*
X714252Y424089D01*
X714222Y423792D01*
X714177Y423496D01*
X714118Y423203D01*
X714044Y422912D01*
X713956Y422627D01*
X713854Y422346D01*
X713737Y422070D01*
X713608Y421800D01*
X713464Y421538D01*
X713308Y421282D01*
X713140Y421035D01*
X712959Y420797D01*
X712767Y420568D01*
X712563Y420348D01*
X712349Y420139D01*
X712125Y419941D01*
X711891Y419755D01*
X711648Y419580D01*
X711397Y419418D01*
X711138Y419268D01*
X710872Y419132D01*
X710599Y419009D01*
X710320Y418900D01*
X710037Y418804D01*
X709749Y418723D01*
X709457Y418657D01*
X709163Y418605D01*
X708866Y418567D01*
X708567Y418545D01*
X708268Y418538D01*
X700268D01*
X699969Y418545D01*
X699671Y418567D01*
X699374Y418605D01*
X699079Y418657D01*
X698788Y418723D01*
X698500Y418804D01*
X698216Y418900D01*
X697938Y419009D01*
X697665Y419132D01*
X697399Y419268D01*
X697140Y419418D01*
X696888Y419580D01*
X696646Y419755D01*
X696412Y419941D01*
X696187Y420139D01*
X695973Y420348D01*
X695770Y420568D01*
X695577Y420797D01*
X695397Y421035D01*
X695228Y421282D01*
X695072Y421538D01*
X694929Y421800D01*
X694799Y422070D01*
X694683Y422346D01*
X694581Y422627D01*
X694493Y422912D01*
X694419Y423203D01*
X694360Y423496D01*
X694315Y423792D01*
X694285Y424089D01*
X694270Y424388D01*
Y424687D01*
X694285Y424986D01*
X694315Y425284D01*
X694360Y425579D01*
X694419Y425873D01*
X694493Y426163D01*
X694581Y426449D01*
X694683Y426730D01*
X694799Y427005D01*
X694929Y427275D01*
X695072Y427538D01*
X695228Y427793D01*
X695397Y428040D01*
X695577Y428279D01*
X695770Y428508D01*
X695973Y428727D01*
X696187Y428936D01*
X696412Y429134D01*
X696646Y429320D01*
X696888Y429495D01*
X697140Y429657D01*
X697399Y429807D01*
X697665Y429944D01*
X697938Y430066D01*
X698216Y430176D01*
X698500Y430271D01*
X698788Y430352D01*
X699079Y430419D01*
X699374Y430471D01*
X699671Y430508D01*
X699969Y430530D01*
X700268Y430538D01*
X708268D01*
X708567Y430530D01*
D02*
G37*
G36*
X665768D02*
X666067Y430508D01*
X666364Y430471D01*
X666658Y430419D01*
X666950Y430352D01*
X667238Y430271D01*
X667521Y430176D01*
X667800Y430066D01*
X668073Y429944D01*
X668339Y429807D01*
X668598Y429657D01*
X668849Y429495D01*
X669092Y429320D01*
X669326Y429134D01*
X669550Y428936D01*
X669764Y428727D01*
X669968Y428508D01*
X670160Y428279D01*
X670341Y428040D01*
X670509Y427793D01*
X670665Y427538D01*
X670809Y427275D01*
X670938Y427005D01*
X671055Y426730D01*
X671157Y426449D01*
X671245Y426163D01*
X671319Y425873D01*
X671378Y425579D01*
X671423Y425284D01*
X671453Y424986D01*
X671468Y424687D01*
Y424388D01*
X671453Y424089D01*
X671423Y423792D01*
X671378Y423496D01*
X671319Y423203D01*
X671245Y422912D01*
X671157Y422627D01*
X671055Y422346D01*
X670938Y422070D01*
X670809Y421800D01*
X670665Y421538D01*
X670509Y421282D01*
X670341Y421035D01*
X670160Y420797D01*
X669968Y420568D01*
X669764Y420348D01*
X669550Y420139D01*
X669326Y419941D01*
X669092Y419755D01*
X668849Y419580D01*
X668598Y419418D01*
X668339Y419268D01*
X668073Y419132D01*
X667800Y419009D01*
X667521Y418900D01*
X667238Y418804D01*
X666950Y418723D01*
X666658Y418657D01*
X666364Y418605D01*
X666067Y418567D01*
X665768Y418545D01*
X665469Y418538D01*
X659469D01*
X659170Y418545D01*
X658872Y418567D01*
X658575Y418605D01*
X658280Y418657D01*
X657989Y418723D01*
X657701Y418804D01*
X657417Y418900D01*
X657139Y419009D01*
X656866Y419132D01*
X656600Y419268D01*
X656341Y419418D01*
X656089Y419580D01*
X655846Y419755D01*
X655613Y419941D01*
X655388Y420139D01*
X655174Y420348D01*
X654971Y420568D01*
X654779Y420797D01*
X654598Y421035D01*
X654429Y421282D01*
X654273Y421538D01*
X654130Y421800D01*
X654000Y422070D01*
X653884Y422346D01*
X653782Y422627D01*
X653694Y422912D01*
X653620Y423203D01*
X653560Y423496D01*
X653516Y423792D01*
X653486Y424089D01*
X653471Y424388D01*
Y424687D01*
X653486Y424986D01*
X653516Y425284D01*
X653560Y425579D01*
X653620Y425873D01*
X653694Y426163D01*
X653782Y426449D01*
X653884Y426730D01*
X654000Y427005D01*
X654130Y427275D01*
X654273Y427538D01*
X654429Y427793D01*
X654598Y428040D01*
X654779Y428279D01*
X654971Y428508D01*
X655174Y428727D01*
X655388Y428936D01*
X655613Y429134D01*
X655846Y429320D01*
X656089Y429495D01*
X656341Y429657D01*
X656600Y429807D01*
X656866Y429944D01*
X657139Y430066D01*
X657417Y430176D01*
X657701Y430271D01*
X657989Y430352D01*
X658280Y430419D01*
X658575Y430471D01*
X658872Y430508D01*
X659170Y430530D01*
X659469Y430538D01*
X665469D01*
X665768Y430530D01*
D02*
G37*
D18*
X1098296Y378075D02*
D03*
Y395609D02*
D03*
X842264Y385441D02*
D03*
Y402975D02*
D03*
X1475220Y462403D02*
D03*
Y479937D02*
D03*
X1363557Y445770D02*
D03*
Y463304D02*
D03*
X1332230Y445770D02*
D03*
Y463304D02*
D03*
X1300903Y445770D02*
D03*
Y463304D02*
D03*
X1269577Y445770D02*
D03*
Y463304D02*
D03*
X847090Y819273D02*
D03*
Y836807D02*
D03*
X1154430Y497840D02*
D03*
Y448556D02*
D03*
X1131570D02*
D03*
X990600Y545854D02*
D03*
X755650Y486533D02*
D03*
X756920Y405253D02*
D03*
X1131570Y466090D02*
D03*
X755650Y504067D02*
D03*
X1129030Y657860D02*
D03*
X1084703Y512957D02*
D03*
X1107440Y466090D02*
D03*
Y448556D02*
D03*
X1084703Y495423D02*
D03*
X1154430Y466090D02*
D03*
Y515374D02*
D03*
X990600Y528320D02*
D03*
X1129030Y675394D02*
D03*
X1134110Y814070D02*
D03*
Y831604D02*
D03*
X756920Y422787D02*
D03*
D19*
X1444510Y687471D02*
D03*
Y701469D02*
D03*
X1301484Y555859D02*
D03*
Y541861D02*
D03*
X1141210Y571072D02*
D03*
Y585069D02*
D03*
X1012190Y546128D02*
D03*
X1129030Y495272D02*
D03*
X1108190Y508869D02*
D03*
X1082040Y457200D02*
D03*
X1029970Y546128D02*
D03*
X1033030Y410611D02*
D03*
X1013980D02*
D03*
X1052080D02*
D03*
X966470Y542318D02*
D03*
X946150D02*
D03*
X925830D02*
D03*
X965720Y490621D02*
D03*
X994930Y410611D02*
D03*
X945400Y490621D02*
D03*
X757440Y528721D02*
D03*
X1082040Y471198D02*
D03*
X1052080Y424608D02*
D03*
X1033030D02*
D03*
X966470Y528320D02*
D03*
X946150D02*
D03*
X965720Y504618D02*
D03*
X925830Y528320D02*
D03*
X945400Y504618D02*
D03*
X757440Y542719D02*
D03*
X994930Y424608D02*
D03*
X1029970Y532130D02*
D03*
X1108190Y494871D02*
D03*
X1013980Y424608D02*
D03*
X1012190Y532130D02*
D03*
X1129030Y509270D02*
D03*
D20*
X1468870Y404560D02*
D03*
X1478370Y428560D02*
D03*
X1459370D02*
D03*
D21*
X1470122Y373766D02*
D03*
Y331177D02*
D03*
D22*
X1347390Y292070D02*
D03*
X1337390D02*
D03*
X1288970D02*
D03*
X1278970D02*
D03*
X1226740D02*
D03*
X1216740D02*
D03*
X1440180Y809240D02*
D03*
X1450180D02*
D03*
X1430180D02*
D03*
X1332145D02*
D03*
X1342145D02*
D03*
X1322145D02*
D03*
X1243330Y808990D02*
D03*
X1233330D02*
D03*
X1223330D02*
D03*
X1213330D02*
D03*
D23*
X1360390Y266820D02*
D03*
X1324390D02*
D03*
X1301970D02*
D03*
X1265970D02*
D03*
X1239740D02*
D03*
X1203740D02*
D03*
X1417180Y847990D02*
D03*
X1463180D02*
D03*
X1309145D02*
D03*
X1355145D02*
D03*
X1200330Y847740D02*
D03*
X1256330D02*
D03*
D24*
X811009Y675875D02*
D03*
Y696195D02*
D03*
D25*
X819773Y592900D02*
D03*
Y779208D02*
D03*
X794373D02*
D03*
X768973D02*
D03*
X692773Y592900D02*
D03*
X718173D02*
D03*
X743573D02*
D03*
X768973D02*
D03*
X794373D02*
D03*
D26*
X832219Y775208D02*
D03*
X806819D02*
D03*
X781673D02*
D03*
X756273D02*
D03*
X730873D02*
D03*
X680073Y596900D02*
D03*
X705473D02*
D03*
X730873D02*
D03*
X756273D02*
D03*
X781673D02*
D03*
X806819D02*
D03*
X832219D02*
D03*
X680073Y775208D02*
D03*
X705473D02*
D03*
D27*
X720585Y698735D02*
D03*
Y673335D02*
D03*
X695185D02*
D03*
X669785Y698735D02*
D03*
Y673335D02*
D03*
X745985Y698735D02*
D03*
Y673335D02*
D03*
X695185Y698735D02*
D03*
D28*
X731643Y565150D02*
D03*
X749177D02*
D03*
X1332869Y772160D02*
D03*
X1315335D02*
D03*
X1074284Y545470D02*
D03*
X1528957Y443230D02*
D03*
X1571113D02*
D03*
X875153Y679450D02*
D03*
X945003Y403860D02*
D03*
Y378460D02*
D03*
Y457200D02*
D03*
Y431377D02*
D03*
X962537Y403860D02*
D03*
Y431377D02*
D03*
X1118993Y544830D02*
D03*
X1136527D02*
D03*
X1055247Y572770D02*
D03*
X1037713D02*
D03*
X962537Y378460D02*
D03*
Y457200D02*
D03*
X1091818Y545470D02*
D03*
X1588647Y443230D02*
D03*
X892687Y679450D02*
D03*
X1511423Y443230D02*
D03*
D29*
X734760Y468939D02*
D03*
Y483940D02*
D03*
X734760Y458161D02*
D03*
Y443160D02*
D03*
Y416251D02*
D03*
Y401250D02*
D03*
D30*
X1096520Y609600D02*
D03*
X1001520D02*
D03*
D31*
X886312Y744965D02*
D03*
Y822466D02*
D03*
X1152038Y704074D02*
D03*
Y781575D02*
D03*
D32*
X927340Y836530D02*
D03*
X940040D02*
D03*
X952740D02*
D03*
X965440D02*
D03*
X978140D02*
D03*
X990840D02*
D03*
X1003540D02*
D03*
X1016240D02*
D03*
X1028940D02*
D03*
X1041640D02*
D03*
X1054340D02*
D03*
X1067040D02*
D03*
X1079740D02*
D03*
X1092440D02*
D03*
Y661530D02*
D03*
X1079740D02*
D03*
X1067040D02*
D03*
X1054340D02*
D03*
X1041640D02*
D03*
X1028940D02*
D03*
X1016240D02*
D03*
X1003540D02*
D03*
X990840D02*
D03*
X978140D02*
D03*
X965440D02*
D03*
X952740D02*
D03*
X940040D02*
D03*
X927340D02*
D03*
D33*
X1104940Y818880D02*
D03*
Y806180D02*
D03*
Y793480D02*
D03*
Y780780D02*
D03*
Y768080D02*
D03*
Y755380D02*
D03*
Y742680D02*
D03*
Y729980D02*
D03*
Y717280D02*
D03*
Y704580D02*
D03*
Y691880D02*
D03*
Y679180D02*
D03*
D34*
X990540Y748030D02*
D03*
Y734030D02*
D03*
Y720030D02*
D03*
X1018540Y748030D02*
D03*
Y734030D02*
D03*
Y720030D02*
D03*
X1004540Y748030D02*
D03*
Y720030D02*
D03*
Y734030D02*
D03*
D35*
X1416050Y545230D02*
D03*
Y595230D02*
D03*
X1394460Y669690D02*
D03*
Y719690D02*
D03*
D36*
X1168654Y813562D02*
D03*
Y799084D02*
D03*
D37*
X1082881Y572020D02*
D03*
X999062Y574560D02*
D03*
X880511Y704330D02*
D03*
X924961Y617970D02*
D03*
Y635750D02*
D03*
X938959D02*
D03*
Y617970D02*
D03*
X1096879Y572020D02*
D03*
X1013059Y574560D02*
D03*
X894509Y704330D02*
D03*
D38*
X1024690Y477960D02*
D03*
D39*
X1009690Y449760D02*
D03*
X1029690Y506160D02*
D03*
X1039690D02*
D03*
X1029690Y449760D02*
D03*
X1004690Y506160D02*
D03*
Y449760D02*
D03*
X1009690Y506160D02*
D03*
X1014690D02*
D03*
X1019690D02*
D03*
X1024690D02*
D03*
X1034690D02*
D03*
X1044690D02*
D03*
Y449760D02*
D03*
X1039690D02*
D03*
X1034690D02*
D03*
X1024690D02*
D03*
X1019690D02*
D03*
X1014690D02*
D03*
D40*
X881888Y725424D02*
D03*
X896366D02*
D03*
D41*
X1052890Y482960D02*
D03*
Y477960D02*
D03*
X996490D02*
D03*
X1052890Y497960D02*
D03*
Y492960D02*
D03*
Y487960D02*
D03*
Y472960D02*
D03*
Y467960D02*
D03*
Y462960D02*
D03*
Y457960D02*
D03*
X996490D02*
D03*
Y462960D02*
D03*
Y467960D02*
D03*
Y472960D02*
D03*
Y482960D02*
D03*
Y487960D02*
D03*
Y492960D02*
D03*
Y497960D02*
D03*
D42*
X1592325Y500340D02*
D03*
Y474940D02*
D03*
X1506725Y500340D02*
D03*
Y474940D02*
D03*
D43*
X734718Y545327D02*
D03*
Y523376D02*
D03*
D44*
X1363847Y384886D02*
D03*
X1302456D02*
D03*
X1333152D02*
D03*
X1271761D02*
D03*
X1333152Y404884D02*
D03*
X1363847D02*
D03*
X1302456D02*
D03*
X1271761D02*
D03*
M02*
