M48
;Layer_Color=9474304
;FILE_FORMAT=4:4
METRIC,LZ
;TYPE=PLATED
T01F00S00C0.2000
T02F00S00C0.2540
T03F00S00C0.3000
T04F00S00C0.5000
T06F00S00C0.9144
T07F00S00C1.0000
T08F00S00C1.0200
T09F00S00C3.3000
;TYPE=NON_PLATED
T10F00S00C0.7500
%
T01
X00884936Y00469392
X00890567Y0047612
X0088392Y0051562
X008878Y00523038
X0086741Y00537698
X00863096Y00543261
X0089154Y0065659
X0095377Y0064672
X0081153Y0065151
Y0064008
X01037713Y0057277
X01055247
X0105156Y0054991
X0104267
X01066391Y00509016
X0113792Y00528066
X0078867Y0047371
Y0046101
Y004445
Y0043135
T02
X01187196Y00261112
X0122301Y00279146
X0121666Y00306324
X0126492Y0034417
X01273387
X01281853
X0129032
X01289558Y0033147
X01298712Y00293133
X0134747Y00342138
X01360251Y00349331
X01379982Y0035687
X0144145
X01439672Y00343154
X01427988Y00275082
X0161671Y00500634
X01387348Y00498856
X01442974Y00423672
X0122174Y00446582
X0122301Y0078994
X0121285
X01232762Y00790348
X0124333Y0078994
X01294892Y0077216
X01330125Y0078682
X0134239Y00788924
X0144018Y0078867
X01450594
X0112141Y0077978
Y0075565
X0101854Y0074803
Y0073403
Y0072003
X0100454
X0099054
Y0073403
X0100454
Y0074803
X0099054
X009906Y0064643
X010033
X01016
X010287
X010414
X01052921Y00646431
X01066173Y00646384
X01100374Y00642066
X0110998Y0065151
X0111887Y0064262
X01141925Y00644225
Y00657352
X0117221Y0064389
Y0060579
X01164255Y00605455
X0114121Y00560176
X0116586Y0053213
X01092708Y00532892
X01070356Y0052832
X01071372Y00517652
X0103759Y0049149
Y00478663
Y00465836
X01024382
Y00478663
Y0049149
X01011174
Y00478663
Y00465836
X01005078Y00437134
X01065784Y00425196
X01095004Y0046863
X011703Y00461989
X00929386Y00456184
X00920242Y0048768
X00923381Y00500832
X00911352Y00500905
Y00515874
X00922111
X00946089Y0055506
X0096647Y0055499
X00976122
X0098298Y00573532
X00938784Y00601218
X00916686Y0059944
X009652Y0064643
X009779
X00874268Y0065688
X00873506Y00732536
X0075692Y0061849
X0076454Y0056515
X0077089Y00508
X00729309Y00510869
X00718312Y00544322
X00723627Y00418103
X00680466Y00784352
X00888091Y00834751
X009525Y00822025
X01000425
X01013125
X010287
X0104013
X010795
X0114935Y0083185
T03
X00842264Y00366268
X01098296Y00366522
X01074166Y00797306
X00989838Y00822198
T04
X01398524Y00510037
X01411478Y00510032
X01426718Y00510286
X01438148Y00498856
T06
X01603409Y00538735
Y00564134
Y00589534
Y00614934
Y00640334
Y00665734
Y00691134
Y00716534
X0147701
Y00691134
Y00665734
Y00640334
Y00614934
Y00589534
Y00564134
Y00538735
X0155261Y00538734
X0157801
X01327912Y00536956
Y00562356
Y00587756
Y00613156
Y00638556
Y00663956
Y00689356
Y00714756
X01252312Y00714756
X01226912
X01201512Y00714756
Y00689356
Y00663956
Y00638556
Y00613156
Y00587756
Y00562356
Y00536956
T07
X01490016Y00275366
X01510016
X01530016
X01550016
X0153035Y0034036
X0150495
Y0039116
X0153035
X0160655
Y0034036
T08
X00769621Y0029591
Y0032131
X00795021
X0082042
X0084582
X0087122
X0089662
X0092202
X0094742
X0097282
Y0029591
X0099822
X0102362
X0104902
X0107442
X0109982
X0112522
Y0032131
X0109982
X0107442
X0104902
X0102362
X0099822
X0094742Y0029591
X0092202
X0089662
X0087122
X0084582
X0082042
X00795021
T09
X0067437Y0030099
X0159639Y0029845
X0067437Y0081407
X0159639
T10
X00699267Y0043879
Y00496788
M30
