G04*
G04 #@! TF.GenerationSoftware,Altium Limited,Altium Designer,26.5.0 (11)*
G04*
G04 Layer_Color=8388736*
G04 Board_Origin=0|0*
%FSLAX44Y44*%
%MOMM*%
G71*
G04*
G04 #@! TF.SameCoordinates,A90659DB-F331-4761-9575-B882DE05BAF6*
G04*
G04*
G04 #@! TF.FilePolarity,Positive*
G04*
G01*
G75*
%ADD11C,0.2000*%
D11*
X1094296Y378842D02*
Y394842D01*
X1102296D01*
Y378842D02*
Y394842D01*
X1094296Y378842D02*
X1102296D01*
X838264Y386208D02*
Y402208D01*
X846264D01*
Y386208D02*
Y402208D01*
X838264Y386208D02*
X846264D01*
X1471220Y479170D02*
X1479220D01*
X1471220Y463170D02*
Y479170D01*
Y463170D02*
X1479220D01*
Y479170D01*
X1359557Y462537D02*
X1367557D01*
X1359557Y446537D02*
Y462537D01*
Y446537D02*
X1367557D01*
Y462537D01*
X1328230D02*
X1336230D01*
X1328230Y446537D02*
Y462537D01*
Y446537D02*
X1336230D01*
Y462537D01*
X1296903D02*
X1304903D01*
X1296903Y446537D02*
Y462537D01*
Y446537D02*
X1304903D01*
Y462537D01*
X1265577D02*
X1273577D01*
X1265577Y446537D02*
Y462537D01*
Y446537D02*
X1273577D01*
Y462537D01*
X748410Y561150D02*
Y569150D01*
X732410D02*
X748410D01*
X732410Y561150D02*
Y569150D01*
Y561150D02*
X748410D01*
X843090Y820040D02*
X851090D01*
Y836040D01*
X843090D02*
X851090D01*
X843090Y820040D02*
Y836040D01*
X1332102Y768160D02*
Y776160D01*
X1316102D02*
X1332102D01*
X1316102Y768160D02*
Y776160D01*
Y768160D02*
X1332102D01*
X1135570Y449323D02*
Y465323D01*
X1127570Y449323D02*
X1135570D01*
X1127570D02*
Y465323D01*
X1135570D01*
X945770Y407860D02*
X961770D01*
Y399860D02*
Y407860D01*
X945770Y399860D02*
X961770D01*
X945770D02*
Y407860D01*
Y435377D02*
X961770D01*
Y427377D02*
Y435377D01*
X945770Y427377D02*
X961770D01*
X945770D02*
Y435377D01*
X1135760Y540830D02*
Y548830D01*
X1119760D02*
X1135760D01*
X1119760Y540830D02*
Y548830D01*
Y540830D02*
X1135760D01*
X1038480Y568770D02*
Y576770D01*
Y568770D02*
X1054480D01*
Y576770D01*
X1038480D02*
X1054480D01*
X1103440Y465323D02*
X1111440D01*
X1103440Y449323D02*
Y465323D01*
Y449323D02*
X1111440D01*
Y465323D01*
X1080703Y512190D02*
X1088703D01*
X1080703Y496190D02*
Y512190D01*
Y496190D02*
X1088703D01*
Y512190D01*
X945770Y382460D02*
X961770D01*
Y374460D02*
Y382460D01*
X945770Y374460D02*
X961770D01*
X945770D02*
Y382460D01*
Y461200D02*
X961770D01*
Y453200D02*
Y461200D01*
X945770Y453200D02*
X961770D01*
X945770D02*
Y461200D01*
X1150430Y465323D02*
X1158430D01*
X1150430Y449323D02*
Y465323D01*
Y449323D02*
X1158430D01*
Y465323D01*
X1150430Y514607D02*
X1158430D01*
X1150430Y498607D02*
Y514607D01*
Y498607D02*
X1158430D01*
Y514607D01*
X1091051Y541470D02*
Y549470D01*
X1075051D02*
X1091051D01*
X1075051Y541470D02*
Y549470D01*
Y541470D02*
X1091051D01*
X986600Y529087D02*
X994600D01*
Y545087D01*
X986600D02*
X994600D01*
X986600Y529087D02*
Y545087D01*
X1571880Y439230D02*
X1587880D01*
X1571880D02*
Y447230D01*
X1587880D01*
Y439230D02*
Y447230D01*
X1512190Y439230D02*
X1528190D01*
X1512190D02*
Y447230D01*
X1528190D01*
Y439230D02*
Y447230D01*
X752920Y406020D02*
Y422020D01*
X760920D01*
Y406020D02*
Y422020D01*
X752920Y406020D02*
X760920D01*
X751650Y487300D02*
Y503300D01*
X759650D01*
Y487300D02*
Y503300D01*
X751650Y487300D02*
X759650D01*
X1125030Y658627D02*
Y674627D01*
X1133030D01*
Y658627D02*
Y674627D01*
X1125030Y658627D02*
X1133030D01*
X1130110Y814837D02*
Y830837D01*
X1138110D01*
Y814837D02*
Y830837D01*
X1130110Y814837D02*
X1138110D01*
X875920Y675450D02*
X891920D01*
X875920D02*
Y683450D01*
X891920D01*
Y675450D02*
Y683450D01*
M02*
