G04*
G04 #@! TF.GenerationSoftware,Altium Limited,Altium Designer,26.5.0 (11)*
G04*
G04 Layer_Color=255*
G04 Board_Origin=0|0*
%FSLAX44Y44*%
%MOMM*%
G71*
G04*
G04 #@! TF.SameCoordinates,A90659DB-F331-4761-9575-B882DE05BAF6*
G04*
G04*
G04 #@! TF.FilePolarity,Positive*
G04*
G01*
G75*
%ADD18R,1.0121X1.0587*%
%ADD19R,0.9000X0.8000*%
G04:AMPARAMS|DCode=20|XSize=1mm|YSize=0.65mm|CornerRadius=0.0813mm|HoleSize=0mm|Usage=FLASHONLY|Rotation=270.000|XOffset=0mm|YOffset=0mm|HoleType=Round|Shape=RoundedRectangle|*
%AMROUNDEDRECTD20*
21,1,1.0000,0.4875,0,0,270.0*
21,1,0.8375,0.6500,0,0,270.0*
1,1,0.1625,-0.2438,-0.4188*
1,1,0.1625,-0.2438,0.4188*
1,1,0.1625,0.2438,0.4188*
1,1,0.1625,0.2438,-0.4188*
%
%ADD20ROUNDEDRECTD20*%
%ADD21R,2.0000X1.8000*%
%ADD22R,0.6000X1.5500*%
%ADD23R,1.2000X1.8000*%
%ADD24R,2.5000X1.1000*%
%ADD25R,0.9398X1.2320*%
%ADD26R,0.9398X2.0320*%
%ADD27C,1.7000*%
%ADD28R,1.0587X1.0121*%
%ADD29R,0.4000X0.6000*%
%ADD30R,5.6000X2.1000*%
%ADD31R,1.0000X1.2500*%
%ADD32R,0.9000X1.5000*%
%ADD33R,1.5000X0.9000*%
%ADD34R,0.9000X0.9000*%
%ADD35R,1.6000X3.2000*%
%ADD36R,0.4826X0.6096*%
%ADD37R,0.8000X0.9000*%
G04:AMPARAMS|DCode=39|XSize=0.26mm|YSize=1.13mm|CornerRadius=0.091mm|HoleSize=0mm|Usage=FLASHONLY|Rotation=0.000|XOffset=0mm|YOffset=0mm|HoleType=Round|Shape=RoundedRectangle|*
%AMROUNDEDRECTD39*
21,1,0.2600,0.9480,0,0,0.0*
21,1,0.0780,1.1300,0,0,0.0*
1,1,0.1820,0.0390,-0.4740*
1,1,0.1820,-0.0390,-0.4740*
1,1,0.1820,-0.0390,0.4740*
1,1,0.1820,0.0390,0.4740*
%
%ADD39ROUNDEDRECTD39*%
%ADD40R,0.6096X0.4826*%
G04:AMPARAMS|DCode=41|XSize=1.13mm|YSize=0.26mm|CornerRadius=0.091mm|HoleSize=0mm|Usage=FLASHONLY|Rotation=0.000|XOffset=0mm|YOffset=0mm|HoleType=Round|Shape=RoundedRectangle|*
%AMROUNDEDRECTD41*
21,1,1.1300,0.0780,0,0,0.0*
21,1,0.9480,0.2600,0,0,0.0*
1,1,0.1820,0.4740,-0.0390*
1,1,0.1820,-0.4740,-0.0390*
1,1,0.1820,-0.4740,0.0390*
1,1,0.1820,0.4740,0.0390*
%
%ADD41ROUNDEDRECTD41*%
G04:AMPARAMS|DCode=42|XSize=2.15mm|YSize=1.48mm|CornerRadius=0.185mm|HoleSize=0mm|Usage=FLASHONLY|Rotation=0.000|XOffset=0mm|YOffset=0mm|HoleType=Round|Shape=RoundedRectangle|*
%AMROUNDEDRECTD42*
21,1,2.1500,1.1100,0,0,0.0*
21,1,1.7800,1.4800,0,0,0.0*
1,1,0.3700,0.8900,-0.5550*
1,1,0.3700,-0.8900,-0.5550*
1,1,0.3700,-0.8900,0.5550*
1,1,0.3700,0.8900,0.5550*
%
%ADD42ROUNDEDRECTD42*%
%ADD43R,0.4550X0.8450*%
%ADD44R,1.2500X1.0000*%
%ADD55R,3.7000X3.7000*%
%ADD61C,1.6000*%
%ADD63R,1.5080X1.5080*%
%ADD64C,1.5080*%
%ADD65C,0.7500*%
%ADD69C,3.3000*%
%ADD75R,1.3000X0.3000*%
%ADD76R,0.3031X0.3240*%
%ADD77R,0.3240X0.3031*%
%ADD88C,1.8000*%
%ADD89O,1.8000X1.2000*%
%ADD90O,2.0000X1.2000*%
%ADD91C,1.5000*%
%ADD92R,1.5000X1.5000*%
D18*
X1098296Y378075D02*
D03*
Y395609D02*
D03*
X842264Y385441D02*
D03*
Y402975D02*
D03*
X1475220Y462403D02*
D03*
Y479937D02*
D03*
X1363557Y445770D02*
D03*
Y463304D02*
D03*
X1332230Y445770D02*
D03*
Y463304D02*
D03*
X1300903Y445770D02*
D03*
Y463304D02*
D03*
X1269577Y445770D02*
D03*
Y463304D02*
D03*
X847090Y819273D02*
D03*
Y836807D02*
D03*
X1154430Y497840D02*
D03*
Y448556D02*
D03*
X1131570D02*
D03*
X990600Y545854D02*
D03*
X755650Y486533D02*
D03*
X756920Y405253D02*
D03*
X1131570Y466090D02*
D03*
X755650Y504067D02*
D03*
X1129030Y657860D02*
D03*
X1084703Y512957D02*
D03*
X1107440Y466090D02*
D03*
Y448556D02*
D03*
X1084703Y495423D02*
D03*
X1154430Y466090D02*
D03*
Y515374D02*
D03*
X990600Y528320D02*
D03*
X1129030Y675394D02*
D03*
X1134110Y814070D02*
D03*
Y831604D02*
D03*
X756920Y422787D02*
D03*
D19*
X1444510Y687471D02*
D03*
Y701469D02*
D03*
X1301484Y555859D02*
D03*
Y541861D02*
D03*
X1141210Y571072D02*
D03*
Y585069D02*
D03*
X1012190Y546128D02*
D03*
X1129030Y495272D02*
D03*
X1108190Y508869D02*
D03*
X1082040Y457200D02*
D03*
X1029970Y546128D02*
D03*
X1033030Y410611D02*
D03*
X1013980D02*
D03*
X1052080D02*
D03*
X966470Y542318D02*
D03*
X946150D02*
D03*
X925830D02*
D03*
X965720Y490621D02*
D03*
X994930Y410611D02*
D03*
X945400Y490621D02*
D03*
X757440Y528721D02*
D03*
X1082040Y471198D02*
D03*
X1052080Y424608D02*
D03*
X1033030D02*
D03*
X966470Y528320D02*
D03*
X946150D02*
D03*
X965720Y504618D02*
D03*
X925830Y528320D02*
D03*
X945400Y504618D02*
D03*
X757440Y542719D02*
D03*
X994930Y424608D02*
D03*
X1029970Y532130D02*
D03*
X1108190Y494871D02*
D03*
X1013980Y424608D02*
D03*
X1012190Y532130D02*
D03*
X1129030Y509270D02*
D03*
D20*
X1468870Y404560D02*
D03*
X1478370Y428560D02*
D03*
X1459370D02*
D03*
D21*
X1470122Y373766D02*
D03*
Y331177D02*
D03*
D22*
X1347390Y292070D02*
D03*
X1337390D02*
D03*
X1288970D02*
D03*
X1278970D02*
D03*
X1226740D02*
D03*
X1216740D02*
D03*
X1440180Y809240D02*
D03*
X1450180D02*
D03*
X1430180D02*
D03*
X1332145D02*
D03*
X1342145D02*
D03*
X1322145D02*
D03*
X1243330Y808990D02*
D03*
X1233330D02*
D03*
X1223330D02*
D03*
X1213330D02*
D03*
D23*
X1360390Y266820D02*
D03*
X1324390D02*
D03*
X1301970D02*
D03*
X1265970D02*
D03*
X1239740D02*
D03*
X1203740D02*
D03*
X1417180Y847990D02*
D03*
X1463180D02*
D03*
X1309145D02*
D03*
X1355145D02*
D03*
X1200330Y847740D02*
D03*
X1256330D02*
D03*
D24*
X811009Y675875D02*
D03*
Y696195D02*
D03*
D25*
X819773Y592900D02*
D03*
Y779208D02*
D03*
X794373D02*
D03*
X768973D02*
D03*
X692773Y592900D02*
D03*
X718173D02*
D03*
X743573D02*
D03*
X768973D02*
D03*
X794373D02*
D03*
D26*
X832219Y775208D02*
D03*
X806819D02*
D03*
X781673D02*
D03*
X756273D02*
D03*
X730873D02*
D03*
X680073Y596900D02*
D03*
X705473D02*
D03*
X730873D02*
D03*
X756273D02*
D03*
X781673D02*
D03*
X806819D02*
D03*
X832219D02*
D03*
X680073Y775208D02*
D03*
X705473D02*
D03*
D27*
X720585Y698735D02*
D03*
Y673335D02*
D03*
X695185D02*
D03*
X669785Y698735D02*
D03*
Y673335D02*
D03*
X745985Y698735D02*
D03*
Y673335D02*
D03*
X695185Y698735D02*
D03*
D28*
X731643Y565150D02*
D03*
X749177D02*
D03*
X1332869Y772160D02*
D03*
X1315335D02*
D03*
X1074284Y545470D02*
D03*
X1528957Y443230D02*
D03*
X1571113D02*
D03*
X875153Y679450D02*
D03*
X945003Y403860D02*
D03*
Y378460D02*
D03*
Y457200D02*
D03*
Y431377D02*
D03*
X962537Y403860D02*
D03*
Y431377D02*
D03*
X1118993Y544830D02*
D03*
X1136527D02*
D03*
X1055247Y572770D02*
D03*
X1037713D02*
D03*
X962537Y378460D02*
D03*
Y457200D02*
D03*
X1091818Y545470D02*
D03*
X1588647Y443230D02*
D03*
X892687Y679450D02*
D03*
X1511423Y443230D02*
D03*
D29*
X734760Y468939D02*
D03*
Y483940D02*
D03*
X734760Y458161D02*
D03*
Y443160D02*
D03*
Y416251D02*
D03*
Y401250D02*
D03*
D30*
X1096520Y609600D02*
D03*
X1001520D02*
D03*
D31*
X886312Y744965D02*
D03*
Y822466D02*
D03*
X1152038Y704074D02*
D03*
Y781575D02*
D03*
D32*
X927340Y836530D02*
D03*
X940040D02*
D03*
X952740D02*
D03*
X965440D02*
D03*
X978140D02*
D03*
X990840D02*
D03*
X1003540D02*
D03*
X1016240D02*
D03*
X1028940D02*
D03*
X1041640D02*
D03*
X1054340D02*
D03*
X1067040D02*
D03*
X1079740D02*
D03*
X1092440D02*
D03*
Y661530D02*
D03*
X1079740D02*
D03*
X1067040D02*
D03*
X1054340D02*
D03*
X1041640D02*
D03*
X1028940D02*
D03*
X1016240D02*
D03*
X1003540D02*
D03*
X990840D02*
D03*
X978140D02*
D03*
X965440D02*
D03*
X952740D02*
D03*
X940040D02*
D03*
X927340D02*
D03*
D33*
X1104940Y818880D02*
D03*
Y806180D02*
D03*
Y793480D02*
D03*
Y780780D02*
D03*
Y768080D02*
D03*
Y755380D02*
D03*
Y742680D02*
D03*
Y729980D02*
D03*
Y717280D02*
D03*
Y704580D02*
D03*
Y691880D02*
D03*
Y679180D02*
D03*
D34*
X990540Y748030D02*
D03*
Y734030D02*
D03*
Y720030D02*
D03*
X1018540Y748030D02*
D03*
Y734030D02*
D03*
Y720030D02*
D03*
X1004540Y748030D02*
D03*
Y720030D02*
D03*
Y734030D02*
D03*
D35*
X1416050Y545230D02*
D03*
Y595230D02*
D03*
X1394460Y669690D02*
D03*
Y719690D02*
D03*
D36*
X1168654Y813562D02*
D03*
Y799084D02*
D03*
D37*
X1082881Y572020D02*
D03*
X999062Y574560D02*
D03*
X880511Y704330D02*
D03*
X924961Y617970D02*
D03*
Y635750D02*
D03*
X938959D02*
D03*
Y617970D02*
D03*
X1096879Y572020D02*
D03*
X1013059Y574560D02*
D03*
X894509Y704330D02*
D03*
D39*
X1009690Y449760D02*
D03*
X1029690Y506160D02*
D03*
X1039690D02*
D03*
X1029690Y449760D02*
D03*
X1004690Y506160D02*
D03*
Y449760D02*
D03*
X1009690Y506160D02*
D03*
X1014690D02*
D03*
X1019690D02*
D03*
X1024690D02*
D03*
X1034690D02*
D03*
X1044690D02*
D03*
Y449760D02*
D03*
X1039690D02*
D03*
X1034690D02*
D03*
X1024690D02*
D03*
X1019690D02*
D03*
X1014690D02*
D03*
D40*
X881888Y725424D02*
D03*
X896366D02*
D03*
D41*
X1052890Y482960D02*
D03*
Y477960D02*
D03*
X996490D02*
D03*
X1052890Y497960D02*
D03*
Y492960D02*
D03*
Y487960D02*
D03*
Y472960D02*
D03*
Y467960D02*
D03*
Y462960D02*
D03*
Y457960D02*
D03*
X996490D02*
D03*
Y462960D02*
D03*
Y467960D02*
D03*
Y472960D02*
D03*
Y482960D02*
D03*
Y487960D02*
D03*
Y492960D02*
D03*
Y497960D02*
D03*
D42*
X1592325Y500340D02*
D03*
Y474940D02*
D03*
X1506725Y500340D02*
D03*
Y474940D02*
D03*
D43*
X734718Y545327D02*
D03*
Y523376D02*
D03*
D44*
X1363847Y384886D02*
D03*
X1302456D02*
D03*
X1333152D02*
D03*
X1271761D02*
D03*
X1333152Y404884D02*
D03*
X1363847D02*
D03*
X1302456D02*
D03*
X1271761D02*
D03*
D55*
X1024690Y477960D02*
D03*
D61*
X1490016Y275366D02*
D03*
X1510016D02*
D03*
X1550016D02*
D03*
X1530016D02*
D03*
D63*
X1504950Y340360D02*
D03*
D64*
X1606550Y391160D02*
D03*
X1530350D02*
D03*
X1504950D02*
D03*
X1606550Y340360D02*
D03*
X1530350D02*
D03*
D65*
X699267Y496788D02*
D03*
Y438790D02*
D03*
D69*
X1596390Y298450D02*
D03*
X674370Y300990D02*
D03*
Y814070D02*
D03*
X1596390D02*
D03*
D75*
X711952Y460288D02*
D03*
Y470288D02*
D03*
X711952Y465289D02*
D03*
Y475289D02*
D03*
X711952Y485289D02*
D03*
Y480288D02*
D03*
Y455292D02*
D03*
Y450288D02*
D03*
X711951Y493288D02*
D03*
X711952Y490290D02*
D03*
X711951Y445289D02*
D03*
X711952Y442288D02*
D03*
X711953Y434289D02*
D03*
X711953Y437290D02*
D03*
X711951Y501288D02*
D03*
X711952Y498289D02*
D03*
D76*
X801619Y473710D02*
D03*
X801616Y431896D02*
D03*
X801619Y460355D02*
D03*
Y444596D02*
D03*
X806447Y431896D02*
D03*
X806450Y444596D02*
D03*
Y473710D02*
D03*
Y460355D02*
D03*
D77*
X868680Y563631D02*
D03*
Y558800D02*
D03*
X880110Y563631D02*
D03*
Y558800D02*
D03*
D88*
X1603409Y665734D02*
D03*
Y614934D02*
D03*
X1477010Y589534D02*
D03*
Y614934D02*
D03*
Y640334D02*
D03*
Y665734D02*
D03*
X1578010Y538734D02*
D03*
X1552610D02*
D03*
X1477010Y538735D02*
D03*
X1603409Y691134D02*
D03*
Y640334D02*
D03*
Y538735D02*
D03*
Y716534D02*
D03*
Y589534D02*
D03*
X1477010Y691134D02*
D03*
Y716534D02*
D03*
Y564134D02*
D03*
X1603409D02*
D03*
X1201512Y587756D02*
D03*
Y638556D02*
D03*
X1327912Y663956D02*
D03*
Y638556D02*
D03*
Y613156D02*
D03*
Y587756D02*
D03*
X1226912Y714756D02*
D03*
X1252312D02*
D03*
X1327912Y714756D02*
D03*
X1201512Y613156D02*
D03*
Y562356D02*
D03*
Y714756D02*
D03*
Y536956D02*
D03*
Y663956D02*
D03*
X1327912Y562356D02*
D03*
Y689356D02*
D03*
Y536956D02*
D03*
X1201512Y689356D02*
D03*
D89*
X662468Y424539D02*
D03*
Y511038D02*
D03*
D90*
X704268Y424539D02*
D03*
Y511038D02*
D03*
D91*
X795020Y321310D02*
D03*
X845820D02*
D03*
X795020Y295910D02*
D03*
X769620D02*
D03*
X972820D02*
D03*
X769620Y321310D02*
D03*
X820420D02*
D03*
X1125220Y295910D02*
D03*
X1099820Y321310D02*
D03*
Y295910D02*
D03*
X1074420Y321310D02*
D03*
Y295910D02*
D03*
X1049020Y321310D02*
D03*
Y295910D02*
D03*
X1023620Y321310D02*
D03*
Y295910D02*
D03*
X998220Y321310D02*
D03*
Y295910D02*
D03*
X972820Y321310D02*
D03*
X947420D02*
D03*
Y295910D02*
D03*
X922020Y321310D02*
D03*
Y295910D02*
D03*
X896620Y321310D02*
D03*
Y295910D02*
D03*
X871220Y321310D02*
D03*
Y295910D02*
D03*
X845820D02*
D03*
X820420D02*
D03*
D92*
X1125220Y321310D02*
D03*
M02*
