G04*
G04 #@! TF.GenerationSoftware,Altium Limited,Altium Designer,26.5.0 (11)*
G04*
G04 Layer_Color=16711935*
G04 Board_Origin=0|0*
%FSLAX44Y44*%
%MOMM*%
G71*
G04*
G04 #@! TF.SameCoordinates,A90659DB-F331-4761-9575-B882DE05BAF6*
G04*
G04*
G04 #@! TF.FilePolarity,Positive*
G04*
G01*
G75*
%ADD13C,0.1000*%
%ADD105C,0.0254*%
%ADD106C,0.0762*%
%ADD107C,0.0500*%
D13*
X860145Y597035D02*
Y775035D01*
X650645D02*
X860145D01*
X650645Y597035D02*
Y775035D01*
Y597035D02*
X860145D01*
D105*
X832345Y776205D02*
G03*
X832401Y776204I-0J-1270D01*
G01*
X806945Y776205D02*
G03*
X807001Y776204I-0J-1270D01*
G01*
X781545Y776205D02*
G03*
X781601Y776204I-0J-1270D01*
G01*
X756145Y776205D02*
G03*
X756201Y776204I-0J-1270D01*
G01*
X730745Y776205D02*
G03*
X730801Y776204I-0J-1270D01*
G01*
X705345Y776205D02*
G03*
X705401Y776204I-0J-1270D01*
G01*
X679945Y776205D02*
G03*
X680001Y776204I-0J-1270D01*
G01*
X832345Y763505D02*
G03*
X832401Y763504I-0J-1270D01*
G01*
X806945Y763505D02*
G03*
X807001Y763504I-0J-1270D01*
G01*
X781545Y763505D02*
G03*
X781601Y763504I-0J-1270D01*
G01*
X756145Y763505D02*
G03*
X756201Y763504I-0J-1270D01*
G01*
X730745Y763505D02*
G03*
X730801Y763504I-0J-1270D01*
G01*
X705345Y763505D02*
G03*
X705401Y763504I-0J-1270D01*
G01*
X679945Y763505D02*
G03*
X680001Y763504I-0J-1270D01*
G01*
X832345Y611105D02*
G03*
X832401Y611104I-0J-1270D01*
G01*
X806945Y611105D02*
G03*
X807001Y611104I-0J-1270D01*
G01*
X781545Y611105D02*
G03*
X781601Y611104I-0J-1270D01*
G01*
X756145Y611105D02*
G03*
X756201Y611104I-0J-1270D01*
G01*
X730745Y611105D02*
G03*
X730801Y611104I-0J-1270D01*
G01*
X705345Y611105D02*
G03*
X705401Y611104I-0J-1270D01*
G01*
X679945Y611105D02*
G03*
X680001Y611104I-0J-1270D01*
G01*
X832345Y598405D02*
G03*
X832401Y598404I-0J-1270D01*
G01*
X806945Y598405D02*
G03*
X807001Y598404I-0J-1270D01*
G01*
X781545Y598405D02*
G03*
X781601Y598404I-0J-1270D01*
G01*
X756145Y598405D02*
G03*
X756201Y598404I-0J-1270D01*
G01*
X730745Y598405D02*
G03*
X730801Y598404I-0J-1270D01*
G01*
X705345Y598405D02*
G03*
X705401Y598404I-0J-1270D01*
G01*
X679945Y598405D02*
G03*
X680001Y598404I-0J-1270D01*
G01*
X860285Y755885D02*
G03*
X841235Y774935I-19050J-0D01*
G01*
X669785D02*
G03*
X650735Y755885I0J-19050D01*
G01*
X841235Y597135D02*
G03*
X860285Y616185I-0J19050D01*
G01*
X650735D02*
G03*
X669785Y597135I19050J0D01*
G01*
Y774935D02*
X841235D01*
X650735Y616185D02*
Y755885D01*
X860285Y616185D02*
Y755885D01*
X669785Y597135D02*
X841235D01*
D106*
X698995Y647935D02*
Y724135D01*
X635495D02*
X698995D01*
X635495Y647935D02*
Y724135D01*
Y647935D02*
X698995D01*
D107*
X860145Y597035D02*
Y775035D01*
X650645D02*
X860145D01*
X650645Y597035D02*
Y775035D01*
Y597035D02*
X860145D01*
M02*
