G04*
G04 #@! TF.GenerationSoftware,Altium Limited,Altium Designer,26.5.0 (11)*
G04*
G04 Layer_Color=2752767*
G04 Board_Origin=0|0*
%FSLAX44Y44*%
%MOMM*%
G71*
G04*
G04 #@! TF.SameCoordinates,A90659DB-F331-4761-9575-B882DE05BAF6*
G04*
G04*
G04 #@! TF.FilePolarity,Positive*
G04*
G01*
G75*
%ADD14C,0.1270*%
%ADD111C,0.1693*%
%ADD112C,0.1016*%
D14*
X1484936Y270286D02*
Y280446D01*
X1495096D01*
Y270286D01*
X1484936D01*
X1504936D02*
Y280446D01*
X1515096D01*
Y270286D01*
X1504936D01*
X1544936D02*
Y280446D01*
X1555096D01*
Y270286D01*
X1544936D01*
X1524936D02*
Y280446D01*
X1535096D01*
Y270286D01*
X1524936D01*
X1499870Y335280D02*
Y345440D01*
X1510030D01*
Y335280D01*
X1499870D01*
X1601470Y386080D02*
Y396240D01*
X1611630D01*
Y386080D01*
X1601470D01*
X1525270D02*
Y396240D01*
X1535430D01*
Y386080D01*
X1525270D01*
X1499870D02*
Y396240D01*
X1510030D01*
Y386080D01*
X1499870D01*
X1601470Y335280D02*
Y345440D01*
X1611630D01*
Y335280D01*
X1601470D01*
X1525270D02*
Y345440D01*
X1535430D01*
Y335280D01*
X1525270D01*
X694187Y491708D02*
X696727Y496788D01*
X694187Y501868D01*
X699267Y499328D01*
X704347Y501868D01*
X701807Y496788D01*
X704347Y491708D01*
X699267Y494248D01*
X694187Y491708D01*
Y433710D02*
X696727Y438790D01*
X694187Y443870D01*
X699267Y441330D01*
X704347Y443870D01*
X701807Y438790D01*
X704347Y433710D01*
X699267Y436250D01*
X694187Y433710D01*
X659928Y421999D02*
Y419459D01*
X665008D01*
Y421999D01*
X667548D01*
Y427079D01*
X665008D01*
Y429619D01*
X659928D01*
Y427079D01*
X657388D01*
Y421999D01*
X659928D01*
X699187Y419459D02*
X701728D01*
X704268Y421999D01*
X706807Y419459D01*
X709348D01*
Y421999D01*
X706807Y424539D01*
X709348Y427079D01*
Y429619D01*
X706807D01*
X704268Y427079D01*
X701728Y429619D01*
X699187D01*
Y427079D01*
X701728Y424539D01*
X699187Y421999D01*
Y419459D01*
Y511038D02*
X704268Y516118D01*
X709348Y511038D01*
X704268Y505958D01*
X699187Y511038D01*
X659928Y508498D02*
Y505958D01*
X665008D01*
Y508498D01*
X667548D01*
Y513578D01*
X665008D01*
Y516118D01*
X659928D01*
Y513578D01*
X657388D01*
Y508498D01*
X659928D01*
X795021Y316230D02*
X797561Y318770D01*
X800100D01*
X797561Y321310D01*
X800100Y323850D01*
X797561D01*
X795021Y326390D01*
X792480Y323850D01*
X789940D01*
X792480Y321310D01*
X789940Y318770D01*
X792480D01*
X795021Y316230D01*
X845820D02*
X848360Y318770D01*
X850900D01*
X848360Y321310D01*
X850900Y323850D01*
X848360D01*
X845820Y326390D01*
X843280Y323850D01*
X840740D01*
X843280Y321310D01*
X840740Y318770D01*
X843280D01*
X845820Y316230D01*
X795021Y290830D02*
X797561Y293370D01*
X800100D01*
X797561Y295910D01*
X800100Y298450D01*
X797561D01*
X795021Y300990D01*
X792480Y298450D01*
X789940D01*
X792480Y295910D01*
X789940Y293370D01*
X792480D01*
X795021Y290830D01*
X769621D02*
X772160Y293370D01*
X774700D01*
X772160Y295910D01*
X774700Y298450D01*
X772160D01*
X769621Y300990D01*
X767081Y298450D01*
X764540D01*
X767081Y295910D01*
X764540Y293370D01*
X767081D01*
X769621Y290830D01*
X972820D02*
X975360Y293370D01*
X977900D01*
X975360Y295910D01*
X977900Y298450D01*
X975360D01*
X972820Y300990D01*
X970280Y298450D01*
X967740D01*
X970280Y295910D01*
X967740Y293370D01*
X970280D01*
X972820Y290830D01*
X769621Y316230D02*
X772160Y318770D01*
X774700D01*
X772160Y321310D01*
X774700Y323850D01*
X772160D01*
X769621Y326390D01*
X767081Y323850D01*
X764540D01*
X767081Y321310D01*
X764540Y318770D01*
X767081D01*
X769621Y316230D01*
X820420D02*
X822960Y318770D01*
X825500D01*
X822960Y321310D01*
X825500Y323850D01*
X822960D01*
X820420Y326390D01*
X817880Y323850D01*
X815340D01*
X817880Y321310D01*
X815340Y318770D01*
X817880D01*
X820420Y316230D01*
X1125220D02*
X1127760Y318770D01*
X1130300D01*
X1127760Y321310D01*
X1130300Y323850D01*
X1127760D01*
X1125220Y326390D01*
X1122680Y323850D01*
X1120140D01*
X1122680Y321310D01*
X1120140Y318770D01*
X1122680D01*
X1125220Y316230D01*
Y290830D02*
X1127760Y293370D01*
X1130300D01*
X1127760Y295910D01*
X1130300Y298450D01*
X1127760D01*
X1125220Y300990D01*
X1122680Y298450D01*
X1120140D01*
X1122680Y295910D01*
X1120140Y293370D01*
X1122680D01*
X1125220Y290830D01*
X1099820Y316230D02*
X1102360Y318770D01*
X1104900D01*
X1102360Y321310D01*
X1104900Y323850D01*
X1102360D01*
X1099820Y326390D01*
X1097280Y323850D01*
X1094740D01*
X1097280Y321310D01*
X1094740Y318770D01*
X1097280D01*
X1099820Y316230D01*
Y290830D02*
X1102360Y293370D01*
X1104900D01*
X1102360Y295910D01*
X1104900Y298450D01*
X1102360D01*
X1099820Y300990D01*
X1097280Y298450D01*
X1094740D01*
X1097280Y295910D01*
X1094740Y293370D01*
X1097280D01*
X1099820Y290830D01*
X1074420Y316230D02*
X1076960Y318770D01*
X1079500D01*
X1076960Y321310D01*
X1079500Y323850D01*
X1076960D01*
X1074420Y326390D01*
X1071880Y323850D01*
X1069340D01*
X1071880Y321310D01*
X1069340Y318770D01*
X1071880D01*
X1074420Y316230D01*
Y290830D02*
X1076960Y293370D01*
X1079500D01*
X1076960Y295910D01*
X1079500Y298450D01*
X1076960D01*
X1074420Y300990D01*
X1071880Y298450D01*
X1069340D01*
X1071880Y295910D01*
X1069340Y293370D01*
X1071880D01*
X1074420Y290830D01*
X1049020Y316230D02*
X1051560Y318770D01*
X1054100D01*
X1051560Y321310D01*
X1054100Y323850D01*
X1051560D01*
X1049020Y326390D01*
X1046480Y323850D01*
X1043940D01*
X1046480Y321310D01*
X1043940Y318770D01*
X1046480D01*
X1049020Y316230D01*
Y290830D02*
X1051560Y293370D01*
X1054100D01*
X1051560Y295910D01*
X1054100Y298450D01*
X1051560D01*
X1049020Y300990D01*
X1046480Y298450D01*
X1043940D01*
X1046480Y295910D01*
X1043940Y293370D01*
X1046480D01*
X1049020Y290830D01*
X1023620Y316230D02*
X1026160Y318770D01*
X1028700D01*
X1026160Y321310D01*
X1028700Y323850D01*
X1026160D01*
X1023620Y326390D01*
X1021080Y323850D01*
X1018540D01*
X1021080Y321310D01*
X1018540Y318770D01*
X1021080D01*
X1023620Y316230D01*
Y290830D02*
X1026160Y293370D01*
X1028700D01*
X1026160Y295910D01*
X1028700Y298450D01*
X1026160D01*
X1023620Y300990D01*
X1021080Y298450D01*
X1018540D01*
X1021080Y295910D01*
X1018540Y293370D01*
X1021080D01*
X1023620Y290830D01*
X998220Y316230D02*
X1000760Y318770D01*
X1003300D01*
X1000760Y321310D01*
X1003300Y323850D01*
X1000760D01*
X998220Y326390D01*
X995680Y323850D01*
X993140D01*
X995680Y321310D01*
X993140Y318770D01*
X995680D01*
X998220Y316230D01*
Y290830D02*
X1000760Y293370D01*
X1003300D01*
X1000760Y295910D01*
X1003300Y298450D01*
X1000760D01*
X998220Y300990D01*
X995680Y298450D01*
X993140D01*
X995680Y295910D01*
X993140Y293370D01*
X995680D01*
X998220Y290830D01*
X972820Y316230D02*
X975360Y318770D01*
X977900D01*
X975360Y321310D01*
X977900Y323850D01*
X975360D01*
X972820Y326390D01*
X970280Y323850D01*
X967740D01*
X970280Y321310D01*
X967740Y318770D01*
X970280D01*
X972820Y316230D01*
X947420D02*
X949960Y318770D01*
X952500D01*
X949960Y321310D01*
X952500Y323850D01*
X949960D01*
X947420Y326390D01*
X944880Y323850D01*
X942340D01*
X944880Y321310D01*
X942340Y318770D01*
X944880D01*
X947420Y316230D01*
Y290830D02*
X949960Y293370D01*
X952500D01*
X949960Y295910D01*
X952500Y298450D01*
X949960D01*
X947420Y300990D01*
X944880Y298450D01*
X942340D01*
X944880Y295910D01*
X942340Y293370D01*
X944880D01*
X947420Y290830D01*
X922020Y316230D02*
X924560Y318770D01*
X927100D01*
X924560Y321310D01*
X927100Y323850D01*
X924560D01*
X922020Y326390D01*
X919480Y323850D01*
X916940D01*
X919480Y321310D01*
X916940Y318770D01*
X919480D01*
X922020Y316230D01*
Y290830D02*
X924560Y293370D01*
X927100D01*
X924560Y295910D01*
X927100Y298450D01*
X924560D01*
X922020Y300990D01*
X919480Y298450D01*
X916940D01*
X919480Y295910D01*
X916940Y293370D01*
X919480D01*
X922020Y290830D01*
X896620Y316230D02*
X899160Y318770D01*
X901700D01*
X899160Y321310D01*
X901700Y323850D01*
X899160D01*
X896620Y326390D01*
X894080Y323850D01*
X891540D01*
X894080Y321310D01*
X891540Y318770D01*
X894080D01*
X896620Y316230D01*
Y290830D02*
X899160Y293370D01*
X901700D01*
X899160Y295910D01*
X901700Y298450D01*
X899160D01*
X896620Y300990D01*
X894080Y298450D01*
X891540D01*
X894080Y295910D01*
X891540Y293370D01*
X894080D01*
X896620Y290830D01*
X871220Y316230D02*
X873760Y318770D01*
X876300D01*
X873760Y321310D01*
X876300Y323850D01*
X873760D01*
X871220Y326390D01*
X868680Y323850D01*
X866140D01*
X868680Y321310D01*
X866140Y318770D01*
X868680D01*
X871220Y316230D01*
Y290830D02*
X873760Y293370D01*
X876300D01*
X873760Y295910D01*
X876300Y298450D01*
X873760D01*
X871220Y300990D01*
X868680Y298450D01*
X866140D01*
X868680Y295910D01*
X866140Y293370D01*
X868680D01*
X871220Y290830D01*
X845820D02*
X848360Y293370D01*
X850900D01*
X848360Y295910D01*
X850900Y298450D01*
X848360D01*
X845820Y300990D01*
X843280Y298450D01*
X840740D01*
X843280Y295910D01*
X840740Y293370D01*
X843280D01*
X845820Y290830D01*
X820420D02*
X822960Y293370D01*
X825500D01*
X822960Y295910D01*
X825500Y298450D01*
X822960D01*
X820420Y300990D01*
X817880Y298450D01*
X815340D01*
X817880Y295910D01*
X815340Y293370D01*
X817880D01*
X820420Y290830D01*
X1426718Y505206D02*
X1429258Y507746D01*
X1431798D01*
X1429258Y510286D01*
X1431798Y512826D01*
X1429258D01*
X1426718Y515366D01*
X1424178Y512826D01*
X1421638D01*
X1424178Y510286D01*
X1421638Y507746D01*
X1424178D01*
X1426718Y505206D01*
Y507238D02*
X1428242Y508762D01*
X1429766D01*
X1428242Y510286D01*
X1429766Y511810D01*
X1428242D01*
X1426718Y513334D01*
X1425194Y511810D01*
X1423670D01*
X1425194Y510286D01*
X1423670Y508762D01*
X1425194D01*
X1426718Y507238D01*
X1411478Y504952D02*
X1414018Y507492D01*
X1416558D01*
X1414018Y510032D01*
X1416558Y512572D01*
X1414018D01*
X1411478Y515112D01*
X1408938Y512572D01*
X1406398D01*
X1408938Y510032D01*
X1406398Y507492D01*
X1408938D01*
X1411478Y504952D01*
Y506984D02*
X1413002Y508508D01*
X1414526D01*
X1413002Y510032D01*
X1414526Y511556D01*
X1413002D01*
X1411478Y513080D01*
X1409954Y511556D01*
X1408430D01*
X1409954Y510032D01*
X1408430Y508508D01*
X1409954D01*
X1411478Y506984D01*
X1438148Y493776D02*
X1440688Y496316D01*
X1443228D01*
X1440688Y498856D01*
X1443228Y501396D01*
X1440688D01*
X1438148Y503936D01*
X1435608Y501396D01*
X1433068D01*
X1435608Y498856D01*
X1433068Y496316D01*
X1435608D01*
X1438148Y493776D01*
Y495808D02*
X1439672Y497332D01*
X1441196D01*
X1439672Y498856D01*
X1441196Y500380D01*
X1439672D01*
X1438148Y501904D01*
X1436624Y500380D01*
X1435100D01*
X1436624Y498856D01*
X1435100Y497332D01*
X1436624D01*
X1438148Y495808D01*
X1398524Y504957D02*
X1401064Y507497D01*
X1403604D01*
X1401064Y510037D01*
X1403604Y512577D01*
X1401064D01*
X1398524Y515117D01*
X1395984Y512577D01*
X1393444D01*
X1395984Y510037D01*
X1393444Y507497D01*
X1395984D01*
X1398524Y504957D01*
Y506989D02*
X1400048Y508513D01*
X1401572D01*
X1400048Y510037D01*
X1401572Y511561D01*
X1400048D01*
X1398524Y513085D01*
X1397000Y511561D01*
X1395476D01*
X1397000Y510037D01*
X1395476Y508513D01*
X1397000D01*
X1398524Y506989D01*
X1374902Y351790D02*
Y361950D01*
X1385062D01*
Y351790D01*
X1374902D01*
X1376934Y353822D02*
Y359918D01*
X1383030D01*
Y353822D01*
X1376934D01*
X1437894Y418592D02*
Y428752D01*
X1448054D01*
Y418592D01*
X1437894D01*
X1439926Y420624D02*
Y426720D01*
X1446022D01*
Y420624D01*
X1439926D01*
X1434592Y338074D02*
Y348234D01*
X1444752D01*
Y338074D01*
X1434592D01*
X1436624Y340106D02*
Y346202D01*
X1442720D01*
Y340106D01*
X1436624D01*
X1436370Y351790D02*
Y361950D01*
X1446530D01*
Y351790D01*
X1436370D01*
X1438402Y353822D02*
Y359918D01*
X1444498D01*
Y353822D01*
X1438402D01*
X1066391Y503936D02*
X1061311Y514096D01*
X1071471D01*
X1066391Y503936D01*
X842264Y361188D02*
X837184Y371348D01*
X847344D01*
X842264Y361188D01*
Y363220D02*
X839216Y369316D01*
X845312D01*
X842264Y363220D01*
X1098296Y361442D02*
X1093216Y371602D01*
X1103376D01*
X1098296Y361442D01*
Y363474D02*
X1095248Y369570D01*
X1101344D01*
X1098296Y363474D01*
X1167130Y638810D02*
Y648970D01*
X1177290D01*
Y638810D01*
X1167130D01*
X1169162Y640842D02*
Y646938D01*
X1175258D01*
Y640842D01*
X1169162D01*
X1159175Y600375D02*
Y610535D01*
X1169335D01*
Y600375D01*
X1159175D01*
X1161207Y602407D02*
Y608503D01*
X1167303D01*
Y602407D01*
X1161207D01*
X1160780Y527050D02*
Y537210D01*
X1170940D01*
Y527050D01*
X1160780D01*
X1162812Y529082D02*
Y535178D01*
X1168908D01*
Y529082D01*
X1162812D01*
X1165219Y456909D02*
Y467069D01*
X1175379D01*
Y456909D01*
X1165219D01*
X1167252Y458941D02*
Y465037D01*
X1173347D01*
Y458941D01*
X1167252D01*
X1136845Y639145D02*
Y649305D01*
X1147005D01*
Y639145D01*
X1136845D01*
X1138877Y641177D02*
Y647273D01*
X1144973D01*
Y641177D01*
X1138877D01*
X1136845Y652272D02*
Y662432D01*
X1147005D01*
Y652272D01*
X1136845D01*
X1138877Y654304D02*
Y660400D01*
X1144973D01*
Y654304D01*
X1138877D01*
X989838Y817118D02*
X984758Y827278D01*
X994918D01*
X989838Y817118D01*
Y819150D02*
X986790Y825246D01*
X992886D01*
X989838Y819150D01*
X1074166Y792226D02*
X1069086Y802386D01*
X1079246D01*
X1074166Y792226D01*
Y794258D02*
X1071118Y800354D01*
X1077214D01*
X1074166Y794258D01*
X675386Y779272D02*
Y789432D01*
X685546D01*
Y779272D01*
X675386D01*
X677418Y781304D02*
Y787400D01*
X683514D01*
Y781304D01*
X677418D01*
X1325045Y781740D02*
Y791899D01*
X1335206D01*
Y781740D01*
X1325045D01*
X1327077Y783772D02*
Y789867D01*
X1333174D01*
Y783772D01*
X1327077D01*
X1211580Y301244D02*
Y311404D01*
X1221740D01*
Y301244D01*
X1211580D01*
X1213612Y303276D02*
Y309372D01*
X1219708D01*
Y303276D01*
X1213612D01*
X1216660Y441502D02*
Y451662D01*
X1226820D01*
Y441502D01*
X1216660D01*
X1218692Y443534D02*
Y449630D01*
X1224788D01*
Y443534D01*
X1218692D01*
X1382268Y493776D02*
Y503936D01*
X1392428D01*
Y493776D01*
X1382268D01*
X1384300Y495808D02*
Y501904D01*
X1390396D01*
Y495808D01*
X1384300D01*
X1422908Y270002D02*
Y280162D01*
X1433068D01*
Y270002D01*
X1422908D01*
X1424940Y272034D02*
Y278130D01*
X1431036D01*
Y272034D01*
X1424940D01*
X1013460Y714950D02*
Y725110D01*
X1023620D01*
Y714950D01*
X1013460D01*
X1015492Y716982D02*
Y723078D01*
X1021588D01*
Y716982D01*
X1015492D01*
X999460Y714950D02*
Y725110D01*
X1009620D01*
Y714950D01*
X999460D01*
X1001492Y716982D02*
Y723078D01*
X1007588D01*
Y716982D01*
X1001492D01*
X985460Y714950D02*
Y725110D01*
X995620D01*
Y714950D01*
X985460D01*
X987492Y716982D02*
Y723078D01*
X993588D01*
Y716982D01*
X987492D01*
X985460Y728950D02*
Y739110D01*
X995620D01*
Y728950D01*
X985460D01*
X987492Y730982D02*
Y737078D01*
X993588D01*
Y730982D01*
X987492D01*
X999460Y728950D02*
Y739110D01*
X1009620D01*
Y728950D01*
X999460D01*
X1001492Y730982D02*
Y737078D01*
X1007588D01*
Y730982D01*
X1001492D01*
X1013460Y728950D02*
Y739110D01*
X1023620D01*
Y728950D01*
X1013460D01*
X1015492Y730982D02*
Y737078D01*
X1021588D01*
Y730982D01*
X1015492D01*
X1013460Y742950D02*
Y753110D01*
X1023620D01*
Y742950D01*
X1013460D01*
X1015492Y744982D02*
Y751078D01*
X1021588D01*
Y744982D01*
X1015492D01*
X999460Y742950D02*
Y753110D01*
X1009620D01*
Y742950D01*
X999460D01*
X1001492Y744982D02*
Y751078D01*
X1007588D01*
Y744982D01*
X1001492D01*
X985460Y742950D02*
Y753110D01*
X995620D01*
Y742950D01*
X985460D01*
X987492Y744982D02*
Y751078D01*
X993588D01*
Y744982D01*
X987492D01*
X1217930Y274066D02*
Y284226D01*
X1228090D01*
Y274066D01*
X1217930D01*
X1219962Y276098D02*
Y282194D01*
X1226058D01*
Y276098D01*
X1219962D01*
X1293632Y288053D02*
Y298213D01*
X1303792D01*
Y288053D01*
X1293632D01*
X1295664Y290085D02*
Y296181D01*
X1301760D01*
Y290085D01*
X1295664D01*
X1342390Y337058D02*
Y347218D01*
X1352550D01*
Y337058D01*
X1342390D01*
X1344422Y339090D02*
Y345186D01*
X1350518D01*
Y339090D01*
X1344422D01*
X1355171Y344251D02*
Y354411D01*
X1365331D01*
Y344251D01*
X1355171D01*
X1357203Y346283D02*
Y352379D01*
X1363299D01*
Y346283D01*
X1357203D01*
X1285240Y339090D02*
Y349250D01*
X1295400D01*
Y339090D01*
X1285240D01*
X1287272Y341122D02*
Y347218D01*
X1293368D01*
Y341122D01*
X1287272D01*
X1284478Y326390D02*
Y336550D01*
X1294638D01*
Y326390D01*
X1284478D01*
X1286510Y328422D02*
Y334518D01*
X1292606D01*
Y328422D01*
X1286510D01*
X915162Y482600D02*
Y492760D01*
X925322D01*
Y482600D01*
X915162D01*
X917194Y484632D02*
Y490728D01*
X923290D01*
Y484632D01*
X917194D01*
X1032510Y460756D02*
Y470916D01*
X1042670D01*
Y460756D01*
X1032510D01*
X1034542Y462788D02*
Y468884D01*
X1040638D01*
Y462788D01*
X1034542D01*
X1019302Y460756D02*
Y470916D01*
X1029462D01*
Y460756D01*
X1019302D01*
X1021334Y462788D02*
Y468884D01*
X1027430D01*
Y462788D01*
X1021334D01*
X1006094Y460756D02*
Y470916D01*
X1016254D01*
Y460756D01*
X1006094D01*
X1008126Y462788D02*
Y468884D01*
X1014222D01*
Y462788D01*
X1008126D01*
X1032510Y473583D02*
Y483743D01*
X1042670D01*
Y473583D01*
X1032510D01*
X1034542Y475615D02*
Y481711D01*
X1040638D01*
Y475615D01*
X1034542D01*
X1019302Y473583D02*
Y483743D01*
X1029462D01*
Y473583D01*
X1019302D01*
X1021334Y475615D02*
Y481711D01*
X1027430D01*
Y475615D01*
X1021334D01*
X1006094Y473583D02*
Y483743D01*
X1016254D01*
Y473583D01*
X1006094D01*
X1008126Y475615D02*
Y481711D01*
X1014222D01*
Y475615D01*
X1008126D01*
X1032510Y486410D02*
Y496570D01*
X1042670D01*
Y486410D01*
X1032510D01*
X1034542Y488442D02*
Y494538D01*
X1040638D01*
Y488442D01*
X1034542D01*
X1019302Y486410D02*
Y496570D01*
X1029462D01*
Y486410D01*
X1019302D01*
X1021334Y488442D02*
Y494538D01*
X1027430D01*
Y488442D01*
X1021334D01*
X1006094Y486410D02*
Y496570D01*
X1016254D01*
Y486410D01*
X1006094D01*
X1008126Y488442D02*
Y494538D01*
X1014222D01*
Y488442D01*
X1008126D01*
X883011Y829671D02*
Y839831D01*
X893171D01*
Y829671D01*
X883011D01*
X885043Y831703D02*
Y837799D01*
X891139D01*
Y831703D01*
X885043D01*
X868426Y727456D02*
Y737616D01*
X878586D01*
Y727456D01*
X868426D01*
X870458Y729488D02*
Y735584D01*
X876554D01*
Y729488D01*
X870458D01*
X977900Y568452D02*
Y578612D01*
X988060D01*
Y568452D01*
X977900D01*
X979932Y570484D02*
Y576580D01*
X986028D01*
Y570484D01*
X979932D01*
X941009Y549980D02*
Y560140D01*
X951169D01*
Y549980D01*
X941009D01*
X943041Y552012D02*
Y558108D01*
X949137D01*
Y552012D01*
X943041D01*
X971042Y549910D02*
Y560070D01*
X981202D01*
Y549910D01*
X971042D01*
X973074Y551942D02*
Y558038D01*
X979170D01*
Y551942D01*
X973074D01*
X961390Y549910D02*
Y560070D01*
X971550D01*
Y549910D01*
X961390D01*
X963422Y551942D02*
Y558038D01*
X969518D01*
Y551942D01*
X963422D01*
X911606Y594360D02*
Y604520D01*
X921766D01*
Y594360D01*
X911606D01*
X913638Y596392D02*
Y602488D01*
X919734D01*
Y596392D01*
X913638D01*
X1182116Y256032D02*
Y266192D01*
X1192276D01*
Y256032D01*
X1182116D01*
X1184148Y258064D02*
Y264160D01*
X1190244D01*
Y258064D01*
X1184148D01*
X887800Y517958D02*
X882720Y528118D01*
X892880D01*
X887800Y517958D01*
X867410Y532618D02*
X862330Y542778D01*
X872490D01*
X867410Y532618D01*
X863096Y538181D02*
X858016Y548341D01*
X868176D01*
X863096Y538181D01*
X1136130Y555096D02*
Y565256D01*
X1146290D01*
Y555096D01*
X1136130D01*
X1138162Y557128D02*
Y563224D01*
X1144258D01*
Y557128D01*
X1138162D01*
X718547Y413023D02*
Y423183D01*
X728707D01*
Y413023D01*
X718547D01*
X720579Y415055D02*
Y421151D01*
X726675D01*
Y415055D01*
X720579D01*
X724229Y505789D02*
Y515949D01*
X734389D01*
Y505789D01*
X724229D01*
X726261Y507821D02*
Y513917D01*
X732357D01*
Y507821D01*
X726261D01*
X1051560Y544830D02*
X1046480Y554990D01*
X1056640D01*
X1051560Y544830D01*
X1042670D02*
X1037590Y554990D01*
X1047750D01*
X1042670Y544830D01*
X788670Y426270D02*
X783590Y436430D01*
X793750D01*
X788670Y426270D01*
Y455930D02*
X783590Y466090D01*
X793750D01*
X788670Y455930D01*
X713232Y539242D02*
Y549402D01*
X723392D01*
Y539242D01*
X713232D01*
X715264Y541274D02*
Y547370D01*
X721360D01*
Y541274D01*
X715264D01*
X1337310Y783844D02*
Y794004D01*
X1347470D01*
Y783844D01*
X1337310D01*
X1339342Y785876D02*
Y791972D01*
X1345438D01*
Y785876D01*
X1339342D01*
X869188Y651800D02*
Y661960D01*
X879348D01*
Y651800D01*
X869188D01*
X871220Y653832D02*
Y659928D01*
X877316D01*
Y653832D01*
X871220D01*
X933704Y596138D02*
Y606298D01*
X943864D01*
Y596138D01*
X933704D01*
X935736Y598170D02*
Y604266D01*
X941832D01*
Y598170D01*
X935736D01*
X890567Y471040D02*
X885488Y481200D01*
X895648D01*
X890567Y471040D01*
X918301Y495752D02*
Y505912D01*
X928461D01*
Y495752D01*
X918301D01*
X920333Y497784D02*
Y503880D01*
X926429D01*
Y497784D01*
X920333D01*
X884936Y464312D02*
X879856Y474472D01*
X890016D01*
X884936Y464312D01*
X906272Y510794D02*
Y520954D01*
X916432D01*
Y510794D01*
X906272D01*
X908304Y512826D02*
Y518922D01*
X914400D01*
Y512826D01*
X908304D01*
X906272Y495825D02*
Y505985D01*
X916432D01*
Y495825D01*
X906272D01*
X908304Y497857D02*
Y503953D01*
X914400D01*
Y497857D01*
X908304D01*
X883920Y510540D02*
X878840Y520700D01*
X889000D01*
X883920Y510540D01*
X1095294Y636986D02*
Y647146D01*
X1105454D01*
Y636986D01*
X1095294D01*
X1097326Y639018D02*
Y645114D01*
X1103422D01*
Y639018D01*
X1097326D01*
X1104900Y646430D02*
Y656590D01*
X1115060D01*
Y646430D01*
X1104900D01*
X1106932Y648462D02*
Y654558D01*
X1113028D01*
Y648462D01*
X1106932D01*
X1061093Y641304D02*
Y651464D01*
X1071253D01*
Y641304D01*
X1061093D01*
X1063125Y643336D02*
Y649432D01*
X1069221D01*
Y643336D01*
X1063125D01*
X1207770Y784860D02*
Y795020D01*
X1217930D01*
Y784860D01*
X1207770D01*
X1209802Y786892D02*
Y792988D01*
X1215898D01*
Y786892D01*
X1209802D01*
X1047841Y641351D02*
Y651511D01*
X1058001D01*
Y641351D01*
X1047841D01*
X1049873Y643383D02*
Y649479D01*
X1055969D01*
Y643383D01*
X1049873D01*
X917031Y510794D02*
Y520954D01*
X927191D01*
Y510794D01*
X917031D01*
X919063Y512826D02*
Y518922D01*
X925159D01*
Y512826D01*
X919063D01*
X1036320Y641350D02*
Y651510D01*
X1046480D01*
Y641350D01*
X1036320D01*
X1038352Y643382D02*
Y649478D01*
X1044448D01*
Y643382D01*
X1038352D01*
X1010920Y641350D02*
Y651510D01*
X1021080D01*
Y641350D01*
X1010920D01*
X1012952Y643382D02*
Y649478D01*
X1019048D01*
Y643382D01*
X1012952D01*
X1023620Y641350D02*
Y651510D01*
X1033780D01*
Y641350D01*
X1023620D01*
X1025652Y643382D02*
Y649478D01*
X1031748D01*
Y643382D01*
X1025652D01*
X998220Y641350D02*
Y651510D01*
X1008380D01*
Y641350D01*
X998220D01*
X1000252Y643382D02*
Y649478D01*
X1006348D01*
Y643382D01*
X1000252D01*
X972820Y641350D02*
Y651510D01*
X982980D01*
Y641350D01*
X972820D01*
X974852Y643382D02*
Y649478D01*
X980948D01*
Y643382D01*
X974852D01*
X960120Y641350D02*
Y651510D01*
X970280D01*
Y641350D01*
X960120D01*
X962152Y643382D02*
Y649478D01*
X968248D01*
Y643382D01*
X962152D01*
X985520Y641350D02*
Y651510D01*
X995680D01*
Y641350D01*
X985520D01*
X987552Y643382D02*
Y649478D01*
X993648D01*
Y643382D01*
X987552D01*
X924306Y451104D02*
Y461264D01*
X934466D01*
Y451104D01*
X924306D01*
X926338Y453136D02*
Y459232D01*
X932434D01*
Y453136D01*
X926338D01*
X999998Y432054D02*
Y442214D01*
X1010158D01*
Y432054D01*
X999998D01*
X1002030Y434086D02*
Y440182D01*
X1008126D01*
Y434086D01*
X1002030D01*
X1060704Y420116D02*
Y430276D01*
X1070864D01*
Y420116D01*
X1060704D01*
X1062736Y422148D02*
Y428244D01*
X1068832D01*
Y422148D01*
X1062736D01*
X1087628Y527812D02*
Y537972D01*
X1097788D01*
Y527812D01*
X1087628D01*
X1089660Y529844D02*
Y535940D01*
X1095756D01*
Y529844D01*
X1089660D01*
X1066292Y512572D02*
Y522732D01*
X1076452D01*
Y512572D01*
X1066292D01*
X1068324Y514604D02*
Y520700D01*
X1074420D01*
Y514604D01*
X1068324D01*
X1137920Y522986D02*
X1132840Y533146D01*
X1143000D01*
X1137920Y522986D01*
X1065276Y523240D02*
Y533400D01*
X1075436D01*
Y523240D01*
X1065276D01*
X1067308Y525272D02*
Y531368D01*
X1073404D01*
Y525272D01*
X1067308D01*
X1089924Y463550D02*
Y473710D01*
X1100084D01*
Y463550D01*
X1089924D01*
X1091956Y465582D02*
Y471678D01*
X1098052D01*
Y465582D01*
X1091956D01*
X1445514Y783590D02*
Y793750D01*
X1455674D01*
Y783590D01*
X1445514D01*
X1447546Y785622D02*
Y791718D01*
X1453642D01*
Y785622D01*
X1447546D01*
X1611630Y495554D02*
Y505714D01*
X1621790D01*
Y495554D01*
X1611630D01*
X1613662Y497586D02*
Y503682D01*
X1619758D01*
Y497586D01*
X1613662D01*
X1227682Y785268D02*
Y795428D01*
X1237842D01*
Y785268D01*
X1227682D01*
X1229714Y787300D02*
Y793396D01*
X1235810D01*
Y787300D01*
X1229714D01*
X1167130Y600710D02*
Y610870D01*
X1177290D01*
Y600710D01*
X1167130D01*
X1169162Y602742D02*
Y608838D01*
X1175258D01*
Y602742D01*
X1169162D01*
X1238250Y784860D02*
Y795020D01*
X1248410D01*
Y784860D01*
X1238250D01*
X1240282Y786892D02*
Y792988D01*
X1246378D01*
Y786892D01*
X1240282D01*
X1217930Y784860D02*
Y795020D01*
X1228090D01*
Y784860D01*
X1217930D01*
X1219962Y786892D02*
Y792988D01*
X1226058D01*
Y786892D01*
X1219962D01*
X1116330Y774700D02*
Y784860D01*
X1126490D01*
Y774700D01*
X1116330D01*
X1118362Y776732D02*
Y782828D01*
X1124458D01*
Y776732D01*
X1118362D01*
X788670Y468630D02*
X783590Y478790D01*
X793750D01*
X788670Y468630D01*
Y439420D02*
X783590Y449580D01*
X793750D01*
X788670Y439420D01*
X1276773Y339090D02*
Y349250D01*
X1286933D01*
Y339090D01*
X1276773D01*
X1278805Y341122D02*
Y347218D01*
X1284901D01*
Y341122D01*
X1278805D01*
X1268307Y339090D02*
Y349250D01*
X1278467D01*
Y339090D01*
X1268307D01*
X1270339Y341122D02*
Y347218D01*
X1276435D01*
Y341122D01*
X1270339D01*
X1259840Y339090D02*
Y349250D01*
X1270000D01*
Y339090D01*
X1259840D01*
X1261872Y341122D02*
Y347218D01*
X1267968D01*
Y341122D01*
X1261872D01*
X1435100Y783590D02*
Y793750D01*
X1445260D01*
Y783590D01*
X1435100D01*
X1437132Y785622D02*
Y791718D01*
X1443228D01*
Y785622D01*
X1437132D01*
X751840Y613410D02*
Y623570D01*
X762000D01*
Y613410D01*
X751840D01*
X753872Y615442D02*
Y621538D01*
X759968D01*
Y615442D01*
X753872D01*
X759460Y560070D02*
Y570230D01*
X769620D01*
Y560070D01*
X759460D01*
X761492Y562102D02*
Y568198D01*
X767588D01*
Y562102D01*
X761492D01*
X1035050Y816945D02*
Y827105D01*
X1045210D01*
Y816945D01*
X1035050D01*
X1037082Y818977D02*
Y825073D01*
X1043178D01*
Y818977D01*
X1037082D01*
X765810Y502920D02*
Y513080D01*
X775970D01*
Y502920D01*
X765810D01*
X767842Y504952D02*
Y511048D01*
X773938D01*
Y504952D01*
X767842D01*
X891540Y651510D02*
X886460Y661670D01*
X896620D01*
X891540Y651510D01*
X1289812Y767080D02*
Y777240D01*
X1299972D01*
Y767080D01*
X1289812D01*
X1291844Y769112D02*
Y775208D01*
X1297940D01*
Y769112D01*
X1291844D01*
X1116330Y750570D02*
Y760730D01*
X1126490D01*
Y750570D01*
X1116330D01*
X1118362Y752602D02*
Y758698D01*
X1124458D01*
Y752602D01*
X1118362D01*
X1144270Y826770D02*
Y836930D01*
X1154430D01*
Y826770D01*
X1144270D01*
X1146302Y828802D02*
Y834898D01*
X1152398D01*
Y828802D01*
X1146302D01*
X1113790Y637540D02*
Y647700D01*
X1123950D01*
Y637540D01*
X1113790D01*
X1115822Y639572D02*
Y645668D01*
X1121918D01*
Y639572D01*
X1115822D01*
X811530Y646430D02*
X806450Y656590D01*
X816610D01*
X811530Y646430D01*
X947420Y816945D02*
Y827105D01*
X957580D01*
Y816945D01*
X947420D01*
X949452Y818977D02*
Y825073D01*
X955548D01*
Y818977D01*
X949452D01*
X1008045Y816945D02*
Y827105D01*
X1018205D01*
Y816945D01*
X1008045D01*
X1010077Y818977D02*
Y825073D01*
X1016173D01*
Y818977D01*
X1010077D01*
X995345Y816945D02*
Y827105D01*
X1005505D01*
Y816945D01*
X995345D01*
X997377Y818977D02*
Y825073D01*
X1003473D01*
Y818977D01*
X997377D01*
X811530Y635000D02*
X806450Y645160D01*
X816610D01*
X811530Y635000D01*
X1023620Y816945D02*
Y827105D01*
X1033780D01*
Y816945D01*
X1023620D01*
X1025652Y818977D02*
Y825073D01*
X1031748D01*
Y818977D01*
X1025652D01*
X1074420Y816945D02*
Y827105D01*
X1084580D01*
Y816945D01*
X1074420D01*
X1076452Y818977D02*
Y825073D01*
X1082548D01*
Y818977D01*
X1076452D01*
X953770Y641640D02*
X948690Y651800D01*
X958850D01*
X953770Y641640D01*
X1055247Y567690D02*
X1050167Y577850D01*
X1060327D01*
X1055247Y567690D01*
X1037713D02*
X1032633Y577850D01*
X1042793D01*
X1037713Y567690D01*
D111*
X1608490Y665734D02*
G03*
X1608490Y665734I-5080J0D01*
G01*
Y614934D02*
G03*
X1608490Y614934I-5080J0D01*
G01*
X1482090Y589534D02*
G03*
X1482090Y589534I-5080J0D01*
G01*
Y614934D02*
G03*
X1482090Y614934I-5080J0D01*
G01*
Y640334D02*
G03*
X1482090Y640334I-5080J0D01*
G01*
Y665734D02*
G03*
X1482090Y665734I-5080J0D01*
G01*
X1583090Y538734D02*
G03*
X1583090Y538734I-5080J0D01*
G01*
X1557690D02*
G03*
X1557690Y538734I-5080J0D01*
G01*
X1482090Y538735D02*
G03*
X1482090Y538735I-5080J0D01*
G01*
X1608490Y691134D02*
G03*
X1608490Y691134I-5080J0D01*
G01*
Y640334D02*
G03*
X1608490Y640334I-5080J0D01*
G01*
Y538735D02*
G03*
X1608490Y538735I-5080J0D01*
G01*
Y716534D02*
G03*
X1608490Y716534I-5080J0D01*
G01*
Y589534D02*
G03*
X1608490Y589534I-5080J0D01*
G01*
X1482090Y691134D02*
G03*
X1482090Y691134I-5080J0D01*
G01*
Y716534D02*
G03*
X1482090Y716534I-5080J0D01*
G01*
Y564134D02*
G03*
X1482090Y564134I-5080J0D01*
G01*
X1608490D02*
G03*
X1608490Y564134I-5080J0D01*
G01*
X1206592Y587756D02*
G03*
X1206592Y587756I-5080J0D01*
G01*
Y638556D02*
G03*
X1206592Y638556I-5080J0D01*
G01*
X1332992Y663956D02*
G03*
X1332992Y663956I-5080J0D01*
G01*
Y638556D02*
G03*
X1332992Y638556I-5080J0D01*
G01*
Y613156D02*
G03*
X1332992Y613156I-5080J0D01*
G01*
Y587756D02*
G03*
X1332992Y587756I-5080J0D01*
G01*
X1231992Y714756D02*
G03*
X1231992Y714756I-5080J0D01*
G01*
X1257392D02*
G03*
X1257392Y714756I-5080J0D01*
G01*
X1332992Y714756D02*
G03*
X1332992Y714756I-5080J0D01*
G01*
X1206592Y613156D02*
G03*
X1206592Y613156I-5080J0D01*
G01*
Y562356D02*
G03*
X1206592Y562356I-5080J0D01*
G01*
Y714756D02*
G03*
X1206592Y714756I-5080J0D01*
G01*
Y536956D02*
G03*
X1206592Y536956I-5080J0D01*
G01*
Y663956D02*
G03*
X1206592Y663956I-5080J0D01*
G01*
X1332992Y562356D02*
G03*
X1332992Y562356I-5080J0D01*
G01*
Y689356D02*
G03*
X1332992Y689356I-5080J0D01*
G01*
Y536956D02*
G03*
X1332992Y536956I-5080J0D01*
G01*
X1206592Y689356D02*
G03*
X1206592Y689356I-5080J0D01*
G01*
X1601470Y298450D02*
G03*
X1601470Y298450I-5080J0D01*
G01*
X679450Y300990D02*
G03*
X679450Y300990I-5080J0D01*
G01*
Y814070D02*
G03*
X679450Y814070I-5080J0D01*
G01*
X1601470D02*
G03*
X1601470Y814070I-5080J0D01*
G01*
D112*
X1599438Y298450D02*
G03*
X1599438Y298450I-3048J0D01*
G01*
X677418Y300990D02*
G03*
X677418Y300990I-3048J0D01*
G01*
Y814070D02*
G03*
X677418Y814070I-3048J0D01*
G01*
X1599438D02*
G03*
X1599438Y814070I-3048J0D01*
G01*
M02*
