G04*
G04 #@! TF.GenerationSoftware,Altium Limited,Altium Designer,26.5.0 (11)*
G04*
G04 Layer_Color=32768*
G04 Board_Origin=0|0*
%FSLAX44Y44*%
%MOMM*%
G71*
G04*
G04 #@! TF.SameCoordinates,A90659DB-F331-4761-9575-B882DE05BAF6*
G04*
G04*
G04 #@! TF.FilePolarity,Positive*
G04*
G01*
G75*
%ADD107C,0.0500*%
%ADD109C,0.2500*%
%ADD110C,0.0508*%
G36*
X1168614Y814301D02*
X1170519D01*
Y813539D01*
X1168614D01*
Y811888D01*
X1167852D01*
Y813539D01*
X1166201D01*
Y814301D01*
X1167852D01*
Y816206D01*
X1168614D01*
Y814301D01*
D02*
G37*
G36*
Y797410D02*
X1167598D01*
Y801474D01*
X1168614D01*
Y797410D01*
D02*
G37*
G36*
X898040Y724368D02*
X893976D01*
Y725384D01*
X898040D01*
Y724368D01*
D02*
G37*
G36*
X881911Y725384D02*
X883562D01*
Y724622D01*
X881911D01*
Y722971D01*
X881149D01*
Y724622D01*
X879244D01*
Y725384D01*
X881149D01*
Y727289D01*
X881911D01*
Y725384D01*
D02*
G37*
G36*
X881610Y562716D02*
X878610D01*
Y564216D01*
X881610D01*
Y562716D01*
D02*
G37*
G36*
X870180D02*
X867180D01*
Y564216D01*
X870180D01*
Y562716D01*
D02*
G37*
G36*
X881610Y558815D02*
X881859D01*
X882210Y558464D01*
Y557967D01*
X881859Y557616D01*
X881362D01*
X881010Y557967D01*
Y558215D01*
X878610D01*
Y559715D01*
X881610D01*
Y558815D01*
D02*
G37*
G36*
X870180D02*
X870429D01*
X870780Y558464D01*
Y557967D01*
X870429Y557616D01*
X869932D01*
X869580Y557967D01*
Y558215D01*
X867180D01*
Y559715D01*
X870180D01*
Y558815D01*
D02*
G37*
G36*
X735498Y538551D02*
X733938D01*
Y544791D01*
X735498D01*
Y538551D01*
D02*
G37*
G36*
Y527812D02*
X739918D01*
Y526251D01*
X735498D01*
Y523912D01*
X733938D01*
Y526251D01*
X729518D01*
Y527812D01*
X733938D01*
Y530152D01*
X735498D01*
Y527812D01*
D02*
G37*
G36*
X734760Y476440D02*
X731966Y478726D01*
X737554D01*
X734760Y476440D01*
D02*
G37*
G36*
X737554Y474154D02*
X731966D01*
X734760Y476440D01*
X737554Y474154D01*
D02*
G37*
G36*
X807035Y472210D02*
X805535D01*
Y475210D01*
X807035D01*
Y472210D01*
D02*
G37*
G36*
X802534D02*
X801634D01*
Y471961D01*
X801283Y471610D01*
X800786D01*
X800434Y471961D01*
Y472210D01*
Y472458D01*
X800786Y472810D01*
X801034D01*
Y475210D01*
X802534D01*
Y472210D01*
D02*
G37*
G36*
X1290919Y464820D02*
X1280919D01*
Y466320D01*
X1290919D01*
Y464820D01*
D02*
G37*
G36*
X807035Y458855D02*
X805535D01*
Y461856D01*
X807035D01*
Y458855D01*
D02*
G37*
G36*
X1472488Y463959D02*
X1478930D01*
Y461959D01*
X1472488D01*
Y458306D01*
X1470988D01*
Y461959D01*
X1464930D01*
Y463959D01*
X1470988D01*
Y468306D01*
X1472488D01*
Y463959D01*
D02*
G37*
G36*
X802534Y458855D02*
X801634D01*
Y458607D01*
X801283Y458255D01*
X800786D01*
X800434Y458607D01*
Y458855D01*
Y459104D01*
X800786Y459455D01*
X801034D01*
Y461856D01*
X802534D01*
Y458855D01*
D02*
G37*
G36*
X1264919Y465378D02*
X1268573D01*
Y463878D01*
X1264919D01*
Y457820D01*
X1262919D01*
Y463878D01*
X1258573D01*
Y465378D01*
X1262919D01*
Y471820D01*
X1264919D01*
Y465378D01*
D02*
G37*
G36*
X734760Y450661D02*
X737554Y448374D01*
X731966D01*
X734760Y450661D01*
X731966Y452947D01*
X737554D01*
X734760Y450661D01*
D02*
G37*
G36*
X807035Y443096D02*
X805535D01*
Y446096D01*
X807035D01*
Y443096D01*
D02*
G37*
G36*
X802534D02*
X801634D01*
Y442847D01*
X801283Y442496D01*
X800786D01*
X800434Y442847D01*
Y443096D01*
Y443344D01*
X800786Y443696D01*
X801034D01*
Y446096D01*
X802534D01*
Y443096D01*
D02*
G37*
G36*
X1473430Y435959D02*
X1471930D01*
Y445959D01*
X1473430D01*
Y435959D01*
D02*
G37*
G36*
X807031Y430396D02*
X805531D01*
Y433396D01*
X807031D01*
Y430396D01*
D02*
G37*
G36*
X802531D02*
X801631D01*
Y430147D01*
X801280Y429796D01*
X800783D01*
X800431Y430147D01*
Y430396D01*
Y430644D01*
X800783Y430996D01*
X801031D01*
Y433396D01*
X802531D01*
Y430396D01*
D02*
G37*
G36*
X734760Y408750D02*
X737554Y406465D01*
X731966D01*
X734760Y408750D01*
X731966Y411036D01*
X737554D01*
X734760Y408750D01*
D02*
G37*
G36*
X1364789Y406885D02*
X1370847D01*
Y404885D01*
X1364789D01*
Y401231D01*
X1363289D01*
Y404885D01*
X1356848D01*
Y406885D01*
X1363289D01*
Y411231D01*
X1364789D01*
Y406885D01*
D02*
G37*
G36*
X1334094D02*
X1340152D01*
Y404885D01*
X1334094D01*
Y401231D01*
X1332594D01*
Y404885D01*
X1326152D01*
Y406885D01*
X1332594D01*
Y411231D01*
X1334094D01*
Y406885D01*
D02*
G37*
G36*
X1303398D02*
X1309456D01*
Y404885D01*
X1303398D01*
Y401231D01*
X1301898D01*
Y404885D01*
X1295456D01*
Y406885D01*
X1301898D01*
Y411231D01*
X1303398D01*
Y406885D01*
D02*
G37*
G36*
X1272703D02*
X1278761D01*
Y404885D01*
X1272703D01*
Y401231D01*
X1271203D01*
Y404885D01*
X1264761D01*
Y406885D01*
X1271203D01*
Y411231D01*
X1272703D01*
Y406885D01*
D02*
G37*
G36*
X1363847Y378885D02*
X1362347D01*
Y388885D01*
X1363847D01*
Y378885D01*
D02*
G37*
G36*
X1333152D02*
X1331652D01*
Y388885D01*
X1333152D01*
Y378885D01*
D02*
G37*
G36*
X1302456D02*
X1300956D01*
Y388885D01*
X1302456D01*
Y378885D01*
D02*
G37*
G36*
X1271761D02*
X1270261D01*
Y388885D01*
X1271761D01*
Y378885D01*
D02*
G37*
G36*
X1471392Y374402D02*
X1477107D01*
Y371862D01*
X1471392D01*
Y366147D01*
X1468852D01*
Y371862D01*
X1463137D01*
Y374402D01*
X1468852D01*
Y380117D01*
X1471392D01*
Y374402D01*
D02*
G37*
G36*
X1176519Y353358D02*
Y353110D01*
Y352861D01*
X1176168Y352510D01*
X1175671D01*
X1175319Y352861D01*
Y353110D01*
Y353358D01*
X1175671Y353710D01*
X1176168D01*
X1176519Y353358D01*
D02*
G37*
G36*
X1471392Y324237D02*
X1468852D01*
Y338207D01*
X1471392D01*
Y324237D01*
D02*
G37*
G36*
X1128420Y318110D02*
X1122020D01*
Y324510D01*
X1128420D01*
Y318110D01*
D02*
G37*
G36*
X1103020D02*
X1096620D01*
Y324510D01*
X1103020D01*
Y318110D01*
D02*
G37*
G36*
X1077620D02*
X1071220D01*
Y324510D01*
X1077620D01*
Y318110D01*
D02*
G37*
G36*
X1052220D02*
X1045820D01*
Y324510D01*
X1052220D01*
Y318110D01*
D02*
G37*
G36*
X1026820D02*
X1020420D01*
Y324510D01*
X1026820D01*
Y318110D01*
D02*
G37*
G36*
X1001420D02*
X995020D01*
Y324510D01*
X1001420D01*
Y318110D01*
D02*
G37*
G36*
X976020D02*
X969620D01*
Y324510D01*
X976020D01*
Y318110D01*
D02*
G37*
G36*
X950620D02*
X944220D01*
Y324510D01*
X950620D01*
Y318110D01*
D02*
G37*
G36*
X925220D02*
X918820D01*
Y324510D01*
X925220D01*
Y318110D01*
D02*
G37*
G36*
X899820D02*
X893420D01*
Y324510D01*
X899820D01*
Y318110D01*
D02*
G37*
G36*
X874420D02*
X868020D01*
Y324510D01*
X874420D01*
Y318110D01*
D02*
G37*
G36*
X849020D02*
X842620D01*
Y324510D01*
X849020D01*
Y318110D01*
D02*
G37*
G36*
X823620D02*
X817220D01*
Y324510D01*
X823620D01*
Y318110D01*
D02*
G37*
G36*
X798220D02*
X791820D01*
Y324510D01*
X798220D01*
Y318110D01*
D02*
G37*
G36*
X772820D02*
X766420D01*
Y324510D01*
X772820D01*
Y318110D01*
D02*
G37*
G36*
X1571886Y304886D02*
Y304637D01*
Y304389D01*
X1571534Y304037D01*
X1571037D01*
X1570686Y304389D01*
Y304637D01*
Y304886D01*
X1571037Y305237D01*
X1571534D01*
X1571886Y304886D01*
D02*
G37*
G36*
X1128420Y292710D02*
X1122020D01*
Y299110D01*
X1128420D01*
Y292710D01*
D02*
G37*
G36*
X1103020D02*
X1096620D01*
Y299110D01*
X1103020D01*
Y292710D01*
D02*
G37*
G36*
X1077620D02*
X1071220D01*
Y299110D01*
X1077620D01*
Y292710D01*
D02*
G37*
G36*
X1052220D02*
X1045820D01*
Y299110D01*
X1052220D01*
Y292710D01*
D02*
G37*
G36*
X1026820D02*
X1020420D01*
Y299110D01*
X1026820D01*
Y292710D01*
D02*
G37*
G36*
X1001420D02*
X995020D01*
Y299110D01*
X1001420D01*
Y292710D01*
D02*
G37*
G36*
X976020D02*
X969620D01*
Y299110D01*
X976020D01*
Y292710D01*
D02*
G37*
G36*
X950620D02*
X944220D01*
Y299110D01*
X950620D01*
Y292710D01*
D02*
G37*
G36*
X925220D02*
X918820D01*
Y299110D01*
X925220D01*
Y292710D01*
D02*
G37*
G36*
X899820D02*
X893420D01*
Y299110D01*
X899820D01*
Y292710D01*
D02*
G37*
G36*
X874420D02*
X868020D01*
Y299110D01*
X874420D01*
Y292710D01*
D02*
G37*
G36*
X849020D02*
X842620D01*
Y299110D01*
X849020D01*
Y292710D01*
D02*
G37*
G36*
X823620D02*
X817220D01*
Y299110D01*
X823620D01*
Y292710D01*
D02*
G37*
G36*
X798220D02*
X791820D01*
Y299110D01*
X798220D01*
Y292710D01*
D02*
G37*
G36*
X772820D02*
X766420D01*
Y299110D01*
X772820D01*
Y292710D01*
D02*
G37*
G36*
X1552282Y278757D02*
X1553407Y277632D01*
X1554016Y276162D01*
Y275366D01*
Y274570D01*
X1553407Y273100D01*
X1552282Y271975D01*
X1550812Y271366D01*
X1549220D01*
X1547750Y271975D01*
X1546625Y273100D01*
X1546016Y274570D01*
Y275366D01*
Y276162D01*
X1546625Y277632D01*
X1547750Y278757D01*
X1549220Y279366D01*
X1550812D01*
X1552282Y278757D01*
D02*
G37*
G36*
X1532282D02*
X1533407Y277632D01*
X1534016Y276162D01*
Y275366D01*
Y274570D01*
X1533407Y273100D01*
X1532282Y271975D01*
X1530812Y271366D01*
X1529220D01*
X1527750Y271975D01*
X1526625Y273100D01*
X1526016Y274570D01*
Y275366D01*
Y276162D01*
X1526625Y277632D01*
X1527750Y278757D01*
X1529220Y279366D01*
X1530812D01*
X1532282Y278757D01*
D02*
G37*
G36*
X1512282D02*
X1513407Y277632D01*
X1514016Y276162D01*
Y275366D01*
Y274570D01*
X1513407Y273100D01*
X1512282Y271975D01*
X1510812Y271366D01*
X1509220D01*
X1507750Y271975D01*
X1506625Y273100D01*
X1506016Y274570D01*
Y275366D01*
Y276162D01*
X1506625Y277632D01*
X1507750Y278757D01*
X1509220Y279366D01*
X1510812D01*
X1512282Y278757D01*
D02*
G37*
G36*
X1492282D02*
X1493407Y277632D01*
X1494016Y276162D01*
Y275366D01*
Y274570D01*
X1493407Y273100D01*
X1492282Y271975D01*
X1490812Y271366D01*
X1489220D01*
X1487750Y271975D01*
X1486625Y273100D01*
X1486016Y274570D01*
Y275366D01*
Y276162D01*
X1486625Y277632D01*
X1487750Y278757D01*
X1489220Y279366D01*
X1490812D01*
X1492282Y278757D01*
D02*
G37*
D107*
X1451870Y397060D02*
Y436060D01*
X1485870Y397060D02*
Y436060D01*
X1451870Y397060D02*
X1485870D01*
X1451870Y436060D02*
X1485870D01*
X1491750Y404760D02*
X1619750D01*
Y326760D02*
Y404760D01*
X1491750Y326760D02*
X1619750D01*
X1491750D02*
Y404760D01*
X1315890Y255320D02*
X1368890D01*
X1315890D02*
Y302320D01*
X1368890D01*
Y255320D02*
Y302320D01*
X1257470Y255320D02*
X1310470D01*
X1257470D02*
Y302320D01*
X1310470D01*
Y255320D02*
Y302320D01*
X1195240Y255320D02*
X1248240D01*
X1195240D02*
Y302320D01*
X1248240D01*
Y255320D02*
Y302320D01*
X1127020Y583600D02*
Y635600D01*
X971020D02*
X1127020D01*
X971020Y583600D02*
Y635600D01*
Y583600D02*
X1127020D01*
X1471680Y798990D02*
Y859490D01*
X1408680D02*
X1471680D01*
X1408680Y798990D02*
Y859490D01*
Y798990D02*
X1471680D01*
X1363645D02*
Y859490D01*
X1300645D02*
X1363645D01*
X1300645Y798990D02*
Y859490D01*
Y798990D02*
X1363645D01*
X1191830Y798740D02*
X1264830D01*
X1191830D02*
Y859240D01*
X1264830D01*
Y798740D02*
Y859240D01*
X912940Y651530D02*
Y846530D01*
X1114940D01*
Y651530D02*
Y846530D01*
X912940Y651530D02*
X1114940D01*
X1405550Y526730D02*
Y534730D01*
Y605730D02*
Y613730D01*
X1426550D01*
Y605730D02*
Y613730D01*
Y526730D02*
Y534730D01*
X1405550Y526730D02*
X1426550D01*
X1391800Y534730D02*
X1405550D01*
X1380550Y545980D02*
X1391800Y534730D01*
X1380550Y545980D02*
Y605730D01*
X1405550D01*
X1426550D02*
X1451550D01*
Y545980D02*
Y605730D01*
X1440300Y534730D02*
X1451550Y545980D01*
X1426550Y534730D02*
X1440300D01*
X1302040Y361365D02*
Y393015D01*
X1370040D01*
Y361365D02*
Y393015D01*
X1302040Y361365D02*
X1370040D01*
X1302800Y282855D02*
Y336905D01*
X1376900Y282855D02*
Y336905D01*
X1302800Y282855D02*
X1376900D01*
X1302800Y336905D02*
X1376900D01*
X1324270Y422063D02*
Y459563D01*
Y422063D02*
X1346520D01*
Y405813D02*
Y422063D01*
Y405813D02*
X1386520D01*
Y410563D01*
X1408770D01*
Y471063D01*
X1386520D02*
X1408770D01*
X1386520D02*
Y475813D01*
X1346520D02*
X1386520D01*
X1346520Y459563D02*
Y475813D01*
X1324270Y459563D02*
X1346520D01*
X988040Y514610D02*
X1061340D01*
X988040Y441310D02*
Y514610D01*
Y441310D02*
X1061340D01*
Y514610D01*
X1370210Y730190D02*
X1383960D01*
X1358960Y718940D02*
X1370210Y730190D01*
X1358960Y659190D02*
Y718940D01*
Y659190D02*
X1383960D01*
X1404960D02*
X1429960D01*
Y718940D01*
X1418710Y730190D02*
X1429960Y718940D01*
X1404960Y730190D02*
X1418710D01*
X1383960Y738190D02*
X1404960D01*
X1383960Y730190D02*
Y738190D01*
Y651190D02*
Y659190D01*
Y651190D02*
X1404960D01*
Y659190D01*
Y730190D02*
Y738190D01*
X1493475Y513140D02*
X1605575D01*
X1493475Y462140D02*
X1605575D01*
X1493475D02*
Y513140D01*
X1605575Y462140D02*
Y513140D01*
D109*
X700517Y438790D02*
G03*
X700517Y438790I-1250J0D01*
G01*
Y496788D02*
G03*
X700517Y496788I-1250J0D01*
G01*
D110*
X1468746Y257096D02*
Y304637D01*
Y257096D02*
X1571286D01*
Y304637D01*
X1468746D02*
X1571286D01*
X801031Y430396D02*
Y433396D01*
X807031D01*
Y430396D02*
Y433396D01*
X801031Y430396D02*
X807031D01*
X1175919Y264110D02*
Y353110D01*
X718920Y264110D02*
X1175919D01*
X718920D02*
Y353110D01*
X1175919D01*
X867180Y558215D02*
X870180D01*
X867180D02*
Y564216D01*
X870180D01*
Y558215D02*
Y564216D01*
X878610Y558215D02*
X881610D01*
X878610D02*
Y564216D01*
X881610D01*
Y558215D02*
Y564216D01*
X801034Y458855D02*
Y461856D01*
X807035D01*
Y458855D02*
Y461856D01*
X801034Y458855D02*
X807035D01*
X801034Y472210D02*
Y475210D01*
X807035D01*
Y472210D02*
Y475210D01*
X801034Y472210D02*
X807035D01*
X801034Y443096D02*
X807035D01*
Y446096D01*
X801034D02*
X807035D01*
X801034Y443096D02*
Y446096D01*
M02*
