G04*
G04 #@! TF.GenerationSoftware,Altium Limited,Altium Designer,26.5.0 (11)*
G04*
G04 Layer_Color=128*
G04 Board_Origin=0|0*
%FSLAX44Y44*%
%MOMM*%
G71*
G04*
G04 #@! TF.SameCoordinates,A90659DB-F331-4761-9575-B882DE05BAF6*
G04*
G04*
G04 #@! TF.FilePolarity,Positive*
G04*
G01*
G75*
%ADD14C,0.1270*%
D14*
X1485016Y275366D02*
X1495016D01*
X1490016Y270366D02*
Y280366D01*
X1505016Y275366D02*
X1515016D01*
X1510016Y270366D02*
Y280366D01*
X1545016Y275366D02*
X1555016D01*
X1550016Y270366D02*
Y280366D01*
X1525016Y275366D02*
X1535016D01*
X1530016Y270366D02*
Y280366D01*
X1598837Y665734D02*
X1607982D01*
X1603409Y661162D02*
Y670306D01*
X1598837Y614934D02*
X1607982D01*
X1603409Y610362D02*
Y619506D01*
X1472438Y589534D02*
X1481582D01*
X1477010Y584962D02*
Y594106D01*
X1472438Y614934D02*
X1481582D01*
X1477010Y610362D02*
Y619506D01*
X1472438Y640334D02*
X1481582D01*
X1477010Y635762D02*
Y644906D01*
X1472438Y665734D02*
X1481582D01*
X1477010Y661162D02*
Y670306D01*
X1573438Y538734D02*
X1582582D01*
X1578010Y534162D02*
Y543306D01*
X1548038Y538734D02*
X1557182D01*
X1552610Y534162D02*
Y543306D01*
X1472438Y538735D02*
X1481582D01*
X1477010Y534162D02*
Y543307D01*
X1598837Y691134D02*
X1607982D01*
X1603409Y686562D02*
Y695706D01*
X1598837Y640334D02*
X1607982D01*
X1603409Y635762D02*
Y644906D01*
X1598837Y538735D02*
X1607982D01*
X1603409Y534162D02*
Y543307D01*
X1598837Y716534D02*
X1607982D01*
X1603409Y711962D02*
Y721106D01*
X1598837Y589534D02*
X1607982D01*
X1603409Y584962D02*
Y594106D01*
X1472438Y691134D02*
X1481582D01*
X1477010Y686562D02*
Y695706D01*
X1472438Y716534D02*
X1481582D01*
X1477010Y711962D02*
Y721106D01*
X1472438Y564134D02*
X1481582D01*
X1477010Y559562D02*
Y568707D01*
X1598837Y564134D02*
X1607982D01*
X1603409Y559562D02*
Y568707D01*
X1499950Y340360D02*
X1509950D01*
X1504950Y335360D02*
Y345360D01*
X1601550Y391160D02*
X1611550D01*
X1606550Y386160D02*
Y396160D01*
X1525350Y391160D02*
X1535350D01*
X1530350Y386160D02*
Y396160D01*
X1499950Y391160D02*
X1509950D01*
X1504950Y386160D02*
Y396160D01*
X1601550Y340360D02*
X1611550D01*
X1606550Y335360D02*
Y345360D01*
X1525350Y340360D02*
X1535350D01*
X1530350Y335360D02*
Y345360D01*
X695517Y496788D02*
X703017D01*
X699267Y493038D02*
Y500538D01*
X695517Y438790D02*
X703017D01*
X699267Y435039D02*
Y442540D01*
X658468Y424539D02*
X666468D01*
X662468Y420539D02*
Y428539D01*
X700267Y424539D02*
X708267D01*
X704268Y420539D02*
Y428539D01*
X700267Y511038D02*
X708267D01*
X704268Y507038D02*
Y515038D01*
X658468Y511038D02*
X666468D01*
X662468Y507038D02*
Y515038D01*
X1196940Y587756D02*
X1206084D01*
X1201512Y583184D02*
Y592328D01*
X1196940Y638556D02*
X1206084D01*
X1201512Y633984D02*
Y643128D01*
X1323340Y663956D02*
X1332484D01*
X1327912Y659384D02*
Y668528D01*
X1323340Y638556D02*
X1332484D01*
X1327912Y633984D02*
Y643128D01*
X1323340Y613156D02*
X1332484D01*
X1327912Y608584D02*
Y617728D01*
X1323340Y587756D02*
X1332484D01*
X1327912Y583184D02*
Y592328D01*
X1222340Y714756D02*
X1231484D01*
X1226912Y710184D02*
Y719328D01*
X1247740Y714756D02*
X1256884D01*
X1252312Y710184D02*
Y719328D01*
X1323340Y714756D02*
X1332484D01*
X1327912Y710184D02*
Y719328D01*
X1196940Y613156D02*
X1206084D01*
X1201512Y608584D02*
Y617728D01*
X1196940Y562356D02*
X1206084D01*
X1201512Y557784D02*
Y566928D01*
X1196940Y714756D02*
X1206084D01*
X1201512Y710184D02*
Y719328D01*
X1196940Y536956D02*
X1206084D01*
X1201512Y532384D02*
Y541529D01*
X1196940Y663956D02*
X1206084D01*
X1201512Y659384D02*
Y668528D01*
X1323340Y562356D02*
X1332484D01*
X1327912Y557784D02*
Y566928D01*
X1323340Y689356D02*
X1332484D01*
X1327912Y684784D02*
Y693928D01*
X1323340Y536956D02*
X1332484D01*
X1327912Y532384D02*
Y541529D01*
X1196940Y689356D02*
X1206084D01*
X1201512Y684784D02*
Y693928D01*
X789920Y321310D02*
X800121D01*
X795021Y316210D02*
Y326410D01*
X840720Y321310D02*
X850920D01*
X845820Y316210D02*
Y326410D01*
X789920Y295910D02*
X800121D01*
X795021Y290810D02*
Y301010D01*
X764520Y295910D02*
X774721D01*
X769621Y290810D02*
Y301010D01*
X967720Y295910D02*
X977920D01*
X972820Y290810D02*
Y301010D01*
X764520Y321310D02*
X774721D01*
X769621Y316210D02*
Y326410D01*
X815320Y321310D02*
X825520D01*
X820420Y316210D02*
Y326410D01*
X1120120Y321310D02*
X1130320D01*
X1125220Y316210D02*
Y326410D01*
X1120120Y295910D02*
X1130320D01*
X1125220Y290810D02*
Y301010D01*
X1094720Y321310D02*
X1104920D01*
X1099820Y316210D02*
Y326410D01*
X1094720Y295910D02*
X1104920D01*
X1099820Y290810D02*
Y301010D01*
X1069320Y321310D02*
X1079520D01*
X1074420Y316210D02*
Y326410D01*
X1069320Y295910D02*
X1079520D01*
X1074420Y290810D02*
Y301010D01*
X1043920Y321310D02*
X1054120D01*
X1049020Y316210D02*
Y326410D01*
X1043920Y295910D02*
X1054120D01*
X1049020Y290810D02*
Y301010D01*
X1018520Y321310D02*
X1028720D01*
X1023620Y316210D02*
Y326410D01*
X1018520Y295910D02*
X1028720D01*
X1023620Y290810D02*
Y301010D01*
X993120Y321310D02*
X1003320D01*
X998220Y316210D02*
Y326410D01*
X993120Y295910D02*
X1003320D01*
X998220Y290810D02*
Y301010D01*
X967720Y321310D02*
X977920D01*
X972820Y316210D02*
Y326410D01*
X942320Y321310D02*
X952520D01*
X947420Y316210D02*
Y326410D01*
X942320Y295910D02*
X952520D01*
X947420Y290810D02*
Y301010D01*
X916920Y321310D02*
X927120D01*
X922020Y316210D02*
Y326410D01*
X916920Y295910D02*
X927120D01*
X922020Y290810D02*
Y301010D01*
X891520Y321310D02*
X901720D01*
X896620Y316210D02*
Y326410D01*
X891520Y295910D02*
X901720D01*
X896620Y290810D02*
Y301010D01*
X866120Y321310D02*
X876320D01*
X871220Y316210D02*
Y326410D01*
X866120Y295910D02*
X876320D01*
X871220Y290810D02*
Y301010D01*
X840720Y295910D02*
X850920D01*
X845820Y290810D02*
Y301010D01*
X815320Y295910D02*
X825520D01*
X820420Y290810D02*
Y301010D01*
X1579890Y298450D02*
X1612890D01*
X1596390Y281950D02*
Y314950D01*
X657870Y300990D02*
X690870D01*
X674370Y284490D02*
Y317490D01*
X657870Y814070D02*
X690870D01*
X674370Y797570D02*
Y830570D01*
X1579890Y814070D02*
X1612890D01*
X1596390Y797570D02*
Y830570D01*
X1424218Y510286D02*
X1429218D01*
X1426718Y507786D02*
Y512786D01*
X1408978Y510032D02*
X1413978D01*
X1411478Y507532D02*
Y512532D01*
X1435648Y498856D02*
X1440648D01*
X1438148Y496356D02*
Y501356D01*
X1396024Y510037D02*
X1401024D01*
X1398524Y507537D02*
Y512537D01*
X1378712Y356870D02*
X1381252D01*
X1379982Y355600D02*
Y358140D01*
X1441704Y423672D02*
X1444244D01*
X1442974Y422402D02*
Y424942D01*
X1438402Y343154D02*
X1440942D01*
X1439672Y341884D02*
Y344424D01*
X1440180Y356870D02*
X1442720D01*
X1441450Y355600D02*
Y358140D01*
X1065391Y509016D02*
X1067391D01*
X1066391Y508016D02*
Y510016D01*
X840764Y366268D02*
X843764D01*
X842264Y364768D02*
Y367768D01*
X1096796Y366522D02*
X1099796D01*
X1098296Y365022D02*
Y368022D01*
X1170940Y643890D02*
X1173480D01*
X1172210Y642620D02*
Y645160D01*
X1162985Y605455D02*
X1165525D01*
X1164255Y604185D02*
Y606725D01*
X1164590Y532130D02*
X1167130D01*
X1165860Y530860D02*
Y533400D01*
X1169029Y461989D02*
X1171570D01*
X1170300Y460719D02*
Y463259D01*
X1140655Y644225D02*
X1143195D01*
X1141925Y642955D02*
Y645495D01*
X1140655Y657352D02*
X1143195D01*
X1141925Y656082D02*
Y658622D01*
X988338Y822198D02*
X991338D01*
X989838Y820698D02*
Y823698D01*
X1072666Y797306D02*
X1075666D01*
X1074166Y795806D02*
Y798806D01*
X679196Y784352D02*
X681736D01*
X680466Y783082D02*
Y785622D01*
X1328855Y786820D02*
X1331396D01*
X1330125Y785549D02*
Y788090D01*
X1215390Y306324D02*
X1217930D01*
X1216660Y305054D02*
Y307594D01*
X1220470Y446582D02*
X1223010D01*
X1221740Y445312D02*
Y447852D01*
X1386078Y498856D02*
X1388618D01*
X1387348Y497586D02*
Y500126D01*
X1426718Y275082D02*
X1429258D01*
X1427988Y273812D02*
Y276352D01*
X1017270Y720030D02*
X1019810D01*
X1018540Y718760D02*
Y721300D01*
X1003270Y720030D02*
X1005810D01*
X1004540Y718760D02*
Y721300D01*
X989270Y720030D02*
X991810D01*
X990540Y718760D02*
Y721300D01*
X989270Y734030D02*
X991810D01*
X990540Y732760D02*
Y735300D01*
X1003270Y734030D02*
X1005810D01*
X1004540Y732760D02*
Y735300D01*
X1017270Y734030D02*
X1019810D01*
X1018540Y732760D02*
Y735300D01*
X1017270Y748030D02*
X1019810D01*
X1018540Y746760D02*
Y749300D01*
X1003270Y748030D02*
X1005810D01*
X1004540Y746760D02*
Y749300D01*
X989270Y748030D02*
X991810D01*
X990540Y746760D02*
Y749300D01*
X1221740Y279146D02*
X1224280D01*
X1223010Y277876D02*
Y280416D01*
X1297442Y293133D02*
X1299982D01*
X1298712Y291863D02*
Y294403D01*
X1346200Y342138D02*
X1348740D01*
X1347470Y340868D02*
Y343408D01*
X1358981Y349331D02*
X1361521D01*
X1360251Y348061D02*
Y350601D01*
X1289050Y344170D02*
X1291590D01*
X1290320Y342900D02*
Y345440D01*
X1288288Y331470D02*
X1290828D01*
X1289558Y330200D02*
Y332740D01*
X918972Y487680D02*
X921512D01*
X920242Y486410D02*
Y488950D01*
X1036320Y465836D02*
X1038860D01*
X1037590Y464566D02*
Y467106D01*
X1023112Y465836D02*
X1025652D01*
X1024382Y464566D02*
Y467106D01*
X1009904Y465836D02*
X1012444D01*
X1011174Y464566D02*
Y467106D01*
X1036320Y478663D02*
X1038860D01*
X1037590Y477393D02*
Y479933D01*
X1023112Y478663D02*
X1025652D01*
X1024382Y477393D02*
Y479933D01*
X1009904Y478663D02*
X1012444D01*
X1011174Y477393D02*
Y479933D01*
X1036320Y491490D02*
X1038860D01*
X1037590Y490220D02*
Y492760D01*
X1023112Y491490D02*
X1025652D01*
X1024382Y490220D02*
Y492760D01*
X1009904Y491490D02*
X1012444D01*
X1011174Y490220D02*
Y492760D01*
X886821Y834751D02*
X889361D01*
X888091Y833481D02*
Y836021D01*
X872236Y732536D02*
X874776D01*
X873506Y731266D02*
Y733806D01*
X981710Y573532D02*
X984250D01*
X982980Y572262D02*
Y574802D01*
X944819Y555060D02*
X947359D01*
X946089Y553790D02*
Y556330D01*
X974852Y554990D02*
X977392D01*
X976122Y553720D02*
Y556260D01*
X965200Y554990D02*
X967740D01*
X966470Y553720D02*
Y556260D01*
X915416Y599440D02*
X917956D01*
X916686Y598170D02*
Y600710D01*
X1185926Y261112D02*
X1188466D01*
X1187196Y259842D02*
Y262382D01*
X886800Y523038D02*
X888800D01*
X887800Y522038D02*
Y524038D01*
X866410Y537698D02*
X868410D01*
X867410Y536698D02*
Y538698D01*
X862096Y543261D02*
X864096D01*
X863096Y542261D02*
Y544261D01*
X1139940Y560176D02*
X1142480D01*
X1141210Y558906D02*
Y561446D01*
X722357Y418103D02*
X724897D01*
X723627Y416833D02*
Y419373D01*
X728039Y510869D02*
X730579D01*
X729309Y509599D02*
Y512139D01*
X1050560Y549910D02*
X1052560D01*
X1051560Y548910D02*
Y550910D01*
X1041670Y549910D02*
X1043670D01*
X1042670Y548910D02*
Y550910D01*
X787670Y431350D02*
X789670D01*
X788670Y430350D02*
Y432350D01*
X787670Y461010D02*
X789670D01*
X788670Y460010D02*
Y462010D01*
X717042Y544322D02*
X719582D01*
X718312Y543052D02*
Y545592D01*
X1341120Y788924D02*
X1343660D01*
X1342390Y787654D02*
Y790194D01*
X872998Y656880D02*
X875538D01*
X874268Y655610D02*
Y658150D01*
X937514Y601218D02*
X940054D01*
X938784Y599948D02*
Y602488D01*
X889567Y476120D02*
X891568D01*
X890567Y475120D02*
Y477120D01*
X922111Y500832D02*
X924651D01*
X923381Y499562D02*
Y502102D01*
X883936Y469392D02*
X885936D01*
X884936Y468392D02*
Y470392D01*
X910082Y515874D02*
X912622D01*
X911352Y514604D02*
Y517144D01*
X910082Y500905D02*
X912622D01*
X911352Y499635D02*
Y502175D01*
X882920Y515620D02*
X884920D01*
X883920Y514620D02*
Y516620D01*
X1099104Y642066D02*
X1101644D01*
X1100374Y640796D02*
Y643336D01*
X1108710Y651510D02*
X1111250D01*
X1109980Y650240D02*
Y652780D01*
X1064903Y646384D02*
X1067443D01*
X1066173Y645114D02*
Y647654D01*
X1211580Y789940D02*
X1214120D01*
X1212850Y788670D02*
Y791210D01*
X1051651Y646431D02*
X1054191D01*
X1052921Y645161D02*
Y647701D01*
X920841Y515874D02*
X923381D01*
X922111Y514604D02*
Y517144D01*
X1040130Y646430D02*
X1042670D01*
X1041400Y645160D02*
Y647700D01*
X1014730Y646430D02*
X1017270D01*
X1016000Y645160D02*
Y647700D01*
X1027430Y646430D02*
X1029970D01*
X1028700Y645160D02*
Y647700D01*
X1002030Y646430D02*
X1004570D01*
X1003300Y645160D02*
Y647700D01*
X976630Y646430D02*
X979170D01*
X977900Y645160D02*
Y647700D01*
X963930Y646430D02*
X966470D01*
X965200Y645160D02*
Y647700D01*
X989330Y646430D02*
X991870D01*
X990600Y645160D02*
Y647700D01*
X928116Y456184D02*
X930656D01*
X929386Y454914D02*
Y457454D01*
X1003808Y437134D02*
X1006348D01*
X1005078Y435864D02*
Y438404D01*
X1064514Y425196D02*
X1067054D01*
X1065784Y423926D02*
Y426466D01*
X1091438Y532892D02*
X1093978D01*
X1092708Y531622D02*
Y534162D01*
X1070102Y517652D02*
X1072642D01*
X1071372Y516382D02*
Y518922D01*
X1136920Y528066D02*
X1138920D01*
X1137920Y527066D02*
Y529066D01*
X1069086Y528320D02*
X1071626D01*
X1070356Y527050D02*
Y529590D01*
X1093734Y468630D02*
X1096274D01*
X1095004Y467360D02*
Y469900D01*
X1449324Y788670D02*
X1451864D01*
X1450594Y787400D02*
Y789940D01*
X1615440Y500634D02*
X1617980D01*
X1616710Y499364D02*
Y501904D01*
X1231492Y790348D02*
X1234032D01*
X1232762Y789078D02*
Y791618D01*
X1170940Y605790D02*
X1173480D01*
X1172210Y604520D02*
Y607060D01*
X1242060Y789940D02*
X1244600D01*
X1243330Y788670D02*
Y791210D01*
X1221740Y789940D02*
X1224280D01*
X1223010Y788670D02*
Y791210D01*
X1120140Y779780D02*
X1122680D01*
X1121410Y778510D02*
Y781050D01*
X787670Y473710D02*
X789670D01*
X788670Y472710D02*
Y474710D01*
X787670Y444500D02*
X789670D01*
X788670Y443500D02*
Y445500D01*
X1280583Y344170D02*
X1283123D01*
X1281853Y342900D02*
Y345440D01*
X1272117Y344170D02*
X1274657D01*
X1273387Y342900D02*
Y345440D01*
X1263650Y344170D02*
X1266190D01*
X1264920Y342900D02*
Y345440D01*
X1438910Y788670D02*
X1441450D01*
X1440180Y787400D02*
Y789940D01*
X755650Y618490D02*
X758190D01*
X756920Y617220D02*
Y619760D01*
X763270Y565150D02*
X765810D01*
X764540Y563880D02*
Y566420D01*
X1038860Y822025D02*
X1041400D01*
X1040130Y820755D02*
Y823295D01*
X769620Y508000D02*
X772160D01*
X770890Y506730D02*
Y509270D01*
X890540Y656590D02*
X892540D01*
X891540Y655590D02*
Y657590D01*
X1293622Y772160D02*
X1296162D01*
X1294892Y770890D02*
Y773430D01*
X1120140Y755650D02*
X1122680D01*
X1121410Y754380D02*
Y756920D01*
X1148080Y831850D02*
X1150620D01*
X1149350Y830580D02*
Y833120D01*
X1117600Y642620D02*
X1120140D01*
X1118870Y641350D02*
Y643890D01*
X810530Y651510D02*
X812530D01*
X811530Y650510D02*
Y652510D01*
X951230Y822025D02*
X953770D01*
X952500Y820755D02*
Y823295D01*
X1011855Y822025D02*
X1014395D01*
X1013125Y820755D02*
Y823295D01*
X999155Y822025D02*
X1001695D01*
X1000425Y820755D02*
Y823295D01*
X810530Y640080D02*
X812530D01*
X811530Y639080D02*
Y641080D01*
X1027430Y822025D02*
X1029970D01*
X1028700Y820755D02*
Y823295D01*
X1078230Y822025D02*
X1080770D01*
X1079500Y820755D02*
Y823295D01*
X952770Y646720D02*
X954770D01*
X953770Y645720D02*
Y647720D01*
X1054247Y572770D02*
X1056247D01*
X1055247Y571770D02*
Y573770D01*
X1036713Y572770D02*
X1038713D01*
X1037713Y571770D02*
Y573770D01*
M02*
