G04*
G04 #@! TF.GenerationSoftware,Altium Limited,Altium Designer,26.5.0 (11)*
G04*
G04 Layer_Color=16711935*
G04 Board_Origin=0|0*
%FSLAX44Y44*%
%MOMM*%
G71*
G04*
G04 #@! TF.SameCoordinates,A90659DB-F331-4761-9575-B882DE05BAF6*
G04*
G04*
G04 #@! TF.FilePolarity,Positive*
G04*
G01*
G75*
%ADD11C,0.2000*%
%ADD14C,0.1270*%
%ADD15C,0.3000*%
D11*
X1479370Y440160D02*
G03*
X1479370Y440160I-1000J0D01*
G01*
X1489250Y340360D02*
G03*
X1489250Y340360I-1000J0D01*
G01*
X1348390Y306820D02*
G03*
X1348390Y306820I-1000J0D01*
G01*
X1289970D02*
G03*
X1289970Y306820I-1000J0D01*
G01*
X1227740D02*
G03*
X1227740Y306820I-1000J0D01*
G01*
X928340Y644030D02*
G03*
X928340Y644030I-1000J0D01*
G01*
X1403550Y528730D02*
G03*
X1403550Y528730I-1000J0D01*
G01*
X1295540Y377190D02*
G03*
X1295540Y377190I-1000J0D01*
G01*
X1381250Y332930D02*
G03*
X1381250Y332930I-1000J0D01*
G01*
X1413520Y463813D02*
G03*
X1413520Y463813I-1000J0D01*
G01*
X1408960Y736190D02*
G03*
X1408960Y736190I-1000J0D01*
G01*
X1491225Y505190D02*
G03*
X1491225Y505190I-1000J0D01*
G01*
D14*
X1483370Y410060D02*
Y423060D01*
X1454370Y410060D02*
X1483370D01*
X1454370D02*
Y423060D01*
X1483370D01*
X1494250Y402260D02*
X1617250D01*
Y329260D02*
Y402260D01*
X1494250Y329260D02*
X1617250D01*
X1494250D02*
Y402260D01*
X1322390Y259820D02*
X1362390D01*
Y288820D01*
X1322390D02*
X1362390D01*
X1322390Y259820D02*
Y288820D01*
X1263970Y259820D02*
X1303970D01*
Y288820D01*
X1263970D02*
X1303970D01*
X1263970Y259820D02*
Y288820D01*
X1201740Y259820D02*
X1241740D01*
Y288820D01*
X1201740D02*
X1241740D01*
X1201740Y259820D02*
Y288820D01*
X1106020Y586100D02*
Y633100D01*
X992020Y586100D02*
Y633100D01*
Y586100D02*
X1106020D01*
X992020Y633100D02*
X1106020D01*
X1465180Y812490D02*
Y854990D01*
X1415180D02*
X1465180D01*
X1415180Y812490D02*
Y854990D01*
Y812490D02*
X1465180D01*
X1357145D02*
Y854990D01*
X1307145D02*
X1357145D01*
X1307145Y812490D02*
Y854990D01*
Y812490D02*
X1357145D01*
X1198330Y812240D02*
X1258330D01*
X1198330D02*
Y854740D01*
X1258330D01*
Y812240D02*
Y854740D01*
X915440Y659030D02*
X1107440D01*
Y839030D01*
X915440D02*
X1107440D01*
X915440Y659030D02*
Y839030D01*
X1393050Y537230D02*
X1439050D01*
X1449050Y547230D01*
Y603230D01*
X1383050D02*
X1449050D01*
X1383050Y547230D02*
Y603230D01*
Y547230D02*
X1393050Y537230D01*
X1310515Y363865D02*
X1361565D01*
Y390515D01*
X1310515D02*
X1361565D01*
X1310515Y363865D02*
Y390515D01*
X1320350Y285355D02*
Y334405D01*
X1359350Y285355D02*
Y334405D01*
X1320350Y285355D02*
X1359350D01*
X1320350Y334405D02*
X1359350D01*
X1349020Y408313D02*
X1384020D01*
X1349020Y473313D02*
X1384020D01*
Y408313D02*
Y473313D01*
X1349020Y408313D02*
Y473313D01*
X994690Y507960D02*
X1054690D01*
X994690Y447960D02*
Y507960D01*
Y447960D02*
X1054690D01*
Y507960D01*
X1417460Y727690D02*
X1427460Y717690D01*
Y661690D02*
Y717690D01*
X1361460Y661690D02*
X1427460D01*
X1361460D02*
Y717690D01*
X1371460Y727690D01*
X1417460D01*
X1517025Y510640D02*
X1582025D01*
X1517025Y464640D02*
X1582025D01*
X1517025D02*
Y510640D01*
X1582025Y464640D02*
Y510640D01*
D15*
X1459180Y805240D02*
G03*
X1459180Y805240I-1000J0D01*
G01*
X1351145D02*
G03*
X1351145Y805240I-1000J0D01*
G01*
X1253830Y805140D02*
G03*
X1253830Y805140I-1000J0D01*
G01*
M02*
